<svg width="23" height="33" viewBox="0 0 23 33" fill="none" xmlns="http://www.w3.org/2000/svg">
<path fill-rule="evenodd" clip-rule="evenodd" d="M0 6.48703C0 3.18048 2.68514 0.5 5.99742 0.5H16.2883C19.6006 0.5 22.2857 3.18048 22.2857 6.48703C22.2857 8.58077 21.2091 10.4235 19.5784 11.4936C21.2091 12.5637 22.2857 14.4064 22.2857 16.5001C22.2857 19.8067 19.6006 22.4872 16.2883 22.4872H16.158C14.6052 22.4872 13.1902 21.8981 12.1251 20.9315V26.4479C12.1251 29.7986 9.36981 32.5 6.02978 32.5C2.72573 32.5 0 29.8277 0 26.513C0 24.4193 1.07652 22.5767 2.70714 21.5065C1.07652 20.4364 0 18.5938 0 16.5001C0 14.4064 1.07661 12.5637 2.70735 11.4936C1.07661 10.4235 0 8.58077 0 6.48703ZM10.1606 12.4742H5.99742C3.7701 12.4742 1.96451 14.2767 1.96451 16.5001C1.96451 18.7151 3.75628 20.5122 5.97182 20.526C5.98035 20.5259 5.98889 20.5259 5.99742 20.5259H10.1606V12.4742ZM12.1251 16.5001C12.1251 18.7236 13.9307 20.5261 16.158 20.5261H16.2883C18.5156 20.5261 20.3212 18.7236 20.3212 16.5001C20.3212 14.2767 18.5156 12.4742 16.2883 12.4742H16.158C13.9307 12.4742 12.1251 14.2767 12.1251 16.5001ZM5.99742 22.4872C5.98895 22.4872 5.98049 22.4872 5.97202 22.4871C3.7564 22.5008 1.96451 24.298 1.96451 26.513C1.96451 28.7282 3.79423 30.5389 6.02978 30.5389C8.3013 30.5389 10.1606 28.6991 10.1606 26.4479V22.4872H5.99742ZM5.99742 2.46111H10.1606V10.513H5.99742C3.7701 10.513 1.96451 8.71049 1.96451 6.48703C1.96451 4.26358 3.7701 2.46111 5.99742 2.46111ZM12.1251 10.513V2.46111H16.2883C18.5156 2.46111 20.3212 4.26358 20.3212 6.48703C20.3212 8.71049 18.5156 10.513 16.2883 10.513H12.1251Z" fill="#C1C7CD"/>
</svg>
