<svg width="35" height="32" viewBox="0 0 35 32" fill="none" xmlns="http://www.w3.org/2000/svg">
<path d="M23.6018 26.4845L2.18918 11.714C0.0192696 10.2173 0.756895 7.10088 3.46272 6.36802L26.2205 0.191307C26.7026 0.0173566 27.2192 -0.0391112 27.7275 0.0265948C28.2357 0.0923008 28.721 0.278283 29.1431 0.569108C29.565 0.859932 29.9116 1.24721 30.1539 1.6988C30.3962 2.15038 30.5274 2.65326 30.5364 3.16568L29.1877 24.1116C29.0278 26.5978 25.7717 27.9812 23.6018 26.4845Z" fill="#697077"/>
<path d="M16.8104 30.1301L4.19553 5.4603C3.90717 4.89594 3.78028 4.26288 3.82885 3.63097C3.87741 2.99906 4.09956 2.39283 4.47077 1.87915C4.84199 1.36548 5.34786 0.964296 5.93261 0.719853C6.51735 0.475411 7.15823 0.397208 7.78459 0.493875L31.163 4.10202C31.7012 4.18511 32.2121 4.39476 32.6536 4.71374C33.095 5.03273 33.4543 5.45194 33.7022 5.93689C33.95 6.42185 34.0793 6.95871 34.0792 7.50333C34.0791 8.04795 33.9497 8.58478 33.7018 9.06965L22.9322 30.1313C22.643 30.6941 22.2042 31.1663 21.6642 31.4958C21.1241 31.8255 20.5036 31.9997 19.8709 31.9996C19.2382 31.9995 18.6178 31.825 18.0778 31.4952C17.5379 31.1653 17.0993 30.693 16.8104 30.1301Z" fill="#697077"/>
<path d="M24.4999 8.72693L20.0111 8L14.4999 9.57011L16.6997 14.0856L21.8509 17.8153C21.9646 17.8966 22.0896 17.959 22.2215 18L24.1781 13.9852L24.4999 8.72693Z" fill="white"/>
</svg>
