<svg width="25" height="30" viewBox="0 0 25 30" fill="none" xmlns="http://www.w3.org/2000/svg">
<path d="M14.025 4.65002V0.400024H0.625V29.6H14.025V25.35C11.28 25.35 8.6474 24.2595 6.70644 22.3185C4.76544 20.3775 3.675 17.745 3.675 15C3.675 12.255 4.76544 9.62243 6.70644 7.68147C8.6474 5.74047 11.28 4.65002 14.025 4.65002Z" fill="#697077"/>
<path d="M14.0254 4.65002V25.35C16.7704 25.35 19.403 24.2595 21.344 22.3185C23.285 20.3775 24.3754 17.745 24.3754 15C24.3754 12.255 23.285 9.62243 21.344 7.68147C19.403 5.74047 16.7704 4.65002 14.0254 4.65002Z" fill="#697077"/>
</svg>
