<svg width="96" height="97" viewBox="0 0 96 97" fill="none" xmlns="http://www.w3.org/2000/svg">
<path d="M48 88.5C25.908 88.5 8 70.592 8 48.5C8 26.408 25.908 8.5 48 8.5C70.092 8.5 88 26.408 88 48.5C88 70.592 70.092 88.5 48 88.5ZM48 80.5C56.4869 80.5 64.6263 77.1286 70.6274 71.1274C76.6286 65.1263 80 56.9869 80 48.5C80 40.0131 76.6286 31.8737 70.6274 25.8726C64.6263 19.8714 56.4869 16.5 48 16.5C39.5131 16.5 31.3737 19.8714 25.3726 25.8726C19.3714 31.8737 16 40.0131 16 48.5C16 56.9869 19.3714 65.1263 25.3726 71.1274C31.3737 77.1286 39.5131 80.5 48 80.5ZM64.504 55.484L48.284 67.076C44.664 69.66 39.764 68.632 37.336 64.772C36.4598 63.3685 35.9967 61.7465 36 60.092V36.908C36 32.268 39.532 28.5 43.888 28.5C45.452 28.5 46.984 28.996 48.284 29.924L64.504 41.516C68.124 44.104 69.088 49.324 66.664 53.184C66.1003 54.0838 65.3666 54.865 64.504 55.484ZM43.888 36.908V60.092L60.108 48.5L43.888 36.908Z" fill="#C1C7CD"/>
</svg>
