<svg width="25" height="24" viewBox="0 0 25 24" fill="none" xmlns="http://www.w3.org/2000/svg">
<path d="M16.517 2H8.447C6.87015 2.00185 5.35844 2.62914 4.24353 3.74424C3.12862 4.85933 2.50159 6.37115 2.5 7.948L2.5 16.018C2.50185 17.5948 3.12914 19.1066 4.24424 20.2215C5.35933 21.3364 6.87115 21.9634 8.448 21.965H16.518C18.0948 21.9631 19.6066 21.3359 20.7215 20.2208C21.8364 19.1057 22.4634 17.5938 22.465 16.017V7.947C22.4631 6.37015 21.8359 4.85844 20.7208 3.74353C19.6057 2.62862 18.0938 2.00159 16.517 2V2ZM20.457 16.017C20.457 16.5344 20.3551 17.0468 20.1571 17.5248C19.9591 18.0028 19.6689 18.4371 19.303 18.803C18.9371 19.1689 18.5028 19.4591 18.0248 19.6571C17.5468 19.8551 17.0344 19.957 16.517 19.957H8.447C7.40222 19.9567 6.40032 19.5415 5.66165 18.8026C4.92297 18.0638 4.508 17.0618 4.508 16.017V7.947C4.50827 6.90222 4.92349 5.90032 5.66235 5.16165C6.40122 4.42297 7.40322 4.008 8.448 4.008H16.518C17.5628 4.00827 18.5647 4.42349 19.3034 5.16235C20.042 5.90122 20.457 6.90322 20.457 7.948V16.018V16.017Z" fill="#697077"/>
<path d="M12.4823 6.819C11.1137 6.82112 9.80184 7.36579 8.83421 8.33361C7.86658 9.30143 7.32216 10.6134 7.32031 11.982C7.3219 13.3509 7.86634 14.6633 8.83421 15.6314C9.80209 16.5995 11.1144 17.1441 12.4833 17.146C13.8524 17.1444 15.165 16.5998 16.1331 15.6317C17.1012 14.6637 17.6457 13.3511 17.6473 11.982C17.6452 10.6131 17.1003 9.30088 16.132 8.33319C15.1637 7.3655 13.8512 6.82132 12.4823 6.82V6.819ZM12.4823 15.138C11.6456 15.138 10.8431 14.8056 10.2514 14.2139C9.65971 13.6222 9.32731 12.8198 9.32731 11.983C9.32731 11.1462 9.65971 10.3438 10.2514 9.75208C10.8431 9.1604 11.6456 8.828 12.4823 8.828C13.3191 8.828 14.1216 9.1604 14.7132 9.75208C15.3049 10.3438 15.6373 11.1462 15.6373 11.983C15.6373 12.8198 15.3049 13.6222 14.7132 14.2139C14.1216 14.8056 13.3191 15.138 12.4823 15.138Z" fill="#697077"/>
<path d="M17.6559 8.095C18.3391 8.095 18.8929 7.54118 18.8929 6.858C18.8929 6.17483 18.3391 5.621 17.6559 5.621C16.9728 5.621 16.4189 6.17483 16.4189 6.858C16.4189 7.54118 16.9728 8.095 17.6559 8.095Z" fill="#697077"/>
</svg>
