<svg width="24" height="24" viewBox="0 0 24 24" fill="none" xmlns="http://www.w3.org/2000/svg">
<path d="M12.0709 13.314L17.0209 8.364C17.1131 8.26849 17.2235 8.19231 17.3455 8.1399C17.4675 8.08749 17.5987 8.05991 17.7315 8.05875C17.8643 8.0576 17.996 8.0829 18.1189 8.13318C18.2417 8.18346 18.3534 8.25772 18.4473 8.35161C18.5412 8.4455 18.6154 8.55715 18.6657 8.68005C18.716 8.80295 18.7413 8.93463 18.7402 9.06741C18.739 9.20018 18.7114 9.3314 18.659 9.45341C18.6066 9.57541 18.5304 9.68576 18.4349 9.778L12.7779 15.435C12.5904 15.6225 12.3361 15.7278 12.0709 15.7278C11.8057 15.7278 11.5514 15.6225 11.3639 15.435L5.7069 9.778C5.61139 9.68576 5.53521 9.57541 5.4828 9.45341C5.43039 9.3314 5.4028 9.20018 5.40165 9.06741C5.4005 8.93463 5.4258 8.80295 5.47608 8.68005C5.52636 8.55715 5.60061 8.4455 5.6945 8.35161C5.7884 8.25772 5.90005 8.18346 6.02295 8.13318C6.14584 8.0829 6.27752 8.0576 6.4103 8.05875C6.54308 8.05991 6.6743 8.08749 6.7963 8.1399C6.91831 8.19231 7.02865 8.26849 7.1209 8.364L12.0709 13.314Z" fill="#21272A"/>
</svg>
