<svg width="25" height="24" viewBox="0 0 25 24" fill="none" xmlns="http://www.w3.org/2000/svg">
<path d="M15.753 10.6574L11.803 6.70741C11.6208 6.5188 11.52 6.2662 11.5223 6.00401C11.5246 5.74181 11.6298 5.491 11.8152 5.30559C12.0006 5.12018 12.2514 5.01501 12.5136 5.01273C12.7758 5.01045 13.0284 5.11125 13.217 5.29341L18.874 10.9504C18.9672 11.0431 19.0411 11.1532 19.0916 11.2746C19.142 11.3959 19.168 11.526 19.168 11.6574C19.168 11.7888 19.142 11.9189 19.0916 12.0403C19.0411 12.1616 18.9672 12.2718 18.874 12.3644L13.217 18.0214C13.1247 18.1169 13.0144 18.1931 12.8924 18.2455C12.7704 18.2979 12.6392 18.3255 12.5064 18.3267C12.3736 18.3278 12.2419 18.3025 12.119 18.2522C11.9961 18.2019 11.8845 18.1277 11.7906 18.0338C11.6967 17.9399 11.6225 17.8283 11.5722 17.7054C11.5219 17.5825 11.4966 17.4508 11.4977 17.318C11.4989 17.1852 11.5265 17.054 11.5789 16.932C11.6313 16.81 11.7075 16.6997 11.803 16.6074L15.753 12.6574H6.16699C5.90178 12.6574 5.64742 12.5521 5.45989 12.3645C5.27235 12.177 5.16699 11.9226 5.16699 11.6574C5.16699 11.3922 5.27235 11.1378 5.45989 10.9503C5.64742 10.7628 5.90178 10.6574 6.16699 10.6574H15.753Z" fill="white"/>
</svg>
