<svg width="96" height="96" viewBox="0 0 96 96" fill="none" xmlns="http://www.w3.org/2000/svg">
<path d="M80 40V32C80 30.9391 79.5786 29.9217 78.8284 29.1716C78.0783 28.4214 77.0609 28 76 28H72V32C72 33.0609 71.5786 34.0783 70.8284 34.8284C70.0783 35.5786 69.0609 36 68 36C66.9391 36 65.9217 35.5786 65.1716 34.8284C64.4214 34.0783 64 33.0609 64 32V28H32V32C32 33.0609 31.5786 34.0783 30.8284 34.8284C30.0783 35.5786 29.0609 36 28 36C26.9391 36 25.9217 35.5786 25.1716 34.8284C24.4214 34.0783 24 33.0609 24 32V28H20C18.9391 28 17.9217 28.4214 17.1716 29.1716C16.4214 29.9217 16 30.9391 16 32V40H80ZM80 48H16V72C16 73.0609 16.4214 74.0783 17.1716 74.8284C17.9217 75.5786 18.9391 76 20 76H76C77.0609 76 78.0783 75.5786 78.8284 74.8284C79.5786 74.0783 80 73.0609 80 72V48ZM72 20H76C79.1826 20 82.2348 21.2643 84.4853 23.5147C86.7357 25.7652 88 28.8174 88 32V72C88 75.1826 86.7357 78.2348 84.4853 80.4853C82.2348 82.7357 79.1826 84 76 84H20C16.8174 84 13.7652 82.7357 11.5147 80.4853C9.26428 78.2348 8 75.1826 8 72V32C8 28.8174 9.26428 25.7652 11.5147 23.5147C13.7652 21.2643 16.8174 20 20 20H24V16C24 14.9391 24.4214 13.9217 25.1716 13.1716C25.9217 12.4214 26.9391 12 28 12C29.0609 12 30.0783 12.4214 30.8284 13.1716C31.5786 13.9217 32 14.9391 32 16V20H64V16C64 14.9391 64.4214 13.9217 65.1716 13.1716C65.9217 12.4214 66.9391 12 68 12C69.0609 12 70.0783 12.4214 70.8284 13.1716C71.5786 13.9217 72 14.9391 72 16V20Z" fill="#C1C7CD"/>
</svg>
