<svg width="24" height="24" viewBox="0 0 24 24" fill="none" xmlns="http://www.w3.org/2000/svg">
<path d="M13.3999 11.4004V6.40039C13.3999 6.13517 13.2945 5.88082 13.107 5.69328C12.9195 5.50575 12.6651 5.40039 12.3999 5.40039C12.1347 5.40039 11.8803 5.50575 11.6928 5.69328C11.5053 5.88082 11.3999 6.13517 11.3999 6.40039V11.4004H6.3999C6.13469 11.4004 5.88033 11.5057 5.6928 11.6933C5.50526 11.8808 5.3999 12.1352 5.3999 12.4004C5.3999 12.6656 5.50526 12.92 5.6928 13.1075C5.88033 13.295 6.13469 13.4004 6.3999 13.4004H11.3999V18.4004C11.3999 18.6656 11.5053 18.92 11.6928 19.1075C11.8803 19.295 12.1347 19.4004 12.3999 19.4004C12.6651 19.4004 12.9195 19.295 13.107 19.1075C13.2945 18.92 13.3999 18.6656 13.3999 18.4004V13.4004H18.3999C18.6651 13.4004 18.9195 13.295 19.107 13.1075C19.2945 12.92 19.3999 12.6656 19.3999 12.4004C19.3999 12.1352 19.2945 11.8808 19.107 11.6933C18.9195 11.5057 18.6651 11.4004 18.3999 11.4004H13.3999Z" fill="#0F62FE"/>
</svg>
