<svg width="25" height="24" viewBox="0 0 25 24" fill="none" xmlns="http://www.w3.org/2000/svg">
<path d="M13.8999 11.4V6.40002C13.8999 6.13481 13.7945 5.88045 13.607 5.69292C13.4195 5.50538 13.1651 5.40002 12.8999 5.40002C12.6347 5.40002 12.3803 5.50538 12.1928 5.69292C12.0053 5.88045 11.8999 6.13481 11.8999 6.40002V11.4H6.8999C6.63469 11.4 6.38033 11.5054 6.1928 11.6929C6.00526 11.8805 5.8999 12.1348 5.8999 12.4C5.8999 12.6652 6.00526 12.9196 6.1928 13.1071C6.38033 13.2947 6.63469 13.4 6.8999 13.4H11.8999V18.4C11.8999 18.6652 12.0053 18.9196 12.1928 19.1071C12.3803 19.2947 12.6347 19.4 12.8999 19.4C13.1651 19.4 13.4195 19.2947 13.607 19.1071C13.7945 18.9196 13.8999 18.6652 13.8999 18.4V13.4H18.8999C19.1651 13.4 19.4195 13.2947 19.607 13.1071C19.7945 12.9196 19.8999 12.6652 19.8999 12.4C19.8999 12.1348 19.7945 11.8805 19.607 11.6929C19.4195 11.5054 19.1651 11.4 18.8999 11.4H13.8999Z" fill="white"/>
</svg>
