<svg width="25" height="25" viewBox="0 0 25 25" fill="none" xmlns="http://www.w3.org/2000/svg">
<path d="M11.3197 17.2304C11.1885 17.2306 11.0584 17.205 10.9371 17.1549C10.8158 17.1048 10.7055 17.0312 10.6127 16.9384L6.37073 12.6954C6.27515 12.6032 6.1989 12.4929 6.1464 12.3709C6.09391 12.249 6.06623 12.1178 6.06499 11.985C6.06374 11.8522 6.08895 11.7205 6.13914 11.5976C6.18934 11.4747 6.26351 11.363 6.35733 11.269C6.45116 11.175 6.56276 11.1007 6.68562 11.0503C6.80848 11 6.94014 10.9746 7.07292 10.9756C7.2057 10.9767 7.33693 11.0042 7.45897 11.0565C7.58101 11.1088 7.69141 11.1849 7.78373 11.2804L11.3187 14.8154L17.6837 8.45238C17.8712 8.26474 18.1256 8.15927 18.3909 8.15918C18.6561 8.15909 18.9106 8.26437 19.0982 8.45188C19.2859 8.63939 19.3913 8.89376 19.3914 9.15903C19.3915 9.4243 19.2862 9.67874 19.0987 9.86638L12.0267 16.9384C11.9339 17.0312 11.8237 17.1048 11.7023 17.1549C11.581 17.205 11.451 17.2306 11.3197 17.2304Z" fill="#25A249"/>
</svg>
