<svg width="96" height="97" viewBox="0 0 96 97" fill="none" xmlns="http://www.w3.org/2000/svg">
<path d="M48 88.2C25.908 88.2 8 70.292 8 48.2C8 26.108 25.908 8.19995 48 8.19995C70.092 8.19995 88 26.108 88 48.2C88 70.292 70.092 88.2 48 88.2ZM48 80.2C56.4869 80.2 64.6263 76.8285 70.6274 70.8274C76.6286 64.8262 80 56.6869 80 48.2C80 39.713 76.6286 31.5737 70.6274 25.5725C64.6263 19.5714 56.4869 16.2 48 16.2C39.5131 16.2 31.3737 19.5714 25.3726 25.5725C19.3714 31.5737 16 39.713 16 48.2C16 56.6869 19.3714 64.8262 25.3726 70.8274C31.3737 76.8285 39.5131 80.2 48 80.2V80.2ZM64.504 55.184L48.284 66.776C44.664 69.36 39.764 68.332 37.336 64.472C36.4598 63.0685 35.9967 61.4465 36 59.792V36.608C36 31.968 39.532 28.2 43.888 28.2C45.452 28.2 46.984 28.696 48.284 29.624L64.504 41.216C68.124 43.804 69.088 49.0239 66.664 52.8839C66.1003 53.7837 65.3666 54.565 64.504 55.184V55.184ZM43.888 36.608V59.792L60.108 48.2L43.888 36.608Z" fill="#C1C7CD"/>
</svg>
