<svg width="25" height="24" viewBox="0 0 25 24" fill="none" xmlns="http://www.w3.org/2000/svg">
<path d="M13.8999 11.4004V6.40039C13.8999 6.13517 13.7945 5.88082 13.607 5.69328C13.4195 5.50575 13.1651 5.40039 12.8999 5.40039C12.6347 5.40039 12.3803 5.50575 12.1928 5.69328C12.0053 5.88082 11.8999 6.13517 11.8999 6.40039V11.4004H6.8999C6.63469 11.4004 6.38033 11.5057 6.1928 11.6933C6.00526 11.8808 5.8999 12.1352 5.8999 12.4004C5.8999 12.6656 6.00526 12.92 6.1928 13.1075C6.38033 13.295 6.63469 13.4004 6.8999 13.4004H11.8999V18.4004C11.8999 18.6656 12.0053 18.92 12.1928 19.1075C12.3803 19.295 12.6347 19.4004 12.8999 19.4004C13.1651 19.4004 13.4195 19.295 13.607 19.1075C13.7945 18.92 13.8999 18.6656 13.8999 18.4004V13.4004H18.8999C19.1651 13.4004 19.4195 13.295 19.607 13.1075C19.7945 12.92 19.8999 12.6656 19.8999 12.4004C19.8999 12.1352 19.7945 11.8808 19.607 11.6933C19.4195 11.5057 19.1651 11.4004 18.8999 11.4004H13.8999Z" fill="#0F62FE"/>
</svg>
