<svg width="25" height="24" viewBox="0 0 25 24" fill="none" xmlns="http://www.w3.org/2000/svg">
<path d="M16.419 10.6574L12.469 6.70741C12.2868 6.5188 12.1861 6.2662 12.1883 6.00401C12.1906 5.74181 12.2958 5.491 12.4812 5.30559C12.6666 5.12018 12.9174 5.01501 13.1796 5.01273C13.4418 5.01045 13.6944 5.11125 13.883 5.29341L19.54 10.9504C19.6332 11.0431 19.7071 11.1532 19.7576 11.2746C19.8081 11.3959 19.834 11.526 19.834 11.6574C19.834 11.7888 19.8081 11.9189 19.7576 12.0403C19.7071 12.1616 19.6332 12.2718 19.54 12.3644L13.883 18.0214C13.7908 18.1169 13.6804 18.1931 13.5584 18.2455C13.4364 18.2979 13.3052 18.3255 13.1724 18.3267C13.0396 18.3278 12.9079 18.3025 12.7851 18.2522C12.6622 18.2019 12.5505 18.1277 12.4566 18.0338C12.3627 17.9399 12.2885 17.8283 12.2382 17.7054C12.1879 17.5825 12.1626 17.4508 12.1638 17.318C12.1649 17.1852 12.1925 17.054 12.2449 16.932C12.2973 16.81 12.3735 16.6997 12.469 16.6074L16.419 12.6574H6.83301C6.56779 12.6574 6.31344 12.5521 6.1259 12.3645C5.93836 12.177 5.83301 11.9226 5.83301 11.6574C5.83301 11.3922 5.93836 11.1378 6.1259 10.9503C6.31344 10.7628 6.56779 10.6574 6.83301 10.6574H16.419Z" fill="white"/>
</svg>
