<svg width="96" height="96" viewBox="0 0 96 96" fill="none" xmlns="http://www.w3.org/2000/svg">
<path d="M64 76H32V82C32 83.5913 31.3679 85.1174 30.2426 86.2426C29.1174 87.3679 27.5913 88 26 88H22C20.4087 88 18.8826 87.3679 17.7574 86.2426C16.6321 85.1174 16 83.5913 16 82V75.32C13.6597 74.492 11.6337 72.9587 10.201 70.9314C8.76824 68.9041 7.99928 66.4825 8 64V52C8 49.52 8.752 47.216 10.04 45.304L14.384 18.104C14.8351 15.2847 16.2766 12.7187 18.4497 10.8668C20.6227 9.01485 23.3849 7.9984 26.24 8H69.76C72.613 8.00236 75.3717 9.02109 77.5415 10.8735C79.7113 12.7259 81.1502 15.2907 81.6 18.108L85.932 45.268C87.236 47.188 87.996 49.508 87.996 52V64C87.9967 66.4825 87.2278 68.9041 85.795 70.9314C84.3623 72.9587 82.3363 74.492 79.996 75.32V82C79.996 83.5913 79.3639 85.1174 78.2386 86.2426C77.1134 87.3679 75.5873 88 73.996 88H69.996C68.4047 88 66.8786 87.3679 65.7534 86.2426C64.6281 85.1174 63.996 83.5913 63.996 82V76H64ZM20 68H76C77.0609 68 78.0783 67.5786 78.8284 66.8284C79.5786 66.0783 80 65.0609 80 64V52C80 50.9391 79.5786 49.9217 78.8284 49.1716C78.0783 48.4214 77.0609 48 76 48H20C18.9391 48 17.9217 48.4214 17.1716 49.1716C16.4214 49.9217 16 50.9391 16 52V64C16 65.0609 16.4214 66.0783 17.1716 66.8284C17.9217 67.5786 18.9391 68 20 68ZM77 40.04L73.704 19.368C73.5539 18.4296 73.0745 17.5753 72.3518 16.9582C71.6291 16.341 70.7103 16.0014 69.76 16H26.236C25.2843 15.9995 24.3636 16.3383 23.6392 16.9556C22.9149 17.5729 22.4344 18.4282 22.284 19.368L18.984 40.044C19.3219 40.0152 19.6609 40.0005 20 40H76C76.336 40 76.672 40.012 77 40.04ZM70 56C69.4696 56 68.9609 56.2107 68.5858 56.5858C68.2107 56.9609 68 57.4696 68 58C68 58.5304 68.2107 59.0391 68.5858 59.4142C68.9609 59.7893 69.4696 60 70 60C70.5304 60 71.0391 59.7893 71.4142 59.4142C71.7893 59.0391 72 58.5304 72 58C72 57.4696 71.7893 56.9609 71.4142 56.5858C71.0391 56.2107 70.5304 56 70 56ZM70 64C69.2121 64 68.4319 63.8448 67.7039 63.5433C66.9759 63.2417 66.3145 62.7998 65.7574 62.2426C65.2002 61.6855 64.7583 61.0241 64.4567 60.2961C64.1552 59.5681 64 58.7879 64 58C64 57.2121 64.1552 56.4319 64.4567 55.7039C64.7583 54.9759 65.2002 54.3145 65.7574 53.7574C66.3145 53.2002 66.9759 52.7583 67.7039 52.4567C68.4319 52.1552 69.2121 52 70 52C71.5913 52 73.1174 52.6321 74.2426 53.7574C75.3679 54.8826 76 56.4087 76 58C76 59.5913 75.3679 61.1174 74.2426 62.2426C73.1174 63.3679 71.5913 64 70 64V64ZM26 56C25.4696 56 24.9609 56.2107 24.5858 56.5858C24.2107 56.9609 24 57.4696 24 58C24 58.5304 24.2107 59.0391 24.5858 59.4142C24.9609 59.7893 25.4696 60 26 60C26.5304 60 27.0391 59.7893 27.4142 59.4142C27.7893 59.0391 28 58.5304 28 58C28 57.4696 27.7893 56.9609 27.4142 56.5858C27.0391 56.2107 26.5304 56 26 56ZM26 64C25.2121 64 24.4319 63.8448 23.7039 63.5433C22.9759 63.2417 22.3145 62.7998 21.7574 62.2426C21.2002 61.6855 20.7583 61.0241 20.4567 60.2961C20.1552 59.5681 20 58.7879 20 58C20 57.2121 20.1552 56.4319 20.4567 55.7039C20.7583 54.9759 21.2002 54.3145 21.7574 53.7574C22.3145 53.2002 22.9759 52.7583 23.7039 52.4567C24.4319 52.1552 25.2121 52 26 52C27.5913 52 29.1174 52.6321 30.2426 53.7574C31.3679 54.8826 32 56.4087 32 58C32 59.5913 31.3679 61.1174 30.2426 62.2426C29.1174 63.3679 27.5913 64 26 64V64ZM28.816 20.376C29.8769 20.376 30.8943 20.7974 31.6444 21.5476C32.3946 22.2977 32.816 23.3151 32.816 24.376V32.376C32.816 33.4369 32.3946 34.4543 31.6444 35.2044C30.8943 35.9546 29.8769 36.376 28.816 36.376C27.7551 36.376 26.7377 35.9546 25.9876 35.2044C25.2374 34.4543 24.816 33.4369 24.816 32.376V24.376C24.816 23.3151 25.2374 22.2977 25.9876 21.5476C26.7377 20.7974 27.7551 20.376 28.816 20.376Z" fill="#C1C7CD"/>
</svg>
