<svg width="96" height="96" viewBox="0 0 96 96" fill="none" xmlns="http://www.w3.org/2000/svg">
<path d="M68 40V72H60V40H36V72H28V40C24.8174 40 21.7652 41.2643 19.5147 43.5147C17.2643 45.7652 16 48.8174 16 52V60C16 63.1826 17.2643 66.2349 19.5147 68.4853C21.7652 70.7357 24.8174 72 28 72H68C71.1826 72 74.2348 70.7357 76.4853 68.4853C78.7357 66.2349 80 63.1826 80 60V52C80 48.8174 78.7357 45.7652 76.4853 43.5147C74.2348 41.2643 71.1826 40 68 40ZM36.68 32H59.32C58.4881 29.6633 56.9535 27.6413 54.9267 26.2115C52.8999 24.7817 50.4804 24.0141 48 24.0141C45.5196 24.0141 43.1001 24.7817 41.0733 26.2115C39.0465 27.6413 37.5119 29.6633 36.68 32ZM28.4 32C29.3259 27.4854 31.782 23.4289 35.3531 20.5159C38.9242 17.6029 43.3915 16.012 48 16.012C52.6085 16.012 57.0758 17.6029 60.6469 20.5159C64.218 23.4289 66.6741 27.4854 67.6 32H68C73.3043 32 78.3914 34.1071 82.1421 37.8579C85.8929 41.6086 88 46.6957 88 52V60C88 65.3043 85.8929 70.3914 82.1421 74.1421C78.3914 77.8929 73.3043 80 68 80H28C22.6957 80 17.6086 77.8929 13.8579 74.1421C10.1071 70.3914 8 65.3043 8 60V52C8 46.6957 10.1071 41.6086 13.8579 37.8579C17.6086 34.1071 22.6957 32 28 32H28.4Z" fill="#C1C7CD"/>
</svg>
