<svg width="48" height="48" viewBox="0 0 48 48" fill="none" xmlns="http://www.w3.org/2000/svg">
<path d="M18.232 27.4981L16 9.89612L13.768 27.4961H6C4.896 27.4961 4 26.6221 4 25.5441C4.00633 25.0197 4.22048 24.5192 4.59544 24.1525C4.97041 23.7857 5.47555 23.5828 6 23.5881H10.232L12.032 9.41612C12.3 7.27212 14.3 5.75212 16.49 6.01612C18.31 6.23612 19.742 7.63612 19.968 9.41612L21.766 23.5881H25.714L28 38.0801L30.284 23.5901H42C43.104 23.5901 44 24.4661 44 25.5461C44 26.6261 43.104 27.5001 42 27.5001H33.716L31.954 38.6741C31.8162 39.5035 31.4178 40.2674 30.8165 40.855C30.2152 41.4426 29.4423 41.8234 28.61 41.9421C26.426 42.2721 24.384 40.8081 24.046 38.6741L22.286 27.5001H18.23L18.232 27.4981Z" fill="#C1C7CD"/>
</svg>
