<svg width="24" height="25" viewBox="0 0 24 25" fill="none" xmlns="http://www.w3.org/2000/svg">
<path d="M13.3142 12.271L8.36421 7.32096C8.18205 7.13236 8.08126 6.87976 8.08353 6.61756C8.08581 6.35537 8.19098 6.10455 8.37639 5.91914C8.5618 5.73374 8.81261 5.62857 9.07481 5.62629C9.337 5.62401 9.58961 5.72481 9.77821 5.90696L15.4352 11.564C15.6227 11.7515 15.728 12.0058 15.728 12.271C15.728 12.5361 15.6227 12.7904 15.4352 12.978L9.77821 18.635C9.58961 18.8171 9.337 18.9179 9.07481 18.9156C8.81261 18.9134 8.5618 18.8082 8.37639 18.6228C8.19098 18.4374 8.08581 18.1866 8.08353 17.9244C8.08126 17.6622 8.18205 17.4096 8.36421 17.221L13.3142 12.271Z" fill="#697077"/>
</svg>
