<svg width="25" height="25" viewBox="0 0 25 25" fill="none" xmlns="http://www.w3.org/2000/svg">
<path d="M10.8193 17.23C10.688 17.2303 10.558 17.2046 10.4367 17.1545C10.3154 17.1044 10.2051 17.0308 10.1123 16.938L5.8703 12.695C5.77473 12.6028 5.69847 12.4925 5.64598 12.3706C5.59348 12.2486 5.5658 12.1174 5.56456 11.9846C5.56331 11.8518 5.58852 11.7201 5.63871 11.5972C5.68891 11.4743 5.76308 11.3626 5.85691 11.2686C5.95073 11.1747 6.06233 11.1003 6.18519 11.05C6.30805 10.9996 6.43971 10.9742 6.57249 10.9753C6.70527 10.9763 6.83651 11.0038 6.95855 11.0561C7.08059 11.1085 7.19099 11.1846 7.2833 11.28L10.8183 14.815L17.1833 8.452C17.3708 8.26436 17.6252 8.15889 17.8904 8.1588C18.1557 8.1587 18.4102 8.26399 18.5978 8.4515C18.7854 8.63901 18.8909 8.89338 18.891 9.15865C18.8911 9.42392 18.7858 9.67836 18.5983 9.866L11.5263 16.938C11.4335 17.0308 11.3232 17.1044 11.2019 17.1545C11.0806 17.2046 10.9506 17.2303 10.8193 17.23V17.23Z" fill="#25A249"/>
</svg>
