<svg width="24" height="25" viewBox="0 0 24 25" fill="none" xmlns="http://www.w3.org/2000/svg">
<path d="M10.757 12.1999L15.707 17.1499C15.8026 17.2422 15.8787 17.3525 15.9311 17.4745C15.9836 17.5965 16.0111 17.7278 16.0123 17.8605C16.0135 17.9933 15.9882 18.125 15.9379 18.2479C15.8876 18.3708 15.8133 18.4825 15.7194 18.5763C15.6256 18.6702 15.5139 18.7445 15.391 18.7948C15.2681 18.8451 15.1364 18.8704 15.0036 18.8692C14.8709 18.868 14.7396 18.8405 14.6176 18.788C14.4956 18.7356 14.3853 18.6595 14.293 18.5639L8.63605 12.9069C8.44858 12.7194 8.34326 12.4651 8.34326 12.1999C8.34326 11.9348 8.44858 11.6805 8.63605 11.4929L14.293 5.83595C14.4817 5.65379 14.7343 5.553 14.9964 5.55527C15.2586 5.55755 15.5095 5.66272 15.6949 5.84813C15.8803 6.03354 15.9854 6.28435 15.9877 6.54655C15.99 6.80874 15.8892 7.06135 15.707 7.24995L10.757 12.1999Z" fill="#A2A9B0"/>
</svg>
