<svg width="25" height="24" viewBox="0 0 25 24" fill="none" xmlns="http://www.w3.org/2000/svg">
<path d="M12.571 13.314L17.521 8.364C17.6133 8.26849 17.7236 8.19231 17.8456 8.1399C17.9676 8.08749 18.0988 8.05991 18.2316 8.05875C18.3644 8.0576 18.4961 8.0829 18.619 8.13318C18.7419 8.18346 18.8535 8.25772 18.9474 8.35161C19.0413 8.4455 19.1156 8.55715 19.1658 8.68005C19.2161 8.80295 19.2414 8.93463 19.2403 9.06741C19.2391 9.20018 19.2115 9.3314 19.1591 9.45341C19.1067 9.57541 19.0305 9.68576 18.935 9.778L13.278 15.435C13.0905 15.6225 12.8362 15.7278 12.571 15.7278C12.3059 15.7278 12.0515 15.6225 11.864 15.435L6.20702 9.778C6.11151 9.68576 6.03533 9.57541 5.98292 9.45341C5.93051 9.3314 5.90292 9.20018 5.90177 9.06741C5.90062 8.93463 5.92592 8.80295 5.9762 8.68005C6.02648 8.55715 6.10073 8.4455 6.19463 8.35161C6.28852 8.25772 6.40017 8.18346 6.52307 8.13318C6.64596 8.0829 6.77764 8.0576 6.91042 8.05875C7.0432 8.05991 7.17442 8.08749 7.29643 8.1399C7.41843 8.19231 7.52877 8.26849 7.62102 8.364L12.571 13.314Z" fill="#21272A"/>
</svg>
