<svg width="25" height="24" viewBox="0 0 25 24" fill="none" xmlns="http://www.w3.org/2000/svg">
<path d="M13.9 11.4V6.4C13.9 6.13479 13.7947 5.88043 13.6071 5.69289C13.4196 5.50536 13.1652 5.4 12.9 5.4C12.6348 5.4 12.3805 5.50536 12.1929 5.69289C12.0054 5.88043 11.9 6.13479 11.9 6.4V11.4H6.90002C6.63481 11.4 6.38045 11.5054 6.19292 11.6929C6.00538 11.8804 5.90002 12.1348 5.90002 12.4C5.90002 12.6652 6.00538 12.9196 6.19292 13.1071C6.38045 13.2946 6.63481 13.4 6.90002 13.4H11.9V18.4C11.9 18.6652 12.0054 18.9196 12.1929 19.1071C12.3805 19.2946 12.6348 19.4 12.9 19.4C13.1652 19.4 13.4196 19.2946 13.6071 19.1071C13.7947 18.9196 13.9 18.6652 13.9 18.4V13.4H18.9C19.1652 13.4 19.4196 13.2946 19.6071 13.1071C19.7947 12.9196 19.9 12.6652 19.9 12.4C19.9 12.1348 19.7947 11.8804 19.6071 11.6929C19.4196 11.5054 19.1652 11.4 18.9 11.4H13.9Z" fill="white"/>
</svg>
