<svg width="25" height="24" viewBox="0 0 25 24" fill="none" xmlns="http://www.w3.org/2000/svg">
<path d="M14.2333 11.4V6.4C14.2333 6.13479 14.128 5.88043 13.9404 5.69289C13.7529 5.50536 13.4986 5.4 13.2333 5.4C12.9681 5.4 12.7138 5.50536 12.5262 5.69289C12.3387 5.88043 12.2333 6.13479 12.2333 6.4V11.4H7.23334C6.96812 11.4 6.71377 11.5054 6.52623 11.6929C6.33869 11.8804 6.23334 12.1348 6.23334 12.4C6.23334 12.6652 6.33869 12.9196 6.52623 13.1071C6.71377 13.2946 6.96812 13.4 7.23334 13.4H12.2333V18.4C12.2333 18.6652 12.3387 18.9196 12.5262 19.1071C12.7138 19.2946 12.9681 19.4 13.2333 19.4C13.4986 19.4 13.7529 19.2946 13.9404 19.1071C14.128 18.9196 14.2333 18.6652 14.2333 18.4V13.4H19.2333C19.4986 13.4 19.7529 13.2946 19.9404 13.1071C20.128 12.9196 20.2333 12.6652 20.2333 12.4C20.2333 12.1348 20.128 11.8804 19.9404 11.6929C19.7529 11.5054 19.4986 11.4 19.2333 11.4H14.2333Z" fill="white"/>
</svg>
