<svg width="25" height="25" viewBox="0 0 25 25" fill="none" xmlns="http://www.w3.org/2000/svg">
<path d="M11.1526 17.23C11.0213 17.2303 10.8913 17.2046 10.77 17.1545C10.6487 17.1044 10.5384 17.0308 10.4456 16.938L6.20361 12.695C6.10804 12.6028 6.03178 12.4925 5.97929 12.3705C5.9268 12.2486 5.89912 12.1174 5.89787 11.9846C5.89662 11.8518 5.92183 11.7201 5.97203 11.5972C6.02222 11.4743 6.0964 11.3626 6.19022 11.2686C6.28405 11.1747 6.39564 11.1003 6.5185 11.05C6.64136 10.9996 6.77302 10.9742 6.9058 10.9752C7.03858 10.9763 7.16982 11.0038 7.29186 11.0561C7.4139 11.1084 7.5243 11.1845 7.61661 11.28L11.1516 14.815L17.5166 8.45199C17.7041 8.26434 17.9585 8.15888 18.2238 8.15878C18.489 8.15869 18.7435 8.26398 18.9311 8.45149C19.1188 8.63899 19.2242 8.89336 19.2243 9.15863C19.2244 9.4239 19.1191 9.67834 18.9316 9.86599L11.8596 16.938C11.7668 17.0308 11.6566 17.1044 11.5352 17.1545C11.4139 17.2046 11.2839 17.2303 11.1526 17.23Z" fill="#25A249"/>
</svg>
