<svg width="25" height="25" viewBox="0 0 25 25" fill="none" xmlns="http://www.w3.org/2000/svg">
<path d="M11.3193 17.23C11.188 17.2303 11.058 17.2046 10.9367 17.1545C10.8154 17.1044 10.7051 17.0308 10.6123 16.938L6.3703 12.695C6.27473 12.6028 6.19847 12.4925 6.14598 12.3706C6.09348 12.2486 6.0658 12.1174 6.06456 11.9846C6.06331 11.8518 6.08852 11.7201 6.13871 11.5972C6.18891 11.4743 6.26308 11.3626 6.35691 11.2686C6.45073 11.1747 6.56233 11.1003 6.68519 11.05C6.80805 10.9996 6.93971 10.9742 7.07249 10.9753C7.20527 10.9763 7.33651 11.0038 7.45855 11.0561C7.58059 11.1085 7.69099 11.1846 7.7833 11.28L11.3183 14.815L17.6833 8.452C17.8708 8.26436 18.1252 8.15889 18.3904 8.1588C18.6557 8.1587 18.9102 8.26399 19.0978 8.4515C19.2854 8.63901 19.3909 8.89338 19.391 9.15865C19.3911 9.42392 19.2858 9.67836 19.0983 9.866L12.0263 16.938C11.9335 17.0308 11.8232 17.1044 11.7019 17.1545C11.5806 17.2046 11.4506 17.2303 11.3193 17.23V17.23Z" fill="#25A249"/>
</svg>
