<svg width="24" height="24" viewBox="0 0 24 24" fill="none" xmlns="http://www.w3.org/2000/svg">
<path d="M10.7566 11.9999L15.7066 16.9499C15.8021 17.0422 15.8783 17.1525 15.9307 17.2745C15.9831 17.3965 16.0107 17.5278 16.0118 17.6605C16.013 17.7933 15.9877 17.925 15.9374 18.0479C15.8871 18.1708 15.8128 18.2824 15.719 18.3763C15.6251 18.4702 15.5134 18.5445 15.3905 18.5948C15.2676 18.645 15.1359 18.6703 15.0032 18.6692C14.8704 18.668 14.7392 18.6404 14.6172 18.588C14.4952 18.5356 14.3848 18.4594 14.2926 18.3639L8.63556 12.7069C8.44809 12.5194 8.34277 12.2651 8.34277 11.9999C8.34277 11.7348 8.44809 11.4805 8.63556 11.2929L14.2926 5.63594C14.4812 5.45378 14.7338 5.35298 14.996 5.35526C15.2582 5.35754 15.509 5.46271 15.6944 5.64812C15.8798 5.83353 15.985 6.08434 15.9872 6.34654C15.9895 6.60873 15.8887 6.86133 15.7066 7.04994L10.7566 11.9999Z" fill="#21272A"/>
</svg>
