<svg width="40" height="41" viewBox="0 0 40 41" fill="none" xmlns="http://www.w3.org/2000/svg">
<path d="M18 13.3832V7.38318L24.5 7.88318L25 18.3832L32.5 18.8832L31 31.8832L21 32.8832L19 30.8832H13.5V18.3832L18 13.3832Z" fill="#58CFE3" stroke="black" stroke-width="0.1"/>
<path d="M13.85 30.3832H8C7.44772 30.3832 7 29.9355 7 29.3832V19.3832C7 18.8309 7.44772 18.3832 8 18.3832H13.85C13.9328 18.3832 14 18.4503 14 18.5332V30.2332C14 30.316 13.9328 30.3832 13.85 30.3832Z" stroke="#33363F" stroke-width="2" stroke-linecap="round"/>
<path d="M14 18.3832L17.456 13.9397C17.5925 13.7642 17.6667 13.5482 17.6667 13.3258V8.38318C17.6667 7.83089 18.1144 7.38318 18.6667 7.38318H23C24.1046 7.38318 25 8.27861 25 9.38318V18.3832" stroke="#33363F" stroke-width="2" stroke-linecap="round"/>
<path d="M20.9091 18.3832H30.7381C31.9398 18.3832 32.8702 19.4354 32.723 20.6281L31.4893 30.6281C31.3656 31.6303 30.5142 32.3832 29.5043 32.3832H21.293C21.0459 32.3832 20.8075 32.2917 20.6238 32.1263L19.4671 31.0845C19.2834 30.9191 19.0451 30.8276 18.7979 30.8276H14" stroke="#33363F" stroke-width="2" stroke-linecap="round"/>
</svg>
