<svg width="40" height="41" viewBox="0 0 40 41" fill="none" xmlns="http://www.w3.org/2000/svg">
<path d="M18 13.0426V7.0426L24.5 7.5426L25 18.0426L32.5 18.5426L31 31.5426L21 32.5426L19 30.5426H13.5V18.0426L18 13.0426Z" fill="#58CFE3" stroke="black" stroke-width="0.1"/>
<path d="M13.85 30.0426H8C7.44772 30.0426 7 29.5949 7 29.0426V19.0426C7 18.4903 7.44772 18.0426 8 18.0426H13.85C13.9328 18.0426 14 18.1098 14 18.1926V29.8926C14 29.9754 13.9328 30.0426 13.85 30.0426Z" stroke="#33363F" stroke-width="2" stroke-linecap="round"/>
<path d="M14 18.0426L17.456 13.5991C17.5925 13.4236 17.6667 13.2076 17.6667 12.9852V8.0426C17.6667 7.49032 18.1144 7.0426 18.6667 7.0426H23C24.1046 7.0426 25 7.93803 25 9.0426V18.0426" stroke="#33363F" stroke-width="2" stroke-linecap="round"/>
<path d="M20.9091 18.0426H30.7381C31.9398 18.0426 32.8702 19.0948 32.723 20.2875L31.4893 30.2875C31.3656 31.2898 30.5142 32.0426 29.5043 32.0426H21.293C21.0459 32.0426 20.8075 31.9511 20.6238 31.7857L19.4671 30.744C19.2834 30.5786 19.0451 30.487 18.7979 30.487H14" stroke="#33363F" stroke-width="2" stroke-linecap="round"/>
</svg>
