<svg width="40" height="41" viewBox="0 0 40 41" fill="none" xmlns="http://www.w3.org/2000/svg">
<path d="M18 13.1278V7.12781L24.5 7.62781L25 18.1278L32.5 18.6278L31 31.6278L21 32.6278L19 30.6278H13.5V18.1278L18 13.1278Z" fill="#58CFE3" stroke="black" stroke-width="0.1"/>
<path d="M13.85 30.1278H8C7.44772 30.1278 7 29.6801 7 29.1278V19.1278C7 18.5755 7.44772 18.1278 8 18.1278H13.85C13.9328 18.1278 14 18.195 14 18.2778V29.9778C14 30.0607 13.9328 30.1278 13.85 30.1278Z" stroke="#33363F" stroke-width="2" stroke-linecap="round"/>
<path d="M14 18.1278L17.456 13.6844C17.5925 13.5088 17.6667 13.2928 17.6667 13.0704V8.12781C17.6667 7.57552 18.1144 7.12781 18.6667 7.12781H23C24.1046 7.12781 25 8.02324 25 9.12781V18.1278" stroke="#33363F" stroke-width="2" stroke-linecap="round"/>
<path d="M20.9091 18.1278H30.7381C31.9398 18.1278 32.8702 19.18 32.723 20.3727L31.4893 30.3727C31.3656 31.375 30.5142 32.1278 29.5043 32.1278H21.293C21.0459 32.1278 20.8075 32.0363 20.6238 31.8709L19.4671 30.8292C19.2834 30.6638 19.0451 30.5723 18.7979 30.5723H14" stroke="#33363F" stroke-width="2" stroke-linecap="round"/>
</svg>
