<svg width="22" height="32" viewBox="0 0 22 32" fill="none" xmlns="http://www.w3.org/2000/svg">
<path d="M10.2914 19.9817V28.1025C10.2914 28.4138 10.1677 28.7124 9.94757 28.9324C9.72754 29.1526 9.42899 29.2762 9.11764 29.2762C8.8064 29.2762 8.50785 29.1526 8.28771 28.9324C8.06756 28.7124 7.9439 28.4138 7.9439 28.1025V19.993C8.27075 20.2317 8.66252 20.3649 9.0671 20.3749C9.50807 20.3874 9.94016 20.2487 10.2914 19.9817ZM20.2879 17.6343C19.99 17.6343 19.7043 17.7526 19.4937 17.9632C19.2831 18.1738 19.1647 18.4596 19.1647 18.7575V20.1727C19.1647 20.484 19.2883 20.7826 19.5085 21.0026C19.7285 21.2228 20.0271 21.3464 20.3384 21.3464C20.6498 21.3464 20.9483 21.2228 21.1684 21.0026C21.3885 20.7826 21.5122 20.484 21.5122 20.1727V18.8136C21.5209 18.6526 21.4949 18.4915 21.4358 18.3414C21.3767 18.1914 21.2861 18.0557 21.1698 17.9438C21.0537 17.8319 20.9147 17.7464 20.7627 17.6929C20.6105 17.6395 20.4485 17.6195 20.2879 17.6343ZM5.39423 23.0593C4.99007 23.0472 4.59881 22.9142 4.27103 22.6774V30.8206C4.27103 31.1335 4.39528 31.4335 4.61646 31.6546C4.83763 31.8758 5.1376 32 5.45039 32C5.76318 32 6.06315 31.8758 6.28432 31.6546C6.5055 31.4335 6.62975 31.1335 6.62975 30.8206V22.7336C6.26297 22.9707 5.83021 23.0848 5.39423 23.0593ZM16.6262 15.1969C16.474 15.1893 16.322 15.2127 16.1791 15.2658C16.0363 15.3188 15.9058 15.4003 15.7954 15.5053C15.6851 15.6105 15.5974 15.7368 15.5374 15.8769C15.4775 16.017 15.4467 16.1678 15.4469 16.3201V22.5763C15.4469 22.8892 15.5711 23.1892 15.7923 23.4103C16.0135 23.6315 16.3134 23.7557 16.6262 23.7557C16.9391 23.7557 17.2391 23.6315 17.4602 23.4103C17.6814 23.1892 17.8056 22.8892 17.8056 22.5763V16.3987C17.8146 16.2367 17.7883 16.0746 17.7285 15.9236C17.6688 15.7727 17.5771 15.6364 17.4597 15.5243C17.3422 15.4122 17.2019 15.3269 17.0483 15.2743C16.8948 15.2216 16.7316 15.2029 16.5701 15.2194L16.6262 15.1969ZM12.8972 17.6006C12.4741 17.5976 12.0623 17.4643 11.7179 17.2187V25.3843C11.7179 25.6972 11.8421 25.9972 12.0632 26.2183C12.2845 26.4395 12.5844 26.5637 12.8972 26.5637C13.21 26.5637 13.5099 26.4395 13.7312 26.2183C13.9523 25.9972 14.0766 25.6972 14.0766 25.3843V17.2299C13.7203 17.4953 13.2853 17.6337 12.8411 17.623L12.8972 17.6006ZM2.84456 23.8568V1.04458C2.84161 0.766506 2.72906 0.500847 2.53138 0.305264C2.3337 0.109681 2.06684 -1.12311e-05 1.78875 8.625e-10H1.54165C1.26357 -1.12311e-05 0.996705 0.109681 0.799022 0.305264C0.601339 0.500847 0.488794 0.766506 0.48584 1.04458V23.8568C0.48584 24.1368 0.597082 24.4054 0.79508 24.6034C0.993078 24.8014 1.26163 24.9126 1.54165 24.9126H1.78875C2.06878 24.9126 2.33732 24.8014 2.53532 24.6034C2.73333 24.4054 2.84456 24.1368 2.84456 23.8568ZM5.51778 22.1945H5.27068C4.99066 22.1945 4.72211 22.0833 4.52411 21.8852C4.32611 21.6872 4.21487 21.4187 4.21487 21.1386V3.76272C4.21783 3.48466 4.33037 3.21898 4.52805 3.02341C4.72573 2.82783 4.99259 2.71814 5.27068 2.71815H5.51778C5.79586 2.71814 6.06272 2.82783 6.26041 3.02341C6.45809 3.21898 6.57064 3.48466 6.57359 3.76272V21.1611C6.57359 21.4411 6.46235 21.7097 6.26435 21.9077C6.06635 22.1057 5.79779 22.2169 5.51778 22.2169V22.1945ZM9.23558 19.5212H8.97724C8.70026 19.5212 8.43451 19.4112 8.23862 19.2153C8.04274 19.0194 7.93266 18.7538 7.93266 18.4767V6.45841C7.9312 6.32029 7.95715 6.18325 8.00893 6.05521C8.06071 5.92718 8.13742 5.8107 8.23458 5.71251C8.33174 5.61432 8.44743 5.53637 8.57491 5.48318C8.70239 5.42998 8.83909 5.40259 8.97724 5.4026H9.23558C9.51368 5.40556 9.77932 5.5181 9.97487 5.71578C10.1705 5.91346 10.2802 6.18032 10.2802 6.45841V18.4767C10.2802 18.7538 10.1701 19.0194 9.97419 19.2153C9.77831 19.4112 9.51267 19.5212 9.23558 19.5212ZM12.9534 16.7694H12.7175C12.4394 16.7694 12.1725 16.6598 11.9748 16.4641C11.7772 16.2686 11.6646 16.0029 11.6617 15.7248V9.25518C11.6525 9.11096 11.6729 8.9664 11.7219 8.83038C11.7708 8.69448 11.8471 8.56991 11.9461 8.46467C12.045 8.35931 12.1645 8.27552 12.2973 8.21824C12.43 8.16107 12.5729 8.13164 12.7175 8.13198H12.9646C13.2446 8.13198 13.5132 8.24317 13.7112 8.44119C13.9092 8.63921 14.0204 8.90777 14.0204 9.18779V15.7024C14.0219 15.842 13.9957 15.9805 13.9432 16.1098C13.8909 16.2392 13.8134 16.357 13.7151 16.4562C13.617 16.5554 13.5001 16.6342 13.3712 16.688C13.2424 16.7418 13.1042 16.7694 12.9646 16.7694H12.9534ZM16.6824 14.3545H16.4353C16.1553 14.3545 15.8867 14.2433 15.6887 14.0453C15.4907 13.8473 15.3795 13.5787 15.3795 13.2987V11.6251C15.3824 11.347 15.495 11.0814 15.6926 10.8858C15.8903 10.6902 16.1572 10.5806 16.4353 10.5806H16.6824C16.9605 10.5806 17.2274 10.6902 17.4251 10.8858C17.6227 11.0814 17.7353 11.347 17.7382 11.6251V13.2987C17.7382 13.5768 17.6286 13.8437 17.4329 14.0414C17.2374 14.239 16.9717 14.3516 16.6936 14.3545H16.6824Z" fill="#697077"/>
</svg>
