<svg width="86" height="17" viewBox="0 0 86 17" fill="none" xmlns="http://www.w3.org/2000/svg">
<path d="M27.804 4.75004C26.9615 4.75203 26.1385 5.00381 25.439 5.47354C24.7396 5.94328 24.1951 6.60988 23.8745 7.38905C23.5539 8.16822 23.4716 9.02495 23.6379 9.85092C23.8042 10.6769 24.2117 11.435 24.8089 12.0294C25.406 12.6237 26.166 13.0277 26.9928 13.1901C27.8195 13.3525 28.6759 13.2662 29.4535 12.9419C30.2312 12.6177 30.8952 12.0701 31.3617 11.3684C31.8281 10.6668 32.076 9.84259 32.074 9.00004C32.0822 8.43798 31.9772 7.88002 31.7652 7.35939C31.5533 6.83876 31.2387 6.3661 30.8403 5.96955C30.4419 5.573 29.9678 5.26068 29.4461 5.05117C28.9245 4.84166 28.3661 4.73925 27.804 4.75004ZM27.804 11.58C27.2876 11.6162 26.7723 11.4961 26.325 11.2354C25.8777 10.9748 25.5192 10.5856 25.2961 10.1185C25.0729 9.65137 24.9954 9.12792 25.0737 8.61619C25.152 8.10447 25.3824 7.62812 25.735 7.24908C26.0876 6.87004 26.5461 6.60584 27.0508 6.49082C27.5556 6.3758 28.0832 6.41528 28.5652 6.60413C29.0472 6.79298 29.4613 7.12246 29.7535 7.54975C30.0458 7.97704 30.2028 8.48236 30.204 9.00004C30.2201 9.32806 30.1704 9.65598 30.0578 9.96447C29.9451 10.273 29.7719 10.5558 29.5482 10.7962C29.3245 11.0367 29.0549 11.2299 28.7554 11.3645C28.4558 11.4992 28.1324 11.5724 27.804 11.58ZM18.484 4.75004C17.6415 4.75203 16.8185 5.00381 16.119 5.47354C15.4196 5.94328 14.8751 6.60988 14.5545 7.38905C14.2339 8.16822 14.1516 9.02495 14.3179 9.85092C14.4842 10.6769 14.8917 11.435 15.4889 12.0294C16.086 12.6237 16.846 13.0277 17.6728 13.1901C18.4995 13.3525 19.3559 13.2662 20.1335 12.9419C20.9112 12.6177 21.5752 12.0701 22.0417 11.3684C22.5081 10.6668 22.756 9.84259 22.754 9.00004C22.7622 8.43798 22.6572 7.88002 22.4452 7.35939C22.2333 6.83876 21.9187 6.3661 21.5203 5.96955C21.1219 5.573 20.6478 5.26068 20.1261 5.05117C19.6045 4.84166 19.0461 4.73925 18.484 4.75004ZM18.484 11.58C17.9676 11.6162 17.4523 11.4961 17.005 11.2354C16.5577 10.9748 16.1992 10.5856 15.9761 10.1185C15.7529 9.65137 15.6754 9.12792 15.7537 8.61619C15.832 8.10447 16.0624 7.62812 16.415 7.24908C16.7676 6.87004 17.2261 6.60584 17.7308 6.49082C18.2356 6.3758 18.7632 6.41528 19.2452 6.60413C19.7272 6.79298 20.1413 7.12246 20.4335 7.54975C20.7258 7.97704 20.8828 8.48236 20.884 9.00004C20.9001 9.32806 20.8504 9.65598 20.7378 9.96447C20.6251 10.273 20.4519 10.5558 20.2282 10.7962C20.0045 11.0367 19.7349 11.2299 19.4354 11.3645C19.1358 11.4992 18.8124 11.5724 18.484 11.58ZM7.40404 6.06005V7.86005H11.724C11.6563 8.70785 11.3039 9.50784 10.724 10.13C10.2907 10.5716 9.76949 10.9172 9.19415 11.1446C8.61881 11.3719 8.00214 11.476 7.38404 11.45C6.111 11.45 4.8901 10.9443 3.98993 10.0442C3.08975 9.14398 2.58404 7.92309 2.58404 6.65005C2.58404 5.37701 3.08975 4.15611 3.98993 3.25593C4.8901 2.35576 6.111 1.85005 7.38404 1.85005C8.60449 1.8319 9.78294 2.29537 10.664 3.14004L11.934 1.87005C11.338 1.28055 10.6304 0.815935 9.8525 0.503417C9.07464 0.190899 8.24223 0.0367647 7.40404 0.0500442C6.51504 0.0154463 5.6282 0.160672 4.79666 0.477016C3.96513 0.79336 3.20601 1.27431 2.5648 1.89106C1.92358 2.5078 1.41347 3.24764 1.06503 4.06624C0.716591 4.88485 0.536987 5.76537 0.536987 6.65504C0.536987 7.54472 0.716591 8.42524 1.06503 9.24385C1.41347 10.0625 1.92358 10.8023 2.5648 11.419C3.20601 12.0358 3.96513 12.5167 4.79666 12.8331C5.6282 13.1494 6.51504 13.2946 7.40404 13.26C8.25946 13.2942 9.11243 13.147 9.90694 12.8282C10.7015 12.5094 11.4195 12.0261 12.014 11.41C13.0642 10.2565 13.6237 8.73923 13.574 7.18005C13.5776 6.80477 13.5475 6.42993 13.484 6.06005H7.40404ZM52.714 7.46004C52.4532 6.69278 51.9656 6.02283 51.3155 5.53889C50.6655 5.05496 49.8839 4.77987 49.074 4.75004C48.527 4.74898 47.9856 4.86011 47.4833 5.07658C46.9809 5.29305 46.5283 5.61025 46.1534 6.00858C45.7785 6.40691 45.4893 6.87789 45.3036 7.39243C45.118 7.90696 45.0399 8.45411 45.074 9.00004C45.0655 9.9129 45.3525 10.804 45.8922 11.5403C46.4318 12.2766 47.1952 12.8185 48.0683 13.0852C48.9414 13.3518 49.8773 13.3289 50.7363 13.0198C51.5952 12.7106 52.3311 12.1319 52.834 11.37L51.384 10.37C51.1679 10.7303 50.8613 11.0278 50.4947 11.2331C50.1281 11.4383 49.7142 11.5441 49.294 11.54C48.8606 11.5579 48.4319 11.4443 48.0643 11.2141C47.6966 10.9838 47.4072 10.6478 47.234 10.25L52.924 7.90005L52.714 7.46004ZM46.914 8.88005C46.8938 8.56942 46.9357 8.25788 47.0373 7.96366C47.139 7.66944 47.2983 7.39845 47.5059 7.16657C47.7136 6.93469 47.9655 6.74657 48.2467 6.61323C48.528 6.47989 48.8331 6.40402 49.144 6.39004C49.4662 6.37038 49.7871 6.44623 50.0664 6.60811C50.3456 6.76999 50.571 7.01068 50.714 7.30004L46.914 8.88005ZM42.294 13H44.164V0.500045H42.294V13ZM39.234 5.70005H39.164C38.8847 5.3819 38.5399 5.12785 38.1533 4.95526C37.7667 4.78267 37.3474 4.69561 36.924 4.70005C35.8312 4.75304 34.8007 5.22447 34.046 6.01663C33.2913 6.80879 32.8704 7.86095 32.8704 8.95505C32.8704 10.0491 33.2913 11.1013 34.046 11.8935C34.8007 12.6856 35.8312 13.1571 36.924 13.21C37.348 13.2185 37.7686 13.1333 38.1558 12.9605C38.543 12.7876 38.8873 12.5314 39.164 12.21H39.234V12.82C39.234 14.45 38.364 15.32 36.964 15.32C36.4964 15.3098 36.0423 15.1607 35.6595 14.8919C35.2767 14.623 34.9824 14.2465 34.814 13.81L33.194 14.48C33.4935 15.2323 34.0143 15.8759 34.6874 16.3259C35.3606 16.7758 36.1544 17.0109 36.964 17C39.154 17 40.964 15.71 40.964 12.57V5.00004H39.234V5.70005ZM37.084 11.58C36.4288 11.5392 35.8139 11.2501 35.3643 10.7717C34.9148 10.2933 34.6646 9.66151 34.6646 9.00505C34.6646 8.34858 34.9148 7.7168 35.3643 7.23838C35.8139 6.75997 36.4288 6.4709 37.084 6.43005C37.4043 6.44386 37.7185 6.52196 38.0079 6.65968C38.2973 6.79741 38.5561 6.99194 38.7688 7.23172C38.9816 7.4715 39.1439 7.75162 39.2461 8.0554C39.3484 8.35919 39.3885 8.68044 39.364 9.00004C39.3913 9.32074 39.3533 9.64363 39.2522 9.9492C39.1511 10.2548 38.9891 10.5367 38.776 10.7778C38.5629 11.019 38.303 11.2144 38.0122 11.3523C37.7214 11.4902 37.4057 11.5677 37.084 11.58ZM61.474 0.500045H56.994V13H58.864V8.26004H61.474C62.007 8.29833 62.5421 8.22642 63.0461 8.04877C63.55 7.87113 64.0119 7.59158 64.403 7.22754C64.7942 6.8635 65.1061 6.42279 65.3194 5.93288C65.5327 5.44297 65.6428 4.91437 65.6428 4.38004C65.6428 3.84572 65.5327 3.31712 65.3194 2.82721C65.1061 2.3373 64.7942 1.89659 64.403 1.53255C64.0119 1.16851 63.55 0.88896 63.0461 0.711318C62.5421 0.533676 62.007 0.461756 61.474 0.500045ZM61.474 6.50004H58.864V2.24004H61.514C61.7951 2.24004 62.0733 2.2954 62.333 2.40294C62.5926 2.51049 62.8285 2.66812 63.0272 2.86684C63.226 3.06555 63.3836 3.30147 63.4911 3.5611C63.5987 3.82074 63.654 4.09902 63.654 4.38004C63.654 4.66107 63.5987 4.93935 63.4911 5.19899C63.3836 5.45863 63.226 5.69453 63.0272 5.89325C62.8285 6.09197 62.5926 6.2496 62.333 6.35715C62.0733 6.46469 61.7951 6.52005 61.514 6.52005L61.474 6.50004ZM73.014 4.71004C72.333 4.66805 71.6547 4.82659 71.0628 5.16606C70.471 5.50553 69.9916 6.01103 69.684 6.62004L71.334 7.31005C71.5008 7.00945 71.751 6.76356 72.0544 6.60207C72.3579 6.44059 72.7016 6.37042 73.044 6.40005C73.2814 6.37232 73.522 6.39215 73.7516 6.45837C73.9812 6.52459 74.1954 6.63589 74.3816 6.78575C74.5677 6.93562 74.7222 7.12107 74.8359 7.33127C74.9497 7.54147 75.0204 7.77221 75.044 8.01004V8.13005C74.4427 7.81396 73.7734 7.64921 73.094 7.65005C71.314 7.65005 69.494 8.65005 69.494 10.47C69.5116 10.8569 69.6068 11.2362 69.7739 11.5856C69.941 11.9349 70.1766 12.2471 70.4667 12.5037C70.7568 12.7602 71.0955 12.9558 71.4626 13.0788C71.8298 13.2019 72.2179 13.2499 72.604 13.22C73.0733 13.246 73.541 13.1467 73.9592 12.9323C74.3775 12.7179 74.7311 12.3962 74.984 12H75.044V13H76.844V8.19004C76.844 6.00004 75.184 4.73004 73.054 4.73004L73.014 4.71004ZM72.784 11.56C72.174 11.56 71.324 11.25 71.324 10.5C71.324 9.50004 72.384 9.16004 73.324 9.16004C73.9181 9.14539 74.5052 9.29043 75.024 9.58005C74.9613 10.1231 74.7038 10.625 74.2992 10.9928C73.8947 11.3605 73.3706 11.5691 72.824 11.58L72.784 11.56ZM83.404 5.00004L81.264 10.42H81.204L78.984 5.00004H76.984L80.314 12.58L78.414 16.79H80.364L85.484 5.00004H83.404ZM66.604 13H68.464V0.500045H66.604V13Z" fill="white"/>
</svg>
