<svg width="23" height="32" viewBox="0 0 23 32" fill="none" xmlns="http://www.w3.org/2000/svg">
<path fill-rule="evenodd" clip-rule="evenodd" d="M0.356934 5.98703C0.356934 2.68048 3.04207 0 6.35436 0H16.6452C19.9575 0 22.6426 2.68048 22.6426 5.98703C22.6426 8.08077 21.566 9.92348 19.9353 10.9936C21.566 12.0637 22.6426 13.9064 22.6426 16.0001C22.6426 19.3067 19.9575 21.9872 16.6452 21.9872H16.515C14.9621 21.9872 13.5472 21.3981 12.482 20.4315V25.9479C12.482 29.2986 9.72674 32 6.38672 32C3.08266 32 0.356934 29.3277 0.356934 26.013C0.356934 23.9193 1.43346 22.0767 3.06407 21.0065C1.43346 19.9364 0.356934 18.0938 0.356934 16.0001C0.356934 13.9064 1.43355 12.0637 3.06428 10.9936C1.43355 9.92348 0.356934 8.08077 0.356934 5.98703ZM10.5175 11.9742H6.35436C4.12703 11.9742 2.32145 13.7767 2.32145 16.0001C2.32145 18.2151 4.11322 20.0122 6.32876 20.026C6.33728 20.0259 6.34582 20.0259 6.35436 20.0259H10.5175V11.9742ZM12.482 16.0001C12.482 18.2236 14.2876 20.0261 16.515 20.0261H16.6452C18.8725 20.0261 20.6781 18.2236 20.6781 16.0001C20.6781 13.7767 18.8725 11.9742 16.6452 11.9742H16.515C14.2876 11.9742 12.482 13.7767 12.482 16.0001ZM6.35436 21.9872C6.34589 21.9872 6.33742 21.9872 6.32896 21.9871C4.11333 22.0008 2.32145 23.798 2.32145 26.013C2.32145 28.2282 4.15116 30.0389 6.38672 30.0389C8.65824 30.0389 10.5175 28.1991 10.5175 25.9479V21.9872H6.35436ZM6.35436 1.96111H10.5175V10.013H6.35436C4.12704 10.013 2.32145 8.21049 2.32145 5.98703C2.32145 3.76358 4.12704 1.96111 6.35436 1.96111ZM12.482 10.013V1.96111H16.6452C18.8725 1.96111 20.6781 3.76358 20.6781 5.98703C20.6781 8.21049 18.8725 10.013 16.6452 10.013H12.482Z" fill="#C1C7CD"/>
</svg>
