<svg width="25" height="30" viewBox="0 0 25 30" fill="none" xmlns="http://www.w3.org/2000/svg">
<path d="M14.025 4.6499V0.399902H0.625V29.5999H14.025V25.3499C11.28 25.3499 8.6474 24.2594 6.70644 22.3184C4.76544 20.3774 3.675 17.7449 3.675 14.9999C3.675 12.2549 4.76544 9.62231 6.70644 7.68135C8.6474 5.74035 11.28 4.6499 14.025 4.6499Z" fill="#697077"/>
<path d="M14.025 4.6499V25.3499C16.77 25.3499 19.4026 24.2594 21.3436 22.3184C23.2846 20.3774 24.375 17.7449 24.375 14.9999C24.375 12.2549 23.2846 9.62231 21.3436 7.68135C19.4026 5.74035 16.77 4.6499 14.025 4.6499Z" fill="#697077"/>
</svg>
