<svg width="96" height="96" viewBox="0 0 96 96" fill="none" xmlns="http://www.w3.org/2000/svg">
<path d="M36.464 54.996L32 19.792L27.536 54.992H12C9.792 54.992 8 53.244 8 51.088C8.01266 50.0391 8.44096 49.0381 9.19088 48.3047C9.94081 47.5712 10.9511 47.1653 12 47.176H20.464L24.064 18.832C24.6 14.544 28.6 11.504 32.98 12.032C36.62 12.472 39.484 15.272 39.936 18.832L43.532 47.176H51.428L56 76.16L60.568 47.18H84C86.208 47.18 88 48.932 88 51.092C88 53.252 86.208 55 84 55H67.432L63.908 77.348C63.6324 79.0067 62.8355 80.5345 61.6329 81.7098C60.4304 82.885 58.8846 83.6466 57.22 83.884C52.852 84.544 48.768 81.616 48.092 77.348L44.572 55H36.46L36.464 54.996Z" fill="#C1C7CD"/>
</svg>
