<svg width="24" height="24" viewBox="0 0 24 24" fill="none" xmlns="http://www.w3.org/2000/svg">
<path d="M13.4004 11.4V6.39999C13.4004 6.13478 13.295 5.88042 13.1075 5.69289C12.92 5.50535 12.6656 5.39999 12.4004 5.39999C12.1352 5.39999 11.8808 5.50535 11.6933 5.69289C11.5057 5.88042 11.4004 6.13478 11.4004 6.39999V11.4H6.40039C6.13517 11.4 5.88082 11.5054 5.69328 11.6929C5.50575 11.8804 5.40039 12.1348 5.40039 12.4C5.40039 12.6652 5.50575 12.9196 5.69328 13.1071C5.88082 13.2946 6.13517 13.4 6.40039 13.4H11.4004V18.4C11.4004 18.6652 11.5057 18.9196 11.6933 19.1071C11.8808 19.2946 12.1352 19.4 12.4004 19.4C12.6656 19.4 12.92 19.2946 13.1075 19.1071C13.295 18.9196 13.4004 18.6652 13.4004 18.4V13.4H18.4004C18.6656 13.4 18.92 13.2946 19.1075 13.1071C19.295 12.9196 19.4004 12.6652 19.4004 12.4C19.4004 12.1348 19.295 11.8804 19.1075 11.6929C18.92 11.5054 18.6656 11.4 18.4004 11.4H13.4004Z" fill="#0F62FE"/>
</svg>
