<svg width="25" height="24" viewBox="0 0 25 24" fill="none" xmlns="http://www.w3.org/2000/svg">
<path d="M20.5 20V9.13199L12.5 4.33199L4.5 9.13199V20H8.5V17.25C8.5 16.1891 8.92143 15.1717 9.67157 14.4216C10.4217 13.6714 11.4391 13.25 12.5 13.25C13.5609 13.25 14.5783 13.6714 15.3284 14.4216C16.0786 15.1717 16.5 16.1891 16.5 17.25V20H20.5ZM14.5 22V17.25C14.5 16.7196 14.2893 16.2108 13.9142 15.8358C13.5391 15.4607 13.0304 15.25 12.5 15.25C11.9696 15.25 11.4609 15.4607 11.0858 15.8358C10.7107 16.2108 10.5 16.7196 10.5 17.25V22H4.5C3.96957 22 3.46086 21.7893 3.08579 21.4142C2.71071 21.0391 2.5 20.5304 2.5 20V9.13199C2.5 8.78662 2.58943 8.44713 2.75959 8.14659C2.92976 7.84604 3.17485 7.59468 3.471 7.41699L11.471 2.61699C11.7818 2.43049 12.1375 2.33197 12.5 2.33197C12.8625 2.33197 13.2182 2.43049 13.529 2.61699L21.529 7.41699C21.8252 7.59468 22.0702 7.84604 22.2404 8.14659C22.4106 8.44713 22.5 8.78662 22.5 9.13199V20C22.5 20.5304 22.2893 21.0391 21.9142 21.4142C21.5391 21.7893 21.0304 22 20.5 22H14.5Z" fill="#21272A"/>
</svg>
