<svg width="25" height="24" viewBox="0 0 25 24" fill="none" xmlns="http://www.w3.org/2000/svg">
<path d="M22.5 5.90701C21.7504 6.23439 20.9565 6.44905 20.144 6.54401C20.9968 6.04324 21.638 5.24912 21.948 4.31001C21.14 4.78034 20.2587 5.11161 19.341 5.29001C18.9545 4.88522 18.4897 4.5634 17.9748 4.34419C17.4598 4.12498 16.9056 4.01298 16.346 4.01501C14.08 4.01501 12.243 5.82501 12.243 8.05501C12.243 8.37101 12.279 8.68001 12.349 8.97501C10.7236 8.89771 9.13212 8.48242 7.67617 7.75565C6.22022 7.02888 4.93176 6.00659 3.893 4.75401C3.52883 5.36841 3.33742 6.06979 3.339 6.78401C3.3397 7.45198 3.50683 8.10924 3.82529 8.6964C4.14375 9.28357 4.6035 9.78212 5.163 10.147C4.51248 10.126 3.87602 9.95234 3.305 9.64001V9.69001C3.305 11.648 4.72 13.281 6.595 13.653C6.24261 13.7465 5.87958 13.7939 5.515 13.794C5.25 13.794 4.993 13.769 4.742 13.719C5.01008 14.5269 5.52311 15.2313 6.20982 15.7344C6.89653 16.2374 7.72284 16.5141 8.574 16.526C7.11407 17.6506 5.32182 18.2581 3.479 18.253C3.147 18.253 2.821 18.233 2.5 18.197C4.38125 19.3877 6.56259 20.0183 8.789 20.015C16.336 20.015 20.462 13.858 20.462 8.51901L20.448 7.99601C21.2529 7.42968 21.9481 6.72186 22.5 5.90701Z" fill="#697077"/>
</svg>
