<svg width="25" height="24" viewBox="0 0 25 24" fill="none" xmlns="http://www.w3.org/2000/svg">
<path d="M14.2329 11.4004V6.40039C14.2329 6.13517 14.1276 5.88082 13.94 5.69328C13.7525 5.50575 13.4981 5.40039 13.2329 5.40039C12.9677 5.40039 12.7133 5.50575 12.5258 5.69328C12.3383 5.88082 12.2329 6.13517 12.2329 6.40039V11.4004H7.23291C6.96769 11.4004 6.71334 11.5057 6.5258 11.6933C6.33827 11.8808 6.23291 12.1352 6.23291 12.4004C6.23291 12.6656 6.33827 12.92 6.5258 13.1075C6.71334 13.295 6.96769 13.4004 7.23291 13.4004H12.2329V18.4004C12.2329 18.6656 12.3383 18.92 12.5258 19.1075C12.7133 19.295 12.9677 19.4004 13.2329 19.4004C13.4981 19.4004 13.7525 19.295 13.94 19.1075C14.1276 18.92 14.2329 18.6656 14.2329 18.4004V13.4004H19.2329C19.4981 13.4004 19.7525 13.295 19.94 13.1075C20.1276 12.92 20.2329 12.6656 20.2329 12.4004C20.2329 12.1352 20.1276 11.8808 19.94 11.6933C19.7525 11.5057 19.4981 11.4004 19.2329 11.4004H14.2329Z" fill="white"/>
</svg>
