<svg width="24" height="25" viewBox="0 0 24 25" fill="none" xmlns="http://www.w3.org/2000/svg">
<path d="M10.4862 17.23C10.355 17.2303 10.2249 17.2046 10.1036 17.1545C9.98229 17.1044 9.87205 17.0308 9.77923 16.938L5.53723 12.695C5.44166 12.6028 5.3654 12.4925 5.31291 12.3705C5.26041 12.2486 5.23274 12.1174 5.23149 11.9846C5.23024 11.8518 5.25545 11.7201 5.30565 11.5972C5.35584 11.4743 5.43001 11.3626 5.52384 11.2686C5.61766 11.1747 5.72926 11.1003 5.85212 11.05C5.97498 10.9996 6.10664 10.9742 6.23942 10.9752C6.3722 10.9763 6.50344 11.0038 6.62548 11.0561C6.74752 11.1084 6.85792 11.1845 6.95023 11.28L10.4852 14.815L16.8502 8.45199C17.0377 8.26434 17.2921 8.15888 17.5574 8.15878C17.8226 8.15869 18.0771 8.26398 18.2647 8.45149C18.4524 8.63899 18.5578 8.89336 18.5579 9.15863C18.558 9.4239 18.4527 9.67834 18.2652 9.86599L11.1932 16.938C11.1004 17.0308 10.9902 17.1044 10.8688 17.1545C10.7475 17.2046 10.6175 17.2303 10.4862 17.23Z" fill="#25A249"/>
</svg>
