<svg width="25" height="24" viewBox="0 0 25 24" fill="none" xmlns="http://www.w3.org/2000/svg">
<path d="M20.5 20V9.13205L12.5 4.33205L4.5 9.13205V20H8.5V17.2501C8.5 16.1892 8.92143 15.1718 9.67157 14.4216C10.4217 13.6715 11.4391 13.2501 12.5 13.2501C13.5609 13.2501 14.5783 13.6715 15.3284 14.4216C16.0786 15.1718 16.5 16.1892 16.5 17.2501V20H20.5ZM14.5 22V17.2501C14.5 16.7196 14.2893 16.2109 13.9142 15.8358C13.5391 15.4608 13.0304 15.2501 12.5 15.2501C11.9696 15.2501 11.4609 15.4608 11.0858 15.8358C10.7107 16.2109 10.5 16.7196 10.5 17.2501V22H4.5C3.96957 22 3.46086 21.7893 3.08579 21.4143C2.71071 21.0392 2.5 20.5305 2.5 20V9.13205C2.5 8.78668 2.58943 8.44719 2.75959 8.14665C2.92976 7.8461 3.17485 7.59474 3.471 7.41705L11.471 2.61705C11.7818 2.43055 12.1375 2.33203 12.5 2.33203C12.8625 2.33203 13.2182 2.43055 13.529 2.61705L21.529 7.41705C21.8252 7.59474 22.0702 7.8461 22.2404 8.14665C22.4106 8.44719 22.5 8.78668 22.5 9.13205V20C22.5 20.5305 22.2893 21.0392 21.9142 21.4143C21.5391 21.7893 21.0304 22 20.5 22H14.5Z" fill="#21272A"/>
</svg>
