<svg width="24" height="25" viewBox="0 0 24 25" fill="none" xmlns="http://www.w3.org/2000/svg">
<path d="M10.486 17.23C10.3547 17.2303 10.2247 17.2046 10.1034 17.1545C9.98204 17.1044 9.87181 17.0308 9.77899 16.938L5.53699 12.695C5.44141 12.6028 5.36516 12.4925 5.31266 12.3706C5.26017 12.2486 5.23249 12.1174 5.23125 11.9846C5.23 11.8518 5.25521 11.7201 5.3054 11.5972C5.3556 11.4743 5.42977 11.3626 5.52359 11.2686C5.61742 11.1747 5.72902 11.1003 5.85188 11.05C5.97474 10.9996 6.1064 10.9742 6.23918 10.9753C6.37196 10.9763 6.50319 11.0038 6.62523 11.0561C6.74727 11.1085 6.85767 11.1846 6.94999 11.28L10.485 14.815L16.85 8.452C17.0375 8.26436 17.2919 8.15889 17.5571 8.1588C17.8224 8.1587 18.0768 8.26399 18.2645 8.4515C18.4521 8.63901 18.5576 8.89338 18.5577 9.15865C18.5578 9.42392 18.4525 9.67836 18.265 9.866L11.193 16.938C11.1002 17.0308 10.9899 17.1044 10.8686 17.1545C10.7473 17.2046 10.6173 17.2303 10.486 17.23Z" fill="#25A249"/>
</svg>
