<svg width="25" height="24" viewBox="0 0 25 24" fill="none" xmlns="http://www.w3.org/2000/svg">
<path d="M13.5666 11.4V6.4C13.5666 6.13479 13.4613 5.88043 13.2738 5.69289C13.0862 5.50536 12.8319 5.4 12.5667 5.4C12.3014 5.4 12.0471 5.50536 11.8595 5.69289C11.672 5.88043 11.5667 6.13479 11.5667 6.4V11.4H6.56665C6.30143 11.4 6.04708 11.5054 5.85954 11.6929C5.67201 11.8804 5.56665 12.1348 5.56665 12.4C5.56665 12.6652 5.67201 12.9196 5.85954 13.1071C6.04708 13.2946 6.30143 13.4 6.56665 13.4H11.5667V18.4C11.5667 18.6652 11.672 18.9196 11.8595 19.1071C12.0471 19.2946 12.3014 19.4 12.5667 19.4C12.8319 19.4 13.0862 19.2946 13.2738 19.1071C13.4613 18.9196 13.5666 18.6652 13.5666 18.4V13.4H18.5667C18.8319 13.4 19.0862 13.2946 19.2738 13.1071C19.4613 12.9196 19.5667 12.6652 19.5667 12.4C19.5667 12.1348 19.4613 11.8804 19.2738 11.6929C19.0862 11.5054 18.8319 11.4 18.5667 11.4H13.5666Z" fill="white"/>
</svg>
