<svg width="24" height="25" viewBox="0 0 24 25" fill="none" xmlns="http://www.w3.org/2000/svg">
<path d="M10.4862 17.2304C10.355 17.2306 10.2249 17.205 10.1036 17.1549C9.98229 17.1048 9.87205 17.0312 9.77923 16.9384L5.53723 12.6954C5.44166 12.6032 5.3654 12.4929 5.31291 12.3709C5.26041 12.249 5.23274 12.1178 5.23149 11.985C5.23024 11.8522 5.25545 11.7205 5.30565 11.5976C5.35584 11.4747 5.43001 11.363 5.52384 11.269C5.61766 11.175 5.72926 11.1007 5.85212 11.0503C5.97498 11 6.10664 10.9746 6.23942 10.9756C6.3722 10.9767 6.50344 11.0042 6.62548 11.0565C6.74752 11.1088 6.85792 11.1849 6.95023 11.2804L10.4852 14.8154L16.8502 8.45238C17.0377 8.26474 17.2921 8.15927 17.5574 8.15918C17.8226 8.15909 18.0771 8.26437 18.2647 8.45188C18.4524 8.63939 18.5578 8.89376 18.5579 9.15903C18.558 9.4243 18.4527 9.67874 18.2652 9.86638L11.1932 16.9384C11.1004 17.0312 10.9902 17.1048 10.8688 17.1549C10.7475 17.205 10.6175 17.2306 10.4862 17.2304Z" fill="#25A249"/>
</svg>
