<svg width="25" height="24" viewBox="0 0 25 24" fill="none" xmlns="http://www.w3.org/2000/svg">
<path d="M9.034 12.07C9.15695 12.0175 9.28916 11.9903 9.42283 11.9898C9.5565 11.9893 9.68891 12.0156 9.81223 12.0672C9.93555 12.1188 10.0473 12.1945 10.1408 12.29C10.2344 12.3855 10.3078 12.4988 10.3568 12.6231C10.4058 12.7475 10.4294 12.8804 10.4262 13.014C10.4229 13.1477 10.3929 13.2793 10.3379 13.4011C10.2829 13.523 10.2041 13.6325 10.106 13.7234C10.008 13.8142 9.89268 13.8845 9.767 13.93C9.09854 14.1934 8.52483 14.6519 8.1205 15.2458C7.71618 15.8397 7.49997 16.5415 7.5 17.26V19C7.5 19.2652 7.60536 19.5196 7.79289 19.7071C7.98043 19.8946 8.23478 20 8.5 20H16.5C16.7652 20 17.0196 19.8946 17.2071 19.7071C17.3946 19.5196 17.5 19.2652 17.5 19V17.353C17.5001 16.6115 17.2749 15.8874 16.8541 15.2768C16.4334 14.6662 15.837 14.1979 15.144 13.934C15.0175 13.8901 14.9012 13.8213 14.8018 13.7316C14.7024 13.6419 14.6221 13.5332 14.5655 13.4119C14.509 13.2905 14.4773 13.1591 14.4725 13.0253C14.4677 12.8916 14.4897 12.7582 14.5374 12.6331C14.5851 12.508 14.6574 12.3938 14.75 12.2972C14.8427 12.2006 14.9538 12.1235 15.0767 12.0706C15.1997 12.0177 15.332 11.9901 15.4659 11.9893C15.5998 11.9885 15.7324 12.0146 15.856 12.066C16.9276 12.4742 17.8499 13.1983 18.5006 14.1425C19.1514 15.0867 19.4999 16.2063 19.5 17.353V19C19.5 19.7956 19.1839 20.5587 18.6213 21.1213C18.0587 21.6839 17.2956 22 16.5 22H8.5C7.70435 22 6.94129 21.6839 6.37868 21.1213C5.81607 20.5587 5.5 19.7956 5.5 19V17.26C5.50014 16.1402 5.83728 15.0463 6.46756 14.1206C7.09785 13.195 7.9921 12.4805 9.034 12.07ZM12.5 2C13.5609 2 14.5783 2.42143 15.3284 3.17157C16.0786 3.92172 16.5 4.93913 16.5 6V8C16.5 9.06087 16.0786 10.0783 15.3284 10.8284C14.5783 11.5786 13.5609 12 12.5 12C11.4391 12 10.4217 11.5786 9.67157 10.8284C8.92143 10.0783 8.5 9.06087 8.5 8V6C8.5 4.93913 8.92143 3.92172 9.67157 3.17157C10.4217 2.42143 11.4391 2 12.5 2V2ZM12.5 4C11.9696 4 11.4609 4.21071 11.0858 4.58579C10.7107 4.96086 10.5 5.46957 10.5 6V8C10.5 8.53043 10.7107 9.03914 11.0858 9.41421C11.4609 9.78929 11.9696 10 12.5 10C13.0304 10 13.5391 9.78929 13.9142 9.41421C14.2893 9.03914 14.5 8.53043 14.5 8V6C14.5 5.46957 14.2893 4.96086 13.9142 4.58579C13.5391 4.21071 13.0304 4 12.5 4Z" fill="#C1C7CD"/>
</svg>
