<svg width="24" height="24" viewBox="0 0 24 24" fill="none" xmlns="http://www.w3.org/2000/svg">
<path d="M12.0709 13.3139L17.0209 8.36388C17.1131 8.26837 17.2235 8.19219 17.3455 8.13978C17.4675 8.08737 17.5987 8.05979 17.7315 8.05863C17.8643 8.05748 17.996 8.08278 18.1189 8.13306C18.2417 8.18334 18.3534 8.25759 18.4473 8.35149C18.5412 8.44538 18.6154 8.55703 18.6657 8.67993C18.716 8.80282 18.7413 8.9345 18.7402 9.06728C18.739 9.20006 18.7114 9.33128 18.659 9.45329C18.6066 9.57529 18.5304 9.68564 18.4349 9.77788L12.7779 15.4349C12.5904 15.6224 12.3361 15.7277 12.0709 15.7277C11.8057 15.7277 11.5514 15.6224 11.3639 15.4349L5.7069 9.77788C5.61139 9.68564 5.53521 9.57529 5.4828 9.45329C5.43039 9.33128 5.4028 9.20006 5.40165 9.06728C5.4005 8.9345 5.4258 8.80282 5.47608 8.67993C5.52636 8.55703 5.60061 8.44538 5.6945 8.35149C5.7884 8.25759 5.90005 8.18334 6.02295 8.13306C6.14584 8.08278 6.27752 8.05748 6.4103 8.05863C6.54308 8.05979 6.6743 8.08737 6.7963 8.13978C6.91831 8.19219 7.02865 8.26837 7.1209 8.36388L12.0709 13.3139Z" fill="#21272A"/>
</svg>
