<svg width="24" height="24" viewBox="0 0 24 24" fill="none" xmlns="http://www.w3.org/2000/svg">
<path d="M10.757 12.0002L15.707 16.9502C15.8026 17.0424 15.8787 17.1528 15.9311 17.2748C15.9836 17.3968 16.0111 17.528 16.0123 17.6608C16.0135 17.7936 15.9882 17.9252 15.9379 18.0481C15.8876 18.171 15.8133 18.2827 15.7194 18.3766C15.6256 18.4705 15.5139 18.5447 15.391 18.595C15.2681 18.6453 15.1364 18.6706 15.0036 18.6694C14.8709 18.6683 14.7396 18.6407 14.6176 18.5883C14.4956 18.5359 14.3853 18.4597 14.293 18.3642L8.63605 12.7072C8.44858 12.5197 8.34326 12.2653 8.34326 12.0002C8.34326 11.735 8.44858 11.4807 8.63605 11.2932L14.293 5.63618C14.4817 5.45402 14.7343 5.35323 14.9964 5.35551C15.2586 5.35778 15.5095 5.46295 15.6949 5.64836C15.8803 5.83377 15.9854 6.08458 15.9877 6.34678C15.99 6.60898 15.8892 6.86158 15.707 7.05018L10.757 12.0002Z" fill="#A2A9B0"/>
</svg>
