<svg width="24" height="24" viewBox="0 0 24 24" fill="none" xmlns="http://www.w3.org/2000/svg">
<path d="M13.3999 11.4V6.39999C13.3999 6.13478 13.2945 5.88042 13.107 5.69289C12.9195 5.50535 12.6651 5.39999 12.3999 5.39999C12.1347 5.39999 11.8803 5.50535 11.6928 5.69289C11.5053 5.88042 11.3999 6.13478 11.3999 6.39999V11.4H6.3999C6.13469 11.4 5.88033 11.5054 5.6928 11.6929C5.50526 11.8804 5.3999 12.1348 5.3999 12.4C5.3999 12.6652 5.50526 12.9196 5.6928 13.1071C5.88033 13.2946 6.13469 13.4 6.3999 13.4H11.3999V18.4C11.3999 18.6652 11.5053 18.9196 11.6928 19.1071C11.8803 19.2946 12.1347 19.4 12.3999 19.4C12.6651 19.4 12.9195 19.2946 13.107 19.1071C13.2945 18.9196 13.3999 18.6652 13.3999 18.4V13.4H18.3999C18.6651 13.4 18.9195 13.2946 19.107 13.1071C19.2945 12.9196 19.3999 12.6652 19.3999 12.4C19.3999 12.1348 19.2945 11.8804 19.107 11.6929C18.9195 11.5054 18.6651 11.4 18.3999 11.4H13.3999Z" fill="#21272A"/>
</svg>
