<svg width="48" height="48" viewBox="0 0 48 48" fill="none" xmlns="http://www.w3.org/2000/svg">
<path d="M8 20V40H32V20H8ZM12 16V8C12 6.93913 12.4214 5.92172 13.1716 5.17157C13.9217 4.42143 14.9391 4 16 4H40C41.0609 4 42.0783 4.42143 42.8284 5.17157C43.5786 5.92172 44 6.93913 44 8V28C44 29.0609 43.5786 30.0783 42.8284 30.8284C42.0783 31.5786 41.0609 32 40 32H36V40C36 41.0609 35.5786 42.0783 34.8284 42.8284C34.0783 43.5786 33.0609 44 32 44H8C6.93913 44 5.92172 43.5786 5.17157 42.8284C4.42143 42.0783 4 41.0609 4 40V20C4 18.9391 4.42143 17.9217 5.17157 17.1716C5.92172 16.4214 6.93913 16 8 16H12ZM16 16H32C33.0609 16 34.0783 16.4214 34.8284 17.1716C35.5786 17.9217 36 18.9391 36 20V28H40V8H16V16ZM16 34C14.4087 34 12.8826 33.3679 11.7574 32.2426C10.6321 31.1174 10 29.5913 10 28C10 26.4087 10.6321 24.8826 11.7574 23.7574C12.8826 22.6321 14.4087 22 16 22C17.5913 22 19.1174 22.6321 20.2426 23.7574C21.3679 24.8826 22 26.4087 22 28C22 29.5913 21.3679 31.1174 20.2426 32.2426C19.1174 33.3679 17.5913 34 16 34ZM16 30C16.5304 30 17.0391 29.7893 17.4142 29.4142C17.7893 29.0391 18 28.5304 18 28C18 27.4696 17.7893 26.9609 17.4142 26.5858C17.0391 26.2107 16.5304 26 16 26C15.4696 26 14.9609 26.2107 14.5858 26.5858C14.2107 26.9609 14 27.4696 14 28C14 28.5304 14.2107 29.0391 14.5858 29.4142C14.9609 29.7893 15.4696 30 16 30ZM18 16C18 14.4087 18.6321 12.8826 19.7574 11.7574C20.8826 10.6321 22.4087 10 24 10C25.5913 10 27.1174 10.6321 28.2426 11.7574C29.3679 12.8826 30 14.4087 30 16H26C26 15.4696 25.7893 14.9609 25.4142 14.5858C25.0391 14.2107 24.5304 14 24 14C23.4696 14 22.9609 14.2107 22.5858 14.5858C22.2107 14.9609 22 15.4696 22 16H18ZM21.728 43.036L18.272 41.022L23.722 31.676C24.1951 30.8644 24.8521 30.1752 25.6402 29.6639C26.4283 29.1527 27.3255 28.8336 28.2594 28.7324C29.1934 28.6312 30.1381 28.7508 31.0174 29.0814C31.8967 29.4121 32.6861 29.9445 33.322 30.636L35.498 33.004L32.552 35.712L30.378 33.344C30.1659 33.1136 29.9027 32.9362 29.6096 32.8261C29.3164 32.7159 29.0015 32.6762 28.6901 32.7101C28.3788 32.7439 28.0798 32.8504 27.8171 33.021C27.5545 33.1915 27.3356 33.4214 27.178 33.692L21.728 43.036V43.036ZM34.752 17.096C35.875 16.6626 37.1026 16.5777 38.2746 16.8524C39.4466 17.1271 40.5086 17.7487 41.322 18.636L43.498 21.004L40.552 23.712L38.378 21.344C38.0828 21.0228 37.6906 20.8069 37.2613 20.7292C36.832 20.6516 36.389 20.7165 36 20.914V20C36 18.858 35.52 17.826 34.752 17.098V17.096Z" fill="#C1C7CD"/>
</svg>
