<svg width="25" height="24" viewBox="0 0 25 24" fill="none" xmlns="http://www.w3.org/2000/svg">
<path d="M13.9004 11.4V6.40002C13.9004 6.13481 13.795 5.88045 13.6075 5.69292C13.42 5.50538 13.1656 5.40002 12.9004 5.40002C12.6352 5.40002 12.3808 5.50538 12.1933 5.69292C12.0057 5.88045 11.9004 6.13481 11.9004 6.40002V11.4H6.90039C6.63517 11.4 6.38082 11.5054 6.19328 11.6929C6.00575 11.8805 5.90039 12.1348 5.90039 12.4C5.90039 12.6652 6.00575 12.9196 6.19328 13.1071C6.38082 13.2947 6.63517 13.4 6.90039 13.4H11.9004V18.4C11.9004 18.6652 12.0057 18.9196 12.1933 19.1071C12.3808 19.2947 12.6352 19.4 12.9004 19.4C13.1656 19.4 13.42 19.2947 13.6075 19.1071C13.795 18.9196 13.9004 18.6652 13.9004 18.4V13.4H18.9004C19.1656 13.4 19.42 13.2947 19.6075 13.1071C19.795 12.9196 19.9004 12.6652 19.9004 12.4C19.9004 12.1348 19.795 11.8805 19.6075 11.6929C19.42 11.5054 19.1656 11.4 18.9004 11.4H13.9004Z" fill="white"/>
</svg>
