<svg width="24" height="24" viewBox="0 0 24 24" fill="none" xmlns="http://www.w3.org/2000/svg">
<path d="M15.586 10.6574L11.636 6.70741C11.4538 6.5188 11.353 6.2662 11.3553 6.00401C11.3576 5.74181 11.4628 5.491 11.6482 5.30559C11.8336 5.12018 12.0844 5.01501 12.3466 5.01273C12.6088 5.01045 12.8614 5.11125 13.05 5.29341L18.707 10.9504C18.8002 11.0431 18.8741 11.1532 18.9246 11.2746C18.9751 11.3959 19.001 11.526 19.001 11.6574C19.001 11.7888 18.9751 11.9189 18.9246 12.0403C18.8741 12.1616 18.8002 12.2718 18.707 12.3644L13.05 18.0214C12.9578 18.1169 12.8474 18.1931 12.7254 18.2455C12.6034 18.2979 12.4722 18.3255 12.3394 18.3267C12.2066 18.3278 12.0749 18.3025 11.952 18.2522C11.8291 18.2019 11.7175 18.1277 11.6236 18.0338C11.5297 17.9399 11.4555 17.8283 11.4052 17.7054C11.3549 17.5825 11.3296 17.4508 11.3307 17.318C11.3319 17.1852 11.3595 17.054 11.4119 16.932C11.4643 16.81 11.5405 16.6997 11.636 16.6074L15.586 12.6574H6C5.73478 12.6574 5.48043 12.5521 5.29289 12.3645C5.10536 12.177 5 11.9226 5 11.6574C5 11.3922 5.10536 11.1378 5.29289 10.9503C5.48043 10.7628 5.73478 10.6574 6 10.6574H15.586Z" fill="#001D6C"/>
</svg>
