<svg width="25" height="25" viewBox="0 0 25 25" fill="none" xmlns="http://www.w3.org/2000/svg">
<path d="M11.1532 17.2304C11.022 17.2306 10.8919 17.205 10.7706 17.1549C10.6493 17.1048 10.539 17.0312 10.4462 16.9384L6.20422 12.6954C6.10865 12.6032 6.03239 12.4929 5.9799 12.3709C5.92741 12.249 5.89973 12.1178 5.89848 11.985C5.89723 11.8522 5.92244 11.7205 5.97264 11.5976C6.02283 11.4747 6.09701 11.363 6.19083 11.269C6.28466 11.175 6.39625 11.1007 6.51911 11.0503C6.64197 11 6.77363 10.9746 6.90641 10.9756C7.03919 10.9767 7.17043 11.0042 7.29247 11.0565C7.41451 11.1088 7.52491 11.1849 7.61722 11.2804L11.1522 14.8154L17.5172 8.45238C17.7047 8.26474 17.9591 8.15927 18.2244 8.15918C18.4896 8.15909 18.7441 8.26437 18.9317 8.45188C19.1194 8.63939 19.2248 8.89376 19.2249 9.15903C19.225 9.4243 19.1197 9.67874 18.9322 9.86638L11.8602 16.9384C11.7674 17.0312 11.6572 17.1048 11.5358 17.1549C11.4145 17.205 11.2845 17.2306 11.1532 17.2304Z" fill="#25A249"/>
</svg>
