<svg width="25" height="24" viewBox="0 0 25 24" fill="none" xmlns="http://www.w3.org/2000/svg">
<path d="M13.5669 11.4004V6.40039C13.5669 6.13517 13.4615 5.88082 13.274 5.69328C13.0865 5.50575 12.8321 5.40039 12.5669 5.40039C12.3017 5.40039 12.0473 5.50575 11.8598 5.69328C11.6723 5.88082 11.5669 6.13517 11.5669 6.40039V11.4004H6.56689C6.30168 11.4004 6.04732 11.5057 5.85979 11.6933C5.67225 11.8808 5.56689 12.1352 5.56689 12.4004C5.56689 12.6656 5.67225 12.92 5.85979 13.1075C6.04732 13.295 6.30168 13.4004 6.56689 13.4004H11.5669V18.4004C11.5669 18.6656 11.6723 18.92 11.8598 19.1075C12.0473 19.295 12.3017 19.4004 12.5669 19.4004C12.8321 19.4004 13.0865 19.295 13.274 19.1075C13.4615 18.92 13.5669 18.6656 13.5669 18.4004V13.4004H18.5669C18.8321 13.4004 19.0865 13.295 19.274 13.1075C19.4615 12.92 19.5669 12.6656 19.5669 12.4004C19.5669 12.1352 19.4615 11.8808 19.274 11.6933C19.0865 11.5057 18.8321 11.4004 18.5669 11.4004H13.5669Z" fill="white"/>
</svg>
