<svg width="24" height="24" viewBox="0 0 24 24" fill="none" xmlns="http://www.w3.org/2000/svg">
<path d="M13.314 12.071L8.36396 7.12098C8.18181 6.93238 8.08101 6.67978 8.08329 6.41758C8.08557 6.15538 8.19074 5.90457 8.37615 5.71916C8.56155 5.53375 8.81237 5.42859 9.07456 5.42631C9.33676 5.42403 9.58936 5.52482 9.77796 5.70698L15.435 11.364C15.6224 11.5515 15.7278 11.8058 15.7278 12.071C15.7278 12.3361 15.6224 12.5905 15.435 12.778L9.77796 18.435C9.58936 18.6171 9.33676 18.7179 9.07456 18.7157C8.81237 18.7134 8.56155 18.6082 8.37615 18.4228C8.19074 18.2374 8.08557 17.9866 8.08329 17.7244C8.08101 17.4622 8.18181 17.2096 8.36396 17.021L13.314 12.071Z" fill="#697077"/>
</svg>
