<svg width="25" height="24" viewBox="0 0 25 24" fill="none" xmlns="http://www.w3.org/2000/svg">
<path d="M15.7526 10.657L11.8026 6.707C11.6205 6.5184 11.5197 6.2658 11.522 6.0036C11.5242 5.7414 11.6294 5.49059 11.8148 5.30518C12.0002 5.11978 12.251 5.01461 12.5132 5.01233C12.7754 5.01005 13.028 5.11084 13.2166 5.293L18.8736 10.95C18.9668 11.0427 19.0408 11.1528 19.0912 11.2741C19.1417 11.3955 19.1677 11.5256 19.1677 11.657C19.1677 11.7884 19.1417 11.9185 19.0912 12.0399C19.0408 12.1612 18.9668 12.2713 18.8736 12.364L13.2166 18.021C13.1244 18.1165 13.014 18.1927 12.892 18.2451C12.77 18.2975 12.6388 18.3251 12.506 18.3263C12.3732 18.3274 12.2416 18.3021 12.1187 18.2518C11.9958 18.2015 11.8841 18.1273 11.7902 18.0334C11.6963 17.9395 11.6221 17.8279 11.5718 17.705C11.5215 17.5821 11.4962 17.4504 11.4974 17.3176C11.4985 17.1848 11.5261 17.0536 11.5785 16.9316C11.6309 16.8096 11.7071 16.6993 11.8026 16.607L15.7526 12.657H6.16663C5.90141 12.657 5.64706 12.5516 5.45952 12.3641C5.27198 12.1766 5.16663 11.9222 5.16663 11.657C5.16663 11.3918 5.27198 11.1374 5.45952 10.9499C5.64706 10.7624 5.90141 10.657 6.16663 10.657H15.7526V10.657Z" fill="white"/>
</svg>
