<svg width="25" height="24" viewBox="0 0 25 24" fill="none" xmlns="http://www.w3.org/2000/svg">
<path d="M16.0098 19H8.00977V20.5C8.00977 20.8978 7.85173 21.2794 7.57043 21.5607C7.28912 21.842 6.90759 22 6.50977 22H5.50977C5.11194 22 4.73041 21.842 4.44911 21.5607C4.1678 21.2794 4.00977 20.8978 4.00977 20.5V18.83C3.42469 18.623 2.91819 18.2397 2.56001 17.7329C2.20182 17.226 2.00959 16.6206 2.00977 16V13C2.00977 12.38 2.19777 11.804 2.51977 11.326L3.60577 4.526C3.71854 3.82119 4.07893 3.17967 4.62219 2.71669C5.16545 2.25371 5.85598 1.9996 6.56977 2H17.4498C18.163 2.00059 18.8527 2.25527 19.3952 2.71837C19.9376 3.18147 20.2973 3.82268 20.4098 4.527L21.4928 11.317C21.8188 11.797 22.0088 12.377 22.0088 13V16C22.0089 16.6206 21.8167 17.226 21.4585 17.7329C21.1003 18.2397 20.5938 18.623 20.0088 18.83V20.5C20.0088 20.8978 19.8507 21.2794 19.5694 21.5607C19.2881 21.842 18.9066 22 18.5088 22H17.5088C17.1109 22 16.7294 21.842 16.4481 21.5607C16.1668 21.2794 16.0088 20.8978 16.0088 20.5V19H16.0098ZM5.00977 17H19.0098C19.275 17 19.5293 16.8946 19.7169 16.7071C19.9044 16.5196 20.0098 16.2652 20.0098 16V13C20.0098 12.7348 19.9044 12.4804 19.7169 12.2929C19.5293 12.1054 19.275 12 19.0098 12H5.00977C4.74455 12 4.4902 12.1054 4.30266 12.2929C4.11512 12.4804 4.00977 12.7348 4.00977 13V16C4.00977 16.2652 4.11512 16.5196 4.30266 16.7071C4.4902 16.8946 4.74455 17 5.00977 17ZM19.2598 10.01L18.4358 4.842C18.3982 4.6074 18.2784 4.39383 18.0977 4.23955C17.917 4.08526 17.6873 4.00034 17.4498 4H6.56877C6.33084 3.99987 6.10066 4.08457 5.91957 4.2389C5.73849 4.39322 5.61836 4.60706 5.58077 4.842L4.75577 10.011C4.84024 10.0038 4.92498 10.0001 5.00977 10H19.0098C19.0938 10 19.1778 10.003 19.2598 10.01ZM17.5098 14C17.3772 14 17.25 14.0527 17.1562 14.1464C17.0624 14.2402 17.0098 14.3674 17.0098 14.5C17.0098 14.6326 17.0624 14.7598 17.1562 14.8536C17.25 14.9473 17.3772 15 17.5098 15C17.6424 15 17.7696 14.9473 17.8633 14.8536C17.9571 14.7598 18.0098 14.6326 18.0098 14.5C18.0098 14.3674 17.9571 14.2402 17.8633 14.1464C17.7696 14.0527 17.6424 14 17.5098 14ZM17.5098 16C17.3128 16 17.1177 15.9612 16.9357 15.8858C16.7538 15.8104 16.5884 15.6999 16.4491 15.5607C16.3098 15.4214 16.1993 15.256 16.1239 15.074C16.0486 14.892 16.0098 14.697 16.0098 14.5C16.0098 14.303 16.0486 14.108 16.1239 13.926C16.1993 13.744 16.3098 13.5786 16.4491 13.4393C16.5884 13.3001 16.7538 13.1896 16.9357 13.1142C17.1177 13.0388 17.3128 13 17.5098 13C17.9076 13 18.2891 13.158 18.5704 13.4393C18.8517 13.7206 19.0098 14.1022 19.0098 14.5C19.0098 14.8978 18.8517 15.2794 18.5704 15.5607C18.2891 15.842 17.9076 16 17.5098 16ZM6.50977 14C6.37716 14 6.24998 14.0527 6.15621 14.1464C6.06244 14.2402 6.00977 14.3674 6.00977 14.5C6.00977 14.6326 6.06244 14.7598 6.15621 14.8536C6.24998 14.9473 6.37716 15 6.50977 15C6.64237 15 6.76955 14.9473 6.86332 14.8536C6.95709 14.7598 7.00977 14.6326 7.00977 14.5C7.00977 14.3674 6.95709 14.2402 6.86332 14.1464C6.76955 14.0527 6.64237 14 6.50977 14ZM6.50977 16C6.31278 16 6.11773 15.9612 5.93574 15.8858C5.75375 15.8104 5.58839 15.6999 5.44911 15.5607C5.30982 15.4214 5.19933 15.256 5.12395 15.074C5.04856 14.892 5.00977 14.697 5.00977 14.5C5.00977 14.303 5.04856 14.108 5.12395 13.926C5.19933 13.744 5.30982 13.5786 5.44911 13.4393C5.58839 13.3001 5.75375 13.1896 5.93574 13.1142C6.11773 13.0388 6.31278 13 6.50977 13C6.90759 13 7.28912 13.158 7.57043 13.4393C7.85173 13.7206 8.00977 14.1022 8.00977 14.5C8.00977 14.8978 7.85173 15.2794 7.57043 15.5607C7.28912 15.842 6.90759 16 6.50977 16ZM7.21377 5.094C7.47898 5.094 7.73334 5.19936 7.92087 5.38689C8.10841 5.57443 8.21377 5.82878 8.21377 6.094V8.094C8.21377 8.35922 8.10841 8.61357 7.92087 8.80111C7.73334 8.98864 7.47898 9.094 7.21377 9.094C6.94855 9.094 6.6942 8.98864 6.50666 8.80111C6.31912 8.61357 6.21377 8.35922 6.21377 8.094V6.094C6.21377 5.82878 6.31912 5.57443 6.50666 5.38689C6.6942 5.19936 6.94855 5.094 7.21377 5.094Z" fill="#21272A"/>
</svg>
