<svg width="25" height="25" viewBox="0 0 25 25" fill="none" xmlns="http://www.w3.org/2000/svg">
<path d="M10.8197 17.2304C10.6885 17.2306 10.5584 17.205 10.4371 17.1549C10.3158 17.1048 10.2055 17.0312 10.1127 16.9384L5.87073 12.6954C5.77515 12.6032 5.6989 12.4929 5.6464 12.3709C5.59391 12.249 5.56623 12.1178 5.56499 11.985C5.56374 11.8522 5.58895 11.7205 5.63914 11.5976C5.68934 11.4747 5.76351 11.363 5.85733 11.269C5.95116 11.175 6.06276 11.1007 6.18562 11.0503C6.30848 11 6.44014 10.9746 6.57292 10.9756C6.7057 10.9767 6.83693 11.0042 6.95897 11.0565C7.08101 11.1088 7.19141 11.1849 7.28373 11.2804L10.8187 14.8154L17.1837 8.45238C17.3712 8.26474 17.6256 8.15927 17.8909 8.15918C18.1561 8.15909 18.4106 8.26437 18.5982 8.45188C18.7859 8.63939 18.8913 8.89376 18.8914 9.15903C18.8915 9.4243 18.7862 9.67874 18.5987 9.86638L11.5267 16.9384C11.4339 17.0312 11.3237 17.1048 11.2023 17.1549C11.081 17.205 10.951 17.2306 10.8197 17.2304Z" fill="#25A249"/>
</svg>
