<svg width="24" height="24" viewBox="0 0 24 24" fill="none" xmlns="http://www.w3.org/2000/svg">
<path d="M13.4004 11.3999V6.3999C13.4004 6.13469 13.295 5.88033 13.1075 5.6928C12.92 5.50526 12.6656 5.3999 12.4004 5.3999C12.1352 5.3999 11.8808 5.50526 11.6933 5.6928C11.5057 5.88033 11.4004 6.13469 11.4004 6.3999V11.3999H6.40039C6.13517 11.3999 5.88082 11.5053 5.69328 11.6928C5.50575 11.8803 5.40039 12.1347 5.40039 12.3999C5.40039 12.6651 5.50575 12.9195 5.69328 13.107C5.88082 13.2945 6.13517 13.3999 6.40039 13.3999H11.4004V18.3999C11.4004 18.6651 11.5057 18.9195 11.6933 19.107C11.8808 19.2945 12.1352 19.3999 12.4004 19.3999C12.6656 19.3999 12.92 19.2945 13.1075 19.107C13.295 18.9195 13.4004 18.6651 13.4004 18.3999V13.3999H18.4004C18.6656 13.3999 18.92 13.2945 19.1075 13.107C19.295 12.9195 19.4004 12.6651 19.4004 12.3999C19.4004 12.1347 19.295 11.8803 19.1075 11.6928C18.92 11.5053 18.6656 11.3999 18.4004 11.3999H13.4004Z" fill="white"/>
</svg>
