<svg width="24" height="24" viewBox="0 0 24 24" fill="none" xmlns="http://www.w3.org/2000/svg">
<path d="M10.757 11.9999L15.707 16.9499C15.8025 17.0422 15.8787 17.1525 15.9311 17.2745C15.9835 17.3965 16.0111 17.5278 16.0122 17.6605C16.0134 17.7933 15.9881 17.925 15.9378 18.0479C15.8875 18.1708 15.8133 18.2824 15.7194 18.3763C15.6255 18.4702 15.5138 18.5445 15.3909 18.5948C15.268 18.645 15.1364 18.6703 15.0036 18.6692C14.8708 18.668 14.7396 18.6404 14.6176 18.588C14.4956 18.5356 14.3852 18.4594 14.293 18.3639L8.63599 12.7069C8.44852 12.5194 8.3432 12.2651 8.3432 11.9999C8.3432 11.7348 8.44852 11.4805 8.63599 11.2929L14.293 5.63594C14.4816 5.45378 14.7342 5.35298 14.9964 5.35526C15.2586 5.35754 15.5094 5.46271 15.6948 5.64812C15.8802 5.83353 15.9854 6.08434 15.9877 6.34654C15.9899 6.60873 15.8891 6.86133 15.707 7.04994L10.757 11.9999Z" fill="#21272A"/>
</svg>
