<svg width="48" height="48" viewBox="0 0 48 48" fill="none" xmlns="http://www.w3.org/2000/svg">
<path d="M34 19.9999V35.9999H30V19.9999H18V35.9999H14V19.9999C12.4087 19.9999 10.8826 20.632 9.75736 21.7572C8.63214 22.8825 8 24.4086 8 25.9999V29.9999C8 31.5912 8.63214 33.1173 9.75736 34.2425C10.8826 35.3677 12.4087 35.9999 14 35.9999H34C35.5913 35.9999 37.1174 35.3677 38.2426 34.2425C39.3679 33.1173 40 31.5912 40 29.9999V25.9999C40 24.4086 39.3679 22.8825 38.2426 21.7572C37.1174 20.632 35.5913 19.9999 34 19.9999ZM18.34 15.9999H29.66C29.244 14.8315 28.4767 13.8205 27.4634 13.1056C26.45 12.3907 25.2402 12.0069 24 12.0069C22.7598 12.0069 21.55 12.3907 20.5366 13.1056C19.5233 13.8205 18.756 14.8315 18.34 15.9999ZM14.2 15.9999C14.663 13.7426 15.891 11.7143 17.6765 10.2578C19.4621 8.80132 21.6957 8.00586 24 8.00586C26.3043 8.00586 28.5379 8.80132 30.3235 10.2578C32.109 11.7143 33.337 13.7426 33.8 15.9999H34C36.6522 15.9999 39.1957 17.0534 41.0711 18.9288C42.9464 20.8042 44 23.3477 44 25.9999V29.9999C44 32.652 42.9464 35.1956 41.0711 37.0709C39.1957 38.9463 36.6522 39.9999 34 39.9999H14C11.3478 39.9999 8.8043 38.9463 6.92893 37.0709C5.05357 35.1956 4 32.652 4 29.9999V25.9999C4 23.3477 5.05357 20.8042 6.92893 18.9288C8.8043 17.0534 11.3478 15.9999 14 15.9999H14.2Z" fill="#C1C7CD"/>
</svg>
