<svg width="121" height="40" viewBox="0 0 121 40" fill="none" xmlns="http://www.w3.org/2000/svg">
<g clip-path="url(#clip0_122_401)">
<path d="M110.635 7.92969e-06H10.0347C9.66798 7.92969e-06 9.30568 7.92975e-06 8.93995 0.00200793C8.6338 0.00400793 8.33009 0.00981793 8.021 0.0147079C7.34951 0.0226097 6.67961 0.0816842 6.0171 0.191418C5.35552 0.303541 4.71467 0.514924 4.11622 0.818418C3.5185 1.12448 2.97235 1.52218 2.49757 1.99708C2.0203 2.47064 1.62246 3.01802 1.31935 3.61817C1.0154 4.21712 0.804641 4.85895 0.69435 5.52149C0.583011 6.18319 0.523098 6.85253 0.51515 7.52349C0.50587 7.83009 0.50489 8.13771 0.5 8.44435V31.5586C0.50489 31.8691 0.50587 32.1699 0.51515 32.4805C0.523101 33.1514 0.583013 33.8207 0.69435 34.4824C0.804336 35.1453 1.01511 35.7875 1.31935 36.3867C1.62233 36.9849 2.02022 37.5301 2.49757 38.001C2.97054 38.478 3.51705 38.876 4.11622 39.1797C4.71467 39.484 5.35545 39.6967 6.0171 39.8105C6.67972 39.9194 7.34956 39.9785 8.021 39.9873C8.33009 39.9941 8.6338 39.998 8.93995 39.998C9.30567 40 9.668 40 10.0347 40H110.635C110.994 40 111.359 40 111.719 39.998C112.023 39.998 112.336 39.9941 112.641 39.9873C113.311 39.9789 113.979 39.9198 114.641 39.8105C115.304 39.6959 115.948 39.4833 116.549 39.1797C117.147 38.8758 117.693 38.4779 118.166 38.001C118.642 37.5282 119.041 36.9835 119.348 36.3867C119.65 35.7871 119.858 35.145 119.967 34.4824C120.078 33.8206 120.14 33.1515 120.152 32.4805C120.156 32.1699 120.156 31.8691 120.156 31.5586C120.164 31.1953 120.164 30.834 120.164 30.4648V9.53614C120.164 9.16993 120.164 8.80665 120.156 8.44435C120.156 8.13771 120.156 7.83009 120.152 7.52345C120.14 6.85243 120.078 6.18324 119.967 5.52145C119.858 4.85929 119.649 4.21751 119.348 3.61813C118.73 2.4152 117.752 1.43603 116.549 0.818328C115.948 0.515575 115.304 0.304248 114.641 0.191328C113.98 0.0811107 113.311 0.0220157 112.641 0.0145679C112.336 0.00968793 112.023 0.00382793 111.719 0.00187793C111.359 -0.00012207 110.994 -0.00012207 110.635 -0.00012207V7.92969e-06Z" fill="#A6A6A6"/>
<path d="M8.94487 39.125C8.64019 39.125 8.34287 39.1211 8.04058 39.1143C7.41436 39.1061 6.7896 39.0516 6.17144 38.9512C5.59503 38.8519 5.03664 38.6673 4.5147 38.4033C3.99754 38.1415 3.52585 37.7983 3.1177 37.3867C2.70364 36.98 2.35891 36.5082 2.09719 35.9902C1.83258 35.4688 1.64945 34.9099 1.55419 34.333C1.45131 33.7131 1.39565 33.0863 1.38769 32.458C1.38135 32.2471 1.37305 31.5449 1.37305 31.5449V8.44434C1.37305 8.44434 1.38189 7.75293 1.38774 7.5498C1.39536 6.92248 1.4507 6.29665 1.55327 5.67773C1.64871 5.09925 1.83197 4.53875 2.09673 4.01563C2.35749 3.49794 2.7003 3.02586 3.11187 2.61768C3.52297 2.20562 3.99617 1.8606 4.51421 1.59521C5.03495 1.33209 5.59228 1.14873 6.16753 1.05127C6.78772 0.949836 7.41465 0.894996 8.04304 0.88721L8.94536 0.875H111.714L112.627 0.8877C113.25 0.895099 113.871 0.94945 114.485 1.05029C115.066 1.14898 115.63 1.33362 116.156 1.59814C117.194 2.13299 118.039 2.97916 118.571 4.01807C118.832 4.53758 119.012 5.09351 119.107 5.66699C119.21 6.29099 119.268 6.92174 119.28 7.5542C119.283 7.8374 119.283 8.1416 119.283 8.44434C119.291 8.81934 119.291 9.17627 119.291 9.53613V30.4648C119.291 30.8281 119.291 31.1826 119.283 31.54C119.283 31.8652 119.283 32.1631 119.279 32.4697C119.268 33.0909 119.211 33.7104 119.108 34.3232C119.015 34.9043 118.833 35.4675 118.568 35.9932C118.305 36.5056 117.962 36.9733 117.553 37.3789C117.144 37.7927 116.672 38.1379 116.153 38.4014C115.628 38.6674 115.066 38.8527 114.485 38.9512C113.867 39.0522 113.242 39.1067 112.616 39.1143C112.323 39.1211 112.017 39.125 111.719 39.125L110.635 39.127L8.94487 39.125Z" fill="black"/>
<path d="M25.269 20.3011C25.2797 19.4665 25.5014 18.6481 25.9135 17.9221C26.3255 17.1962 26.9145 16.5862 27.6256 16.1491C27.1738 15.5039 26.5779 14.973 25.885 14.5984C25.1922 14.2239 24.4216 14.016 23.6344 13.9914C21.9552 13.8151 20.3272 14.9962 19.4715 14.9962C18.5992 14.9962 17.2817 14.0089 15.863 14.0381C14.9453 14.0677 14.051 14.3346 13.2671 14.8126C12.4832 15.2907 11.8365 15.9637 11.3901 16.7659C9.45607 20.1144 10.8987 25.0354 12.7513 27.742C13.6782 29.0674 14.7615 30.5478 16.1789 30.4953C17.566 30.4378 18.084 29.6108 19.7583 29.6108C21.4171 29.6108 21.9031 30.4953 23.3493 30.4619C24.8377 30.4378 25.7754 29.1307 26.6698 27.7928C27.3358 26.8484 27.8483 25.8047 28.1882 24.7003C27.3235 24.3346 26.5856 23.7224 26.0665 22.9401C25.5474 22.1578 25.27 21.24 25.269 20.3011Z" fill="white"/>
<path d="M22.5376 12.2113C23.3491 11.2371 23.7489 9.98494 23.6521 8.7207C22.4123 8.85092 21.267 9.44348 20.4445 10.3803C20.0424 10.838 19.7344 11.3704 19.5381 11.9472C19.3419 12.524 19.2612 13.1337 19.3008 13.7417C19.9209 13.7481 20.5344 13.6137 21.0951 13.3486C21.6558 13.0835 22.149 12.6946 22.5376 12.2113Z" fill="white"/>
<path d="M42.8022 27.1397H38.0688L36.9321 30.4961H34.9272L39.4106 18.0781H41.4936L45.977 30.4961H43.938L42.8022 27.1397ZM38.5591 25.5908H42.3111L40.4615 20.1436H40.4097L38.5591 25.5908Z" fill="white"/>
<path d="M55.6597 25.9695C55.6597 28.7829 54.1538 30.5905 51.8814 30.5905C51.3057 30.6207 50.7332 30.4881 50.2294 30.2079C49.7256 29.9278 49.3109 29.5114 49.0327 29.0065H48.9897V33.4909H47.1313V21.4421H48.9302V22.948H48.9644C49.2553 22.4455 49.6771 22.0313 50.1847 21.7495C50.6923 21.4676 51.2669 21.3287 51.8472 21.3474C54.145 21.3474 55.6597 23.1638 55.6597 25.9695ZM53.7495 25.9695C53.7495 24.1365 52.8023 22.9314 51.357 22.9314C49.937 22.9314 48.982 24.1618 48.982 25.9695C48.982 27.7937 49.937 29.0154 51.357 29.0154C52.8023 29.0154 53.7495 27.8191 53.7495 25.9695Z" fill="white"/>
<path d="M65.6245 25.9694C65.6245 28.7829 64.1187 30.5905 61.8462 30.5905C61.2706 30.6206 60.6981 30.488 60.1943 30.2079C59.6905 29.9278 59.2758 29.5114 58.9976 29.0065H58.9546V33.4909H57.0962V21.4421H58.895V22.948H58.9292C59.2201 22.4455 59.6419 22.0313 60.1495 21.7495C60.6571 21.4676 61.2317 21.3287 61.812 21.3474C64.1099 21.3474 65.6245 23.1638 65.6245 25.9694ZM63.7144 25.9694C63.7144 24.1364 62.7671 22.9314 61.3218 22.9314C59.9019 22.9314 58.9468 24.1618 58.9468 25.9694C58.9468 27.7937 59.9019 29.0153 61.3218 29.0153C62.7671 29.0153 63.7144 27.8191 63.7144 25.9694H63.7144Z" fill="white"/>
<path d="M72.2105 27.0362C72.3482 28.2676 73.5445 29.0762 75.1792 29.0762C76.7456 29.0762 77.8726 28.2676 77.8726 27.1572C77.8726 26.1934 77.1929 25.6162 75.5835 25.2207L73.9742 24.833C71.6939 24.2822 70.6353 23.2158 70.6353 21.4854C70.6353 19.3428 72.5025 17.8711 75.1538 17.8711C77.7778 17.8711 79.5767 19.3428 79.6372 21.4854H77.7612C77.6489 20.2461 76.6245 19.4981 75.1274 19.4981C73.6304 19.4981 72.606 20.2549 72.606 21.3565C72.606 22.2344 73.2603 22.751 74.8608 23.1465L76.229 23.4824C78.7769 24.0849 79.8355 25.1084 79.8355 26.9248C79.8355 29.248 77.9849 30.7031 75.0415 30.7031C72.2876 30.7031 70.4282 29.2822 70.3081 27.0361L72.2105 27.0362Z" fill="white"/>
<path d="M83.8462 19.2999V21.4424H85.5679V22.9141H83.8462V27.9053C83.8462 28.6807 84.1909 29.0421 84.9477 29.0421C85.1521 29.0385 85.3562 29.0241 85.5591 28.9991V30.4619C85.2188 30.5255 84.8729 30.5543 84.5268 30.5479C82.6938 30.5479 81.979 29.8594 81.979 28.1035V22.9141H80.6626V21.4424H81.979V19.2999H83.8462Z" fill="white"/>
<path d="M86.5649 25.9698C86.5649 23.1212 88.2427 21.3311 90.8589 21.3311C93.4839 21.3311 95.1538 23.1211 95.1538 25.9698C95.1538 28.8262 93.4927 30.6085 90.8589 30.6085C88.226 30.6085 86.5649 28.8262 86.5649 25.9698ZM93.2602 25.9698C93.2602 24.0157 92.3647 22.8624 90.8589 22.8624C89.353 22.8624 88.4585 24.0245 88.4585 25.9698C88.4585 27.9317 89.353 29.0762 90.8589 29.0762C92.3647 29.0762 93.2602 27.9317 93.2602 25.9698H93.2602Z" fill="white"/>
<path d="M96.686 21.442H98.4585V22.983H98.5015C98.6214 22.5017 98.9034 22.0764 99.3 21.7785C99.6966 21.4806 100.184 21.3284 100.679 21.3473C100.893 21.3465 101.107 21.3698 101.316 21.4166V23.1549C101.046 23.0723 100.764 23.0343 100.481 23.0426C100.211 23.0316 99.9418 23.0792 99.692 23.1821C99.4421 23.285 99.2175 23.4408 99.0335 23.6386C98.8496 23.8365 98.7106 24.0719 98.6262 24.3286C98.5417 24.5852 98.5139 24.8571 98.5444 25.1256V30.4957H96.686L96.686 21.442Z" fill="white"/>
<path d="M109.884 27.837C109.634 29.4805 108.034 30.6085 105.986 30.6085C103.352 30.6085 101.717 28.8438 101.717 26.0128C101.717 23.1729 103.361 21.3311 105.908 21.3311C108.413 21.3311 109.988 23.0518 109.988 25.7969V26.4337H103.593V26.546C103.564 26.8792 103.605 27.2148 103.716 27.5307C103.826 27.8465 104.002 28.1353 104.232 28.3778C104.463 28.6204 104.742 28.8111 105.052 28.9374C105.361 29.0638 105.695 29.1227 106.029 29.1104C106.468 29.1516 106.909 29.0498 107.285 28.8204C107.662 28.591 107.955 28.246 108.12 27.837L109.884 27.837ZM103.602 25.1348H108.128C108.145 24.8352 108.1 24.5354 107.995 24.2542C107.89 23.973 107.729 23.7165 107.52 23.5007C107.312 23.2849 107.061 23.1146 106.783 23.0004C106.506 22.8862 106.208 22.8305 105.908 22.837C105.605 22.8352 105.305 22.8933 105.025 23.0081C104.745 23.1228 104.49 23.2919 104.276 23.5055C104.062 23.7191 103.892 23.9731 103.776 24.2528C103.66 24.5324 103.601 24.8322 103.602 25.1348V25.1348Z" fill="white"/>
<path d="M38.3262 8.73053C38.7158 8.70257 39.1067 8.76143 39.4709 8.90286C39.835 9.04429 40.1632 9.26477 40.4317 9.5484C40.7003 9.83202 40.9026 10.1717 41.024 10.543C41.1454 10.9143 41.1829 11.3079 41.1338 11.6954C41.1338 13.6016 40.1035 14.6974 38.3262 14.6974H36.1709V8.73053H38.3262ZM37.0976 13.8535H38.2226C38.5011 13.8702 38.7797 13.8245 39.0382 13.7199C39.2967 13.6153 39.5287 13.4543 39.7172 13.2488C39.9057 13.0432 40.046 12.7982 40.1278 12.5316C40.2097 12.265 40.2311 11.9834 40.1904 11.7075C40.2281 11.4327 40.2046 11.1529 40.1215 10.8883C40.0383 10.6236 39.8977 10.3806 39.7096 10.1767C39.5216 9.97273 39.2907 9.81292 39.0337 9.70868C38.7766 9.60445 38.4996 9.55836 38.2226 9.57374H37.0976V13.8535Z" fill="white"/>
<path d="M42.1805 12.4439C42.1521 12.1479 42.186 11.8494 42.2798 11.5673C42.3737 11.2852 42.5254 11.0259 42.7254 10.8059C42.9253 10.5859 43.169 10.4102 43.4409 10.2899C43.7127 10.1696 44.0067 10.1075 44.304 10.1075C44.6013 10.1075 44.8952 10.1696 45.1671 10.2899C45.439 10.4102 45.6827 10.5859 45.8826 10.8059C46.0825 11.0259 46.2343 11.2852 46.3281 11.5673C46.422 11.8494 46.4558 12.1479 46.4275 12.4439C46.4564 12.7401 46.4229 13.0391 46.3293 13.3216C46.2357 13.6041 46.0841 13.8639 45.8841 14.0843C45.6841 14.3048 45.4402 14.4809 45.1681 14.6014C44.8959 14.722 44.6016 14.7842 44.304 14.7842C44.0064 14.7842 43.712 14.722 43.4399 14.6014C43.1678 14.4809 42.9239 14.3048 42.7239 14.0843C42.5239 13.8639 42.3722 13.6041 42.2786 13.3216C42.1851 13.0391 42.1516 12.7401 42.1805 12.4439ZM45.5135 12.4439C45.5135 11.4678 45.075 10.897 44.3055 10.897C43.533 10.897 43.0985 11.4678 43.0985 12.4439C43.0985 13.4278 43.533 13.9942 44.3055 13.9942C45.075 13.9942 45.5135 13.4238 45.5135 12.4439H45.5135Z" fill="white"/>
<path d="M52.0732 14.6973H51.1514L50.2207 11.3809H50.1504L49.2236 14.6973H48.3105L47.0693 10.1943H47.9707L48.7773 13.6303H48.8438L49.7695 10.1943H50.6221L51.5479 13.6303H51.6182L52.4209 10.1943H53.3096L52.0732 14.6973Z" fill="white"/>
<path d="M54.3535 10.1939H55.209V10.9092H55.2754C55.388 10.6523 55.5781 10.4369 55.8189 10.2931C56.0598 10.1493 56.3395 10.0842 56.6191 10.107C56.8382 10.0905 57.0582 10.1235 57.2628 10.2036C57.4674 10.2837 57.6514 10.4088 57.8011 10.5697C57.9508 10.7305 58.0623 10.923 58.1275 11.1328C58.1927 11.3426 58.2099 11.5644 58.1777 11.7818V14.6968H57.2891V12.0049C57.2891 11.2813 56.9746 10.9214 56.3174 10.9214C56.1686 10.9145 56.0201 10.9398 55.8821 10.9957C55.744 11.0515 55.6197 11.1365 55.5175 11.2449C55.4154 11.3533 55.3379 11.4825 55.2904 11.6236C55.2429 11.7647 55.2264 11.9145 55.2422 12.0625V14.6968H54.3535L54.3535 10.1939Z" fill="white"/>
<path d="M59.5938 8.43652H60.4824V14.6973H59.5938V8.43652Z" fill="white"/>
<path d="M61.7175 12.4439C61.6893 12.1479 61.7231 11.8494 61.817 11.5673C61.9109 11.2852 62.0626 11.0259 62.2626 10.8059C62.4626 10.5859 62.7063 10.4101 62.9782 10.2898C63.25 10.1696 63.544 10.1074 63.8413 10.1074C64.1386 10.1074 64.4326 10.1696 64.7045 10.2898C64.9764 10.4101 65.2201 10.5859 65.42 10.8059C65.62 11.0259 65.7718 11.2852 65.8656 11.5673C65.9595 11.8494 65.9934 12.1479 65.9651 12.4439C65.9939 12.7401 65.9604 13.0391 65.8668 13.3216C65.7732 13.6042 65.6215 13.864 65.4215 14.0844C65.2215 14.3048 64.9776 14.4809 64.7054 14.6014C64.4333 14.722 64.139 14.7842 63.8413 14.7842C63.5437 14.7842 63.2493 14.722 62.9772 14.6014C62.7051 14.4809 62.4612 14.3048 62.2612 14.0844C62.0611 13.864 61.9095 13.6042 61.8158 13.3216C61.7222 13.0391 61.6887 12.7401 61.7175 12.4439ZM65.0505 12.4439C65.0505 11.4678 64.6121 10.897 63.8425 10.897C63.0701 10.897 62.6355 11.4678 62.6355 12.4439C62.6355 13.4278 63.0701 13.9942 63.8425 13.9942C64.6121 13.9942 65.0505 13.4239 65.0505 12.4439H65.0505Z" fill="white"/>
<path d="M66.9009 13.4238C66.9009 12.6133 67.5044 12.146 68.5757 12.0796L69.7954 12.0093V11.6206C69.7954 11.145 69.481 10.8765 68.8735 10.8765C68.3774 10.8765 68.0337 11.0586 67.9351 11.377H67.0747C67.1655 10.6035 67.8931 10.1074 68.9146 10.1074C70.0435 10.1074 70.6802 10.6694 70.6802 11.6206V14.6973H69.8247V14.0645H69.7544C69.6117 14.2914 69.4113 14.4765 69.1737 14.6007C68.936 14.7249 68.6697 14.7838 68.4019 14.7715C68.2128 14.7911 68.0218 14.7709 67.841 14.7122C67.6602 14.6536 67.4938 14.5576 67.3524 14.4307C67.211 14.3037 67.0977 14.1485 67.02 13.9751C66.9422 13.8017 66.9016 13.6139 66.9009 13.4238ZM69.7954 13.0391V12.6626L68.6958 12.7329C68.0757 12.7744 67.7944 12.9853 67.7944 13.3823C67.7944 13.7876 68.146 14.0234 68.6294 14.0234C68.7711 14.0378 68.9142 14.0235 69.0502 13.9814C69.1862 13.9393 69.3123 13.8703 69.4211 13.7784C69.5299 13.6866 69.6191 13.5738 69.6834 13.4468C69.7477 13.3198 69.7858 13.1811 69.7954 13.0391Z" fill="white"/>
<path d="M71.8481 12.4439C71.8481 11.021 72.5796 10.1196 73.7173 10.1196C73.9987 10.1067 74.278 10.1741 74.5225 10.314C74.767 10.4539 74.9667 10.6605 75.0981 10.9096H75.1646V8.43652H76.0532V14.6973H75.2017V13.9858H75.1314C74.9897 14.2333 74.7831 14.4374 74.5339 14.5758C74.2846 14.7143 74.0022 14.782 73.7173 14.7715C72.5718 14.7715 71.8481 13.8701 71.8481 12.4439ZM72.7661 12.4439C72.7661 13.3989 73.2163 13.9737 73.9693 13.9737C74.7183 13.9737 75.1812 13.3907 75.1812 12.4478C75.1812 11.5093 74.7134 10.918 73.9693 10.918C73.2212 10.918 72.7661 11.4966 72.7661 12.4439H72.7661Z" fill="white"/>
<path d="M79.7298 12.4439C79.7015 12.1479 79.7353 11.8494 79.8292 11.5673C79.923 11.2852 80.0748 11.0259 80.2747 10.8059C80.4746 10.5859 80.7183 10.4102 80.9902 10.2899C81.262 10.1696 81.556 10.1075 81.8533 10.1075C82.1506 10.1075 82.4446 10.1696 82.7164 10.2899C82.9883 10.4102 83.232 10.5859 83.4319 10.8059C83.6319 11.0259 83.7836 11.2852 83.8775 11.5673C83.9713 11.8494 84.0052 12.1479 83.9768 12.4439C84.0057 12.7401 83.9722 13.0391 83.8786 13.3216C83.7851 13.6041 83.6334 13.8639 83.4334 14.0843C83.2334 14.3048 82.9895 14.4809 82.7174 14.6014C82.4453 14.722 82.1509 14.7842 81.8533 14.7842C81.5557 14.7842 81.2613 14.722 80.9892 14.6014C80.7171 14.4809 80.4732 14.3048 80.2732 14.0843C80.0732 13.8639 79.9216 13.6041 79.828 13.3216C79.7344 13.0391 79.7009 12.7401 79.7298 12.4439ZM83.0628 12.4439C83.0628 11.4678 82.6243 10.897 81.8548 10.897C81.0823 10.897 80.6478 11.4678 80.6478 12.4439C80.6478 13.4278 81.0823 13.9942 81.8548 13.9942C82.6243 13.9942 83.0628 13.4238 83.0628 12.4439Z" fill="white"/>
<path d="M85.1694 10.1939H86.0249V10.9092H86.0913C86.204 10.6523 86.394 10.4369 86.6348 10.2931C86.8757 10.1493 87.1555 10.0842 87.4351 10.107C87.6542 10.0905 87.8742 10.1235 88.0788 10.2036C88.2834 10.2837 88.4673 10.4088 88.617 10.5697C88.7667 10.7305 88.8783 10.923 88.9435 11.1328C89.0087 11.3426 89.0258 11.5644 88.9937 11.7818V14.6968H88.105V12.0049C88.105 11.2813 87.7905 10.9214 87.1333 10.9214C86.9846 10.9145 86.836 10.9398 86.698 10.9957C86.5599 11.0515 86.4356 11.1365 86.3335 11.2449C86.2313 11.3533 86.1539 11.4825 86.1063 11.6236C86.0588 11.7647 86.0423 11.9145 86.0581 12.0625V14.6968H85.1694V10.1939Z" fill="white"/>
<path d="M94.0151 9.07324V10.2148H94.9907V10.9634H94.0151V13.2788C94.0151 13.7505 94.2095 13.957 94.6519 13.957C94.7651 13.9567 94.8783 13.9498 94.9907 13.9365V14.6768C94.8311 14.7053 94.6694 14.7205 94.5073 14.7222C93.519 14.7222 93.1255 14.3745 93.1255 13.5063V10.9633H92.4106V10.2148H93.1255V9.07324H94.0151Z" fill="white"/>
<path d="M96.2046 8.43652H97.0854V10.918H97.1558C97.2739 10.6587 97.4691 10.4421 97.7148 10.2977C97.9605 10.1534 98.2447 10.0883 98.5288 10.1113C98.7467 10.0995 98.9646 10.1359 99.1669 10.2179C99.3692 10.2999 99.5508 10.4256 99.699 10.586C99.8471 10.7463 99.958 10.9373 100.024 11.1455C100.09 11.3536 100.109 11.5737 100.08 11.79V14.6973H99.19V12.0093C99.19 11.29 98.855 10.9258 98.2271 10.9258C98.0743 10.9132 97.9207 10.9342 97.7769 10.9873C97.6332 11.0404 97.5027 11.1242 97.3947 11.2329C97.2867 11.3417 97.2038 11.4727 97.1517 11.6168C97.0997 11.761 97.0797 11.9147 97.0933 12.0674V14.6973H96.2046L96.2046 8.43652Z" fill="white"/>
<path d="M105.261 13.4815C105.141 13.893 104.879 14.249 104.522 14.4871C104.166 14.7253 103.737 14.8304 103.31 14.7842C103.014 14.792 102.719 14.7352 102.446 14.6177C102.174 14.5001 101.93 14.3247 101.732 14.1036C101.534 13.8824 101.387 13.6209 101.3 13.3371C101.213 13.0532 101.19 12.754 101.23 12.46C101.191 12.1651 101.215 11.8652 101.301 11.5805C101.388 11.2958 101.535 11.033 101.731 10.81C101.928 10.5869 102.171 10.4087 102.443 10.2875C102.714 10.1663 103.009 10.1049 103.306 10.1074C104.559 10.1074 105.315 10.9634 105.315 12.3774V12.6875H102.135V12.7373C102.121 12.9026 102.142 13.0689 102.196 13.2257C102.251 13.3824 102.337 13.5261 102.45 13.6476C102.563 13.769 102.7 13.8655 102.852 13.9309C103.004 13.9963 103.169 14.0292 103.335 14.0273C103.547 14.0528 103.763 14.0146 103.953 13.9174C104.144 13.8202 104.302 13.6684 104.406 13.4814L105.261 13.4815ZM102.135 12.0303H104.41C104.421 11.8792 104.4 11.7274 104.35 11.5846C104.299 11.4419 104.218 11.3114 104.114 11.2016C104.01 11.0917 103.883 11.0049 103.743 10.9467C103.603 10.8886 103.453 10.8603 103.301 10.8638C103.148 10.8619 102.995 10.8907 102.853 10.9487C102.71 11.0066 102.581 11.0925 102.472 11.2012C102.364 11.3099 102.278 11.4393 102.22 11.5817C102.162 11.724 102.133 11.8766 102.135 12.0303H102.135Z" fill="white"/>
</g>
<defs>
<clipPath id="clip0_122_401">
<rect width="119.664" height="40" fill="white" transform="translate(0.5)"/>
</clipPath>
</defs>
</svg>
