<svg width="40" height="41" viewBox="0 0 40 41" fill="none" xmlns="http://www.w3.org/2000/svg">
<path d="M13.85 30.7236H8C7.44772 30.7236 7 30.2759 7 29.7236V19.7236C7 19.1713 7.44772 18.7236 8 18.7236H13.85C13.9328 18.7236 14 18.7908 14 18.8736V30.5736C14 30.6565 13.9328 30.7236 13.85 30.7236Z" stroke="#33363F" stroke-width="2" stroke-linecap="round"/>
<path d="M14 18.7236L17.456 14.2802C17.5925 14.1046 17.6667 13.8886 17.6667 13.6662V8.72363C17.6667 8.17135 18.1144 7.72363 18.6667 7.72363H23C24.1046 7.72363 25 8.61906 25 9.72363V18.7236" stroke="#33363F" stroke-width="2" stroke-linecap="round"/>
<path d="M20.9091 18.7236H30.7381C31.9398 18.7236 32.8702 19.7759 32.723 20.9685L31.4893 30.9685C31.3656 31.9708 30.5142 32.7236 29.5043 32.7236H21.293C21.0459 32.7236 20.8075 32.6321 20.6238 32.4667L19.4671 31.425C19.2834 31.2596 19.0451 31.1681 18.7979 31.1681H14" stroke="#33363F" stroke-width="2" stroke-linecap="round"/>
</svg>
