<svg width="86" height="17" viewBox="0 0 86 17" fill="none" xmlns="http://www.w3.org/2000/svg">
<path d="M27.6401 4.74998C26.7976 4.75196 25.9745 5.00374 25.2751 5.47348C24.5756 5.94322 24.0312 6.60982 23.7106 7.38899C23.39 8.16815 23.3076 9.02489 23.4739 9.85086C23.6402 10.6768 24.0477 11.4349 24.6449 12.0293C25.2421 12.6237 26.0021 13.0276 26.8288 13.1901C27.6556 13.3525 28.5119 13.2661 29.2896 12.9419C30.0672 12.6176 30.7313 12.07 31.1977 11.3684C31.6642 10.6667 31.9121 9.84253 31.9101 8.99998C31.9183 8.43792 31.8132 7.87996 31.6013 7.35933C31.3893 6.8387 31.0748 6.36604 30.6764 5.96949C30.2779 5.57294 29.8038 5.26062 29.2822 5.05111C28.7606 4.8416 28.2021 4.73919 27.6401 4.74998ZM27.6401 11.58C27.1237 11.6161 26.6083 11.496 26.1611 11.2354C25.7138 10.9747 25.3553 10.5855 25.1321 10.1184C24.909 9.65131 24.8315 9.12786 24.9098 8.61613C24.9881 8.10441 25.2185 7.62806 25.5711 7.24902C25.9237 6.86998 26.3821 6.60578 26.8869 6.49076C27.3916 6.37574 27.9193 6.41522 28.4013 6.60407C28.8833 6.79292 29.2973 7.1224 29.5896 7.54969C29.8819 7.97698 30.0388 8.4823 30.0401 8.99998C30.0562 9.328 30.0065 9.65592 29.8938 9.9644C29.7812 10.2729 29.6079 10.5557 29.3842 10.7962C29.1606 11.0366 28.891 11.2299 28.5914 11.3645C28.2919 11.4991 27.9684 11.5724 27.6401 11.58ZM18.3201 4.74998C17.4776 4.75196 16.6545 5.00374 15.9551 5.47348C15.2556 5.94322 14.7112 6.60982 14.3906 7.38899C14.07 8.16815 13.9876 9.02489 14.1539 9.85086C14.3202 10.6768 14.7277 11.4349 15.3249 12.0293C15.9221 12.6237 16.6821 13.0276 17.5088 13.1901C18.3356 13.3525 19.1919 13.2661 19.9696 12.9419C20.7472 12.6176 21.4113 12.07 21.8777 11.3684C22.3442 10.6667 22.5921 9.84253 22.5901 8.99998C22.5982 8.43792 22.4932 7.87996 22.2813 7.35933C22.0693 6.8387 21.7548 6.36604 21.3564 5.96949C20.9579 5.57294 20.4838 5.26062 19.9622 5.05111C19.4406 4.8416 18.8821 4.73919 18.3201 4.74998ZM18.3201 11.58C17.8037 11.6161 17.2883 11.496 16.8411 11.2354C16.3938 10.9747 16.0353 10.5855 15.8121 10.1184C15.589 9.65131 15.5115 9.12786 15.5898 8.61613C15.6681 8.10441 15.8985 7.62806 16.2511 7.24902C16.6037 6.86998 17.0621 6.60578 17.5669 6.49076C18.0716 6.37574 18.5993 6.41522 19.0813 6.60407C19.5633 6.79292 19.9773 7.1224 20.2696 7.54969C20.5619 7.97698 20.7188 8.4823 20.7201 8.99998C20.7362 9.328 20.6865 9.65592 20.5738 9.9644C20.4612 10.2729 20.2879 10.5557 20.0642 10.7962C19.8406 11.0366 19.571 11.2299 19.2714 11.3645C18.9719 11.4991 18.6484 11.5724 18.3201 11.58ZM7.2401 6.05999V7.85998H11.5601C11.4924 8.70779 11.1399 9.50778 10.5601 10.13C10.1268 10.5715 9.60555 10.9171 9.03021 11.1445C8.45487 11.3719 7.8382 11.476 7.2201 11.45C5.94706 11.45 4.72616 10.9443 3.82598 10.0441C2.92581 9.14392 2.4201 7.92302 2.4201 6.64999C2.4201 5.37695 2.92581 4.15605 3.82598 3.25587C4.72616 2.3557 5.94706 1.84998 7.2201 1.84998C8.44055 1.83183 9.61899 2.29531 10.5001 3.13998L11.7701 1.86998C11.1741 1.28049 10.4664 0.815874 9.68856 0.503356C8.9107 0.190838 8.07829 0.0367037 7.2401 0.0499831C6.3511 0.0153853 5.46426 0.160611 4.63272 0.476955C3.80119 0.793298 3.04207 1.27425 2.40086 1.89099C1.75964 2.50774 1.24953 3.24758 0.901093 4.06618C0.552651 4.88478 0.373047 5.76531 0.373047 6.65498C0.373047 7.54466 0.552651 8.42518 0.901093 9.24378C1.24953 10.0624 1.75964 10.8022 2.40086 11.419C3.04207 12.0357 3.80119 12.5167 4.63272 12.833C5.46426 13.1494 6.3511 13.2946 7.2401 13.26C8.09552 13.2941 8.94849 13.147 9.743 12.8281C10.5375 12.5093 11.2556 12.026 11.8501 11.41C12.9002 10.2564 13.4598 8.73917 13.4101 7.17998C13.4137 6.80471 13.3836 6.42987 13.3201 6.05999H7.2401ZM52.5501 7.45998C52.2893 6.69272 51.8016 6.02277 51.1516 5.53883C50.5016 5.0549 49.7199 4.77981 48.9101 4.74998C48.3631 4.74891 47.8217 4.86005 47.3193 5.07652C46.817 5.29299 46.3644 5.61019 45.9895 6.00852C45.6146 6.40685 45.3254 6.87783 45.1397 7.39237C44.9541 7.9069 44.8759 8.45405 44.9101 8.99998C44.9016 9.91283 45.1885 10.804 45.7282 11.5402C46.2679 12.2765 47.0313 12.8185 47.9044 13.0851C48.7774 13.3518 49.7134 13.3288 50.5723 13.0197C51.4313 12.7106 52.1672 12.1318 52.6701 11.37L51.2201 10.37C51.0039 10.7303 50.6974 11.0278 50.3307 11.233C49.9641 11.4382 49.5502 11.5441 49.1301 11.54C48.6967 11.5579 48.268 11.4442 47.9003 11.214C47.5327 10.9838 47.2432 10.6477 47.0701 10.25L52.7601 7.89999L52.5501 7.45998ZM46.7501 8.87998C46.7298 8.56936 46.7717 8.25782 46.8734 7.9636C46.975 7.66938 47.1343 7.39839 47.342 7.16651C47.5497 6.93462 47.8015 6.74651 48.0828 6.61317C48.3641 6.47983 48.6691 6.40396 48.9801 6.38998C49.3023 6.37032 49.6231 6.44617 49.9024 6.60805C50.1817 6.76993 50.407 7.01062 50.5501 7.29998L46.7501 8.87998ZM42.1301 13H44.0001V0.499984H42.1301V13ZM39.0701 5.69998H39.0001C38.7207 5.38184 38.376 5.12779 37.9894 4.9552C37.6028 4.78261 37.1835 4.69555 36.7601 4.69998C35.6673 4.75298 34.6367 5.22441 33.8821 6.01657C33.1274 6.80873 32.7064 7.86088 32.7064 8.95499C32.7064 10.0491 33.1274 11.1012 33.8821 11.8934C34.6367 12.6856 35.6673 13.157 36.7601 13.21C37.1841 13.2185 37.6047 13.1333 37.9919 12.9604C38.3791 12.7875 38.7234 12.5313 39.0001 12.21H39.0701V12.82C39.0701 14.45 38.2001 15.32 36.8001 15.32C36.3324 15.3097 35.8783 15.1607 35.4955 14.8918C35.1127 14.623 34.8185 14.2464 34.6501 13.81L33.0301 14.48C33.3296 15.2322 33.8504 15.8759 34.5235 16.3258C35.1966 16.7758 35.9905 17.0109 36.8001 17C38.9901 17 40.8001 15.71 40.8001 12.57V4.99998H39.0701V5.69998ZM36.9201 11.58C36.2649 11.5391 35.6499 11.2501 35.2004 10.7716C34.7509 10.2932 34.5006 9.66145 34.5006 9.00498C34.5006 8.34852 34.7509 7.71674 35.2004 7.23832C35.6499 6.75991 36.2649 6.47083 36.9201 6.42998C37.2403 6.4438 37.5545 6.5219 37.844 6.65962C38.1334 6.79734 38.3922 6.99188 38.6049 7.23166C38.8176 7.47143 38.9799 7.75155 39.0822 8.05534C39.1844 8.35913 39.2245 8.68038 39.2001 8.99998C39.2274 9.32067 39.1893 9.64357 39.0883 9.94914C38.9872 10.2547 38.8252 10.5366 38.6121 10.7778C38.3989 11.0189 38.1391 11.2144 37.8483 11.3523C37.5575 11.4902 37.2417 11.5676 36.9201 11.58ZM61.3101 0.499984H56.8301V13H58.7001V8.25998H61.3101C61.8431 8.29827 62.3782 8.22635 62.8821 8.04871C63.386 7.87107 63.848 7.59151 64.2391 7.22748C64.6302 6.86344 64.9422 6.42273 65.1555 5.93282C65.3688 5.44291 65.4788 4.91431 65.4788 4.37998C65.4788 3.84566 65.3688 3.31706 65.1555 2.82715C64.9422 2.33724 64.6302 1.89653 64.2391 1.53249C63.848 1.16845 63.386 0.888899 62.8821 0.711257C62.3782 0.533615 61.8431 0.461695 61.3101 0.499984ZM61.3101 6.49998H58.7001V2.23998H61.3501C61.6311 2.23998 61.9094 2.29534 62.169 2.40288C62.4287 2.51043 62.6646 2.66806 62.8633 2.86677C63.062 3.06549 63.2197 3.3014 63.3272 3.56104C63.4347 3.82068 63.4901 4.09895 63.4901 4.37998C63.4901 4.66101 63.4347 4.93929 63.3272 5.19893C63.2197 5.45856 63.062 5.69447 62.8633 5.89319C62.6646 6.09191 62.4287 6.24954 62.169 6.35709C61.9094 6.46463 61.6311 6.51998 61.3501 6.51998L61.3101 6.49998ZM72.8501 4.70998C72.1691 4.66799 71.4907 4.82653 70.8989 5.166C70.3071 5.50547 69.8277 6.01097 69.5201 6.61998L71.1701 7.30999C71.3368 7.00939 71.587 6.7635 71.8905 6.60201C72.1939 6.44053 72.5376 6.37036 72.8801 6.39999C73.1175 6.37226 73.358 6.39209 73.5877 6.45831C73.8173 6.52453 74.0315 6.63582 74.2176 6.78569C74.4038 6.93556 74.5583 7.12101 74.672 7.33121C74.7857 7.54141 74.8565 7.77215 74.8801 8.00998V8.12998C74.2788 7.8139 73.6095 7.64915 72.9301 7.64999C71.1501 7.64999 69.3301 8.64999 69.3301 10.47C69.3477 10.8568 69.4429 11.2362 69.61 11.5855C69.777 11.9349 70.0126 12.2471 70.3027 12.5036C70.5928 12.7601 70.9315 12.9557 71.2987 13.0788C71.6659 13.2018 72.054 13.2499 72.4401 13.22C72.9094 13.2459 73.3771 13.1466 73.7953 12.9323C74.2135 12.7179 74.5672 12.3961 74.8201 12H74.8801V13H76.6801V8.18998C76.6801 5.99998 75.0201 4.72998 72.8901 4.72998L72.8501 4.70998ZM72.6201 11.56C72.0101 11.56 71.1601 11.25 71.1601 10.5C71.1601 9.49998 72.2201 9.15998 73.1601 9.15998C73.7541 9.14533 74.3412 9.29037 74.8601 9.57999C74.7973 10.1231 74.5398 10.625 74.1353 10.9927C73.7308 11.3604 73.2067 11.5691 72.6601 11.58L72.6201 11.56ZM83.2401 4.99998L81.1001 10.42H81.0401L78.8201 4.99998H76.8201L80.1501 12.58L78.2501 16.79H80.2001L85.3201 4.99998H83.2401ZM66.4401 13H68.3001V0.499984H66.4401V13Z" fill="white"/>
</svg>
