<svg width="136" height="40" viewBox="0 0 136 40" fill="none" xmlns="http://www.w3.org/2000/svg">
<path d="M130.5 0.8C131.614 0.8 132.682 1.2425 133.47 2.03015C134.258 2.8178 134.7 3.88609 134.7 5V35C134.7 36.1139 134.258 37.1822 133.47 37.9698C132.682 38.7575 131.614 39.2 130.5 39.2H5.5C4.38609 39.2 3.3178 38.7575 2.53015 37.9698C1.7425 37.1822 1.3 36.1139 1.3 35V5C1.3 3.88609 1.7425 2.8178 2.53015 2.03015C3.3178 1.2425 4.38609 0.8 5.5 0.8H130.5ZM130.5 0H5.5C4.17392 0 2.90215 0.526784 1.96447 1.46447C1.02678 2.40215 0.5 3.67392 0.5 5V35C0.5 36.3261 1.02678 37.5979 1.96447 38.5355C2.90215 39.4732 4.17392 40 5.5 40H130.5C131.826 40 133.098 39.4732 134.036 38.5355C134.973 37.5979 135.5 36.3261 135.5 35V5C135.5 3.67392 134.973 2.40215 134.036 1.46447C133.098 0.526784 131.826 0 130.5 0Z" fill="#A6A6A6"/>
</svg>
