<svg width="77" height="57" viewBox="0 0 77 57" fill="none" xmlns="http://www.w3.org/2000/svg">
<path d="M76.895 44.893L72.535 14.253C71.415 6.37296 64.655 0.532959 56.695 0.532959H20.455C12.495 0.532959 5.73497 6.37296 4.61497 14.253L0.254968 44.893C-0.625032 51.053 4.13497 56.533 10.335 56.533C13.055 56.533 15.615 55.453 17.535 53.533L26.575 44.533H50.575L59.575 53.533C61.495 55.453 64.095 56.533 66.775 56.533C73.015 56.533 77.775 51.053 76.895 44.893ZM34.575 24.533H26.575V32.533H22.575V24.533H14.575V20.533H22.575V12.533H26.575V20.533H34.575V24.533ZM50.575 20.533C48.375 20.533 46.575 18.733 46.575 16.533C46.575 14.333 48.375 12.533 50.575 12.533C52.775 12.533 54.575 14.333 54.575 16.533C54.575 18.733 52.775 20.533 50.575 20.533ZM58.575 32.533C56.375 32.533 54.575 30.733 54.575 28.533C54.575 26.333 56.375 24.533 58.575 24.533C60.775 24.533 62.575 26.333 62.575 28.533C62.575 30.733 60.775 32.533 58.575 32.533Z" fill="#8EB6F2"/>
</svg>
