<svg width="86" height="17" viewBox="0 0 86 17" fill="none" xmlns="http://www.w3.org/2000/svg">
<path d="M27.8041 4.75004C26.9615 4.75203 26.1385 5.00381 25.439 5.47354C24.7396 5.94328 24.1951 6.60988 23.8745 7.38905C23.5539 8.16822 23.4716 9.02495 23.6379 9.85092C23.8042 10.6769 24.2117 11.435 24.8089 12.0294C25.4061 12.6237 26.1661 13.0277 26.9928 13.1901C27.8195 13.3525 28.6759 13.2662 29.4535 12.9419C30.2312 12.6177 30.8952 12.0701 31.3617 11.3684C31.8281 10.6668 32.076 9.84259 32.0741 9.00004C32.0822 8.43798 31.9772 7.88002 31.7652 7.35939C31.5533 6.83876 31.2387 6.3661 30.8403 5.96955C30.4419 5.573 29.9678 5.26068 29.4462 5.05117C28.9245 4.84166 28.3661 4.73925 27.8041 4.75004ZM27.8041 11.58C27.2876 11.6162 26.7723 11.4961 26.325 11.2354C25.8778 10.9748 25.5192 10.5856 25.2961 10.1185C25.0729 9.65137 24.9955 9.12792 25.0737 8.61619C25.152 8.10447 25.3824 7.62812 25.735 7.24908C26.0876 6.87004 26.5461 6.60584 27.0508 6.49082C27.5556 6.3758 28.0832 6.41528 28.5653 6.60413C29.0473 6.79298 29.4613 7.12246 29.7536 7.54975C30.0458 7.97704 30.2028 8.48236 30.2041 9.00004C30.2202 9.32806 30.1704 9.65598 30.0578 9.96447C29.9452 10.273 29.7719 10.5558 29.5482 10.7962C29.3245 11.0367 29.055 11.2299 28.7554 11.3645C28.4559 11.4992 28.1324 11.5724 27.8041 11.58ZM18.4841 4.75004C17.6415 4.75203 16.8185 5.00381 16.119 5.47354C15.4196 5.94328 14.8751 6.60988 14.5545 7.38905C14.2339 8.16822 14.1516 9.02495 14.3179 9.85092C14.4842 10.6769 14.8917 11.435 15.4889 12.0294C16.0861 12.6237 16.8461 13.0277 17.6728 13.1901C18.4995 13.3525 19.3559 13.2662 20.1335 12.9419C20.9112 12.6177 21.5752 12.0701 22.0417 11.3684C22.5081 10.6668 22.756 9.84259 22.7541 9.00004C22.7622 8.43798 22.6572 7.88002 22.4452 7.35939C22.2333 6.83876 21.9187 6.3661 21.5203 5.96955C21.1219 5.573 20.6478 5.26068 20.1262 5.05117C19.6045 4.84166 19.0461 4.73925 18.4841 4.75004ZM18.4841 11.58C17.9676 11.6162 17.4523 11.4961 17.005 11.2354C16.5578 10.9748 16.1992 10.5856 15.9761 10.1185C15.7529 9.65137 15.6755 9.12792 15.7537 8.61619C15.832 8.10447 16.0624 7.62812 16.415 7.24908C16.7676 6.87004 17.2261 6.60584 17.7308 6.49082C18.2356 6.3758 18.7632 6.41528 19.2453 6.60413C19.7273 6.79298 20.1413 7.12246 20.4336 7.54975C20.7258 7.97704 20.8828 8.48236 20.8841 9.00004C20.9002 9.32806 20.8504 9.65598 20.7378 9.96447C20.6252 10.273 20.4519 10.5558 20.2282 10.7962C20.0045 11.0367 19.735 11.2299 19.4354 11.3645C19.1359 11.4992 18.8124 11.5724 18.4841 11.58ZM7.40407 6.06005V7.86005H11.7241C11.6563 8.70785 11.3039 9.50784 10.7241 10.13C10.2907 10.5716 9.76952 10.9172 9.19418 11.1446C8.61884 11.3719 8.00217 11.476 7.38407 11.45C6.11103 11.45 4.89013 10.9443 3.98996 10.0442C3.08978 9.14398 2.58407 7.92309 2.58407 6.65005C2.58407 5.37701 3.08978 4.15611 3.98996 3.25593C4.89013 2.35576 6.11103 1.85005 7.38407 1.85005C8.60452 1.8319 9.78297 2.29537 10.6641 3.14004L11.9341 1.87005C11.3381 1.28055 10.6304 0.815935 9.85253 0.503417C9.07467 0.190899 8.24226 0.0367647 7.40407 0.0500442C6.51507 0.0154463 5.62823 0.160672 4.79669 0.477016C3.96516 0.79336 3.20604 1.27431 2.56483 1.89106C1.92361 2.5078 1.4135 3.24764 1.06506 4.06624C0.716622 4.88485 0.537018 5.76537 0.537018 6.65504C0.537018 7.54472 0.716622 8.42524 1.06506 9.24385C1.4135 10.0625 1.92361 10.8023 2.56483 11.419C3.20604 12.0358 3.96516 12.5167 4.79669 12.8331C5.62823 13.1494 6.51507 13.2946 7.40407 13.26C8.25949 13.2942 9.11246 13.147 9.90697 12.8282C10.7015 12.5094 11.4196 12.0261 12.0141 11.41C13.0642 10.2565 13.6237 8.73923 13.5741 7.18005C13.5776 6.80477 13.5475 6.42993 13.4841 6.06005H7.40407ZM52.7141 7.46004C52.4533 6.69278 51.9656 6.02283 51.3156 5.53889C50.6656 5.05496 49.8839 4.77987 49.0741 4.75004C48.5271 4.74898 47.9857 4.86011 47.4833 5.07658C46.981 5.29305 46.5283 5.61025 46.1535 6.00858C45.7786 6.40691 45.4893 6.87789 45.3037 7.39243C45.118 7.90696 45.0399 8.45411 45.0741 9.00004C45.0655 9.9129 45.3525 10.804 45.8922 11.5403C46.4319 12.2766 47.1952 12.8185 48.0683 13.0852C48.9414 13.3518 49.8773 13.3289 50.7363 13.0198C51.5952 12.7106 52.3311 12.1319 52.8341 11.37L51.3841 10.37C51.1679 10.7303 50.8613 11.0278 50.4947 11.2331C50.1281 11.4383 49.7142 11.5441 49.2941 11.54C48.8606 11.5579 48.4319 11.4443 48.0643 11.2141C47.6966 10.9838 47.4072 10.6478 47.2341 10.25L52.9241 7.90005L52.7141 7.46004ZM46.9141 8.88005C46.8938 8.56942 46.9357 8.25788 47.0373 7.96366C47.139 7.66944 47.2983 7.39845 47.506 7.16657C47.7136 6.93469 47.9655 6.74657 48.2468 6.61323C48.528 6.47989 48.8331 6.40402 49.1441 6.39004C49.4663 6.37038 49.7871 6.44623 50.0664 6.60811C50.3457 6.76999 50.571 7.01068 50.7141 7.30004L46.9141 8.88005ZM42.2941 13H44.1641V0.500045H42.2941V13ZM39.2341 5.70005H39.1641C38.8847 5.3819 38.54 5.12785 38.1534 4.95526C37.7667 4.78267 37.3474 4.69561 36.9241 4.70005C35.8313 4.75304 34.8007 5.22447 34.046 6.01663C33.2914 6.80879 32.8704 7.86095 32.8704 8.95505C32.8704 10.0491 33.2914 11.1013 34.046 11.8935C34.8007 12.6856 35.8313 13.1571 36.9241 13.21C37.348 13.2185 37.7686 13.1333 38.1559 12.9605C38.5431 12.7876 38.8873 12.5314 39.1641 12.21H39.2341V12.82C39.2341 14.45 38.3641 15.32 36.9641 15.32C36.4964 15.3098 36.0423 15.1607 35.6595 14.8919C35.2767 14.623 34.9824 14.2465 34.8141 13.81L33.1941 14.48C33.4936 15.2323 34.0143 15.8759 34.6875 16.3259C35.3606 16.7758 36.1545 17.0109 36.9641 17C39.1541 17 40.9641 15.71 40.9641 12.57V5.00004H39.2341V5.70005ZM37.0841 11.58C36.4289 11.5392 35.8139 11.2501 35.3644 10.7717C34.9149 10.2933 34.6646 9.66151 34.6646 9.00505C34.6646 8.34858 34.9149 7.7168 35.3644 7.23838C35.8139 6.75997 36.4289 6.4709 37.0841 6.43005C37.4043 6.44386 37.7185 6.52196 38.0079 6.65968C38.2974 6.79741 38.5561 6.99194 38.7689 7.23172C38.9816 7.4715 39.1439 7.75162 39.2462 8.0554C39.3484 8.35919 39.3885 8.68044 39.3641 9.00004C39.3913 9.32074 39.3533 9.64363 39.2522 9.9492C39.1512 10.2548 38.9892 10.5367 38.776 10.7778C38.5629 11.019 38.3031 11.2144 38.0123 11.3523C37.7214 11.4902 37.4057 11.5677 37.0841 11.58ZM61.4741 0.500045H56.9941V13H58.8641V8.26004H61.4741C62.007 8.29833 62.5421 8.22642 63.0461 8.04877C63.55 7.87113 64.0119 7.59158 64.4031 7.22754C64.7942 6.8635 65.1061 6.42279 65.3194 5.93288C65.5327 5.44297 65.6428 4.91437 65.6428 4.38004C65.6428 3.84572 65.5327 3.31712 65.3194 2.82721C65.1061 2.3373 64.7942 1.89659 64.4031 1.53255C64.0119 1.16851 63.55 0.88896 63.0461 0.711318C62.5421 0.533676 62.007 0.461756 61.4741 0.500045ZM61.4741 6.50004H58.8641V2.24004H61.5141C61.7951 2.24004 62.0734 2.2954 62.333 2.40294C62.5927 2.51049 62.8286 2.66812 63.0273 2.86684C63.226 3.06555 63.3836 3.30147 63.4912 3.5611C63.5987 3.82074 63.6541 4.09902 63.6541 4.38004C63.6541 4.66107 63.5987 4.93935 63.4912 5.19899C63.3836 5.45863 63.226 5.69453 63.0273 5.89325C62.8286 6.09197 62.5927 6.2496 62.333 6.35715C62.0734 6.46469 61.7951 6.52005 61.5141 6.52005L61.4741 6.50004ZM73.0141 4.71004C72.3331 4.66805 71.6547 4.82659 71.0629 5.16606C70.471 5.50553 69.9917 6.01103 69.6841 6.62004L71.3341 7.31005C71.5008 7.00945 71.751 6.76356 72.0544 6.60207C72.3579 6.44059 72.7016 6.37042 73.0441 6.40005C73.2815 6.37232 73.522 6.39215 73.7516 6.45837C73.9813 6.52459 74.1954 6.63589 74.3816 6.78575C74.5678 6.93562 74.7222 7.12107 74.836 7.33127C74.9497 7.54147 75.0205 7.77221 75.0441 8.01004V8.13005C74.4427 7.81396 73.7734 7.64921 73.0941 7.65005C71.3141 7.65005 69.4941 8.65005 69.4941 10.47C69.5117 10.8569 69.6068 11.2362 69.7739 11.5856C69.941 11.9349 70.1766 12.2471 70.4667 12.5037C70.7568 12.7602 71.0955 12.9558 71.4627 13.0788C71.8298 13.2019 72.218 13.2499 72.6041 13.22C73.0733 13.246 73.541 13.1467 73.9593 12.9323C74.3775 12.7179 74.7312 12.3962 74.9841 12H75.0441V13H76.8441V8.19004C76.8441 6.00004 75.1841 4.73004 73.0541 4.73004L73.0141 4.71004ZM72.7841 11.56C72.1741 11.56 71.3241 11.25 71.3241 10.5C71.3241 9.50004 72.3841 9.16004 73.3241 9.16004C73.9181 9.14539 74.5052 9.29043 75.0241 9.58005C74.9613 10.1231 74.7038 10.625 74.2993 10.9928C73.8947 11.3605 73.3707 11.5691 72.8241 11.58L72.7841 11.56ZM83.4041 5.00004L81.2641 10.42H81.2041L78.9841 5.00004H76.9841L80.3141 12.58L78.4141 16.79H80.3641L85.4841 5.00004H83.4041ZM66.6041 13H68.4641V0.500045H66.6041V13Z" fill="white"/>
</svg>
