<svg width="32" height="32" viewBox="0 0 32 32" fill="none" xmlns="http://www.w3.org/2000/svg">
<path fill-rule="evenodd" clip-rule="evenodd" d="M0.799988 16.3482L0.801532 16.1879L0.804716 16.0275L0.809548 15.8671L0.81602 15.7067L0.824148 15.5463L0.833916 15.3859L0.84534 15.2256L0.858404 15.0653L0.873124 14.905L0.889492 14.7448L0.907508 14.5848L0.927164 14.4248L0.948476 14.265L0.971436 14.1053L0.996036 13.9458L1.02228 13.7865L1.05018 13.6273L1.07971 13.4684L1.11088 13.3097L1.1437 13.1512L1.17816 12.993L1.21424 12.835L1.25196 12.6774L1.29131 12.5201L1.33229 12.3631L1.37489 12.2064L1.41912 12.0501L1.46497 11.8942L1.51244 11.7386L1.56151 11.5835L1.6122 11.4288L1.66449 11.2745L1.71839 11.1206L1.77388 10.9673L1.83096 10.8144L1.88964 10.662L1.9499 10.5102L2.01174 10.3588L2.07516 10.2081L2.14014 10.0578L2.20669 9.90816L2.2748 9.75912L2.34447 9.61072L2.41568 9.46288L2.48844 9.31568L2.56274 9.1692L2.63856 9.02336L2.71592 8.87816L2.79478 8.73376L2.87516 8.59L2.95704 8.44696L3.04042 8.30472L3.12529 8.1632L3.21164 8.02248L3.29948 7.88256L3.38877 7.74344L3.47953 7.6052L3.57175 7.46768L3.6654 7.33112L3.7605 7.19536L3.85702 7.06048L3.95496 6.92656L4.05431 6.79344L4.15506 6.66136L4.25721 6.53016L4.36074 6.39987L4.46564 6.27059L4.57192 6.14229L4.67954 6.01498L4.78852 5.88866L4.89883 5.76338L5.01046 5.63913L5.12341 5.51592L5.23768 5.39378L5.35323 5.2727L5.47007 5.15272L5.58818 5.03383L5.70756 4.91606L5.82819 4.79941L5.95006 4.6839L6.07316 4.56954L6.19748 4.45634L6.32301 4.34433L6.44974 4.2335L6.57765 4.12386L6.70673 4.01544L6.83697 3.90825L6.96836 3.80229L7.10089 3.69758L7.23455 3.59412L7.36927 3.49194L7.50519 3.39104L7.64215 3.29144L7.78015 3.19314L7.91919 3.09616L8.05935 3.0005L8.20047 2.90618L8.34263 2.81321L8.48583 2.72159L8.63007 2.63135L8.77519 2.54249L8.92135 2.45501L9.06839 2.36894L9.21639 2.28427L9.36535 2.20102L9.51519 2.11921L9.66591 2.03882L9.81751 1.9599L9.96999 1.88242L10.1233 1.80641L10.2775 1.73187L10.4325 1.65882L10.5883 1.58726L10.7449 1.5172L10.9023 1.44865L11.0605 1.38162L11.2193 1.31611L11.3789 1.25214L11.5393 1.1897L11.7003 1.12882L11.862 1.06948L12.0244 1.01172L12.1874 0.95552L12.3511 0.900896L12.5153 0.847864L12.6802 0.796416L12.8457 0.746568L13.0118 0.698328L13.1784 0.651696L13.3456 0.606672L13.5133 0.563272L13.6814 0.521504L13.8501 0.481376L14.0193 0.442872L14.1889 0.406024L14.3589 0.370816L14.5293 0.337264L14.7002 0.305376L14.8715 0.275144L15.0432 0.246584L15.2152 0.219696L15.3875 0.19448L15.5601 0.170952L15.7331 0.149104L15.9064 0.128944L16.0799 0.110464L16.2537 0.093696L16.4277 0.078616L16.6019 0.0652321L16.7763 0.0535601L17.7142 0L17.7677 4.51894L17.7984 4.51858L17.9279 4.5184L18.0574 4.51949L18.1869 4.52185L18.3166 4.52549L18.4462 4.5304L18.5759 4.53658L18.7056 4.54404L18.8353 4.55278L18.9649 4.56279L19.0945 4.57409L19.2241 4.58666L19.3536 4.60052L19.4829 4.61565L19.6123 4.63206L19.7415 4.64974L19.8706 4.6687L19.9996 4.68895L20.1285 4.71047L20.2571 4.73326L20.3857 4.75734L20.514 4.78268L20.6421 4.8093L20.7701 4.83719L20.8977 4.86635L21.0252 4.89678L21.1525 4.92847L21.2794 4.96144L21.4061 4.99566L21.5325 5.03115L21.6586 5.0679L21.7844 5.1059L21.9098 5.14515L22.0349 5.18566L22.1597 5.22742L22.2841 5.27042L22.4081 5.31467L22.5318 5.36015L22.655 5.40688L22.7778 5.45483L22.9002 5.50402L23.0221 5.55444L23.1436 5.60607L23.2646 5.65893L23.3852 5.713L23.5052 5.76828L23.6247 5.82476L23.7437 5.88245L23.8622 5.94134L23.9801 6.00142L24.0975 6.06268L24.2143 6.12513L24.3305 6.18876L24.4461 6.25356L24.5612 6.31953L24.6756 6.38666L24.7893 6.45496L24.9025 6.5244L25.0149 6.59496L25.1267 6.66672L25.2378 6.73952L25.3482 6.81352L25.458 6.88864L25.5669 6.9648L25.6753 7.04216L25.7828 7.12056L25.8895 7.20008L25.9956 7.28072L26.1008 7.3624L26.2053 7.4452L26.3089 7.52896L26.4117 7.61384L26.5137 7.69984L26.6149 7.7868L26.7153 7.8748L26.8149 7.96384L26.9134 8.05392L27.0112 8.14504L27.1081 8.23712L27.2041 8.33016L27.2991 8.42424L27.3933 8.51928L27.4865 8.61536L27.5788 8.71232L27.6701 8.81024L27.7605 8.90912L27.8498 9.00896L27.9382 9.10968L28.0257 9.21136L28.1121 9.31392L28.1975 9.41736L28.2819 9.52176L28.3653 9.62696L28.4476 9.73304L28.5289 9.84L28.6091 9.94784L28.6882 10.0565L28.7663 10.166L28.8433 10.2763L28.9192 10.3874L28.994 10.4993L29.0677 10.612L29.1402 10.7255L29.2116 10.8398L29.2819 10.9547L29.351 11.0705L29.419 11.187L29.4858 11.3042L29.5515 11.4221L29.616 11.5407L29.6793 11.66L29.7413 11.78L29.8022 11.9006L29.8619 12.0219L29.9204 12.1439L29.9777 12.2665L30.0337 12.3897L30.0885 12.5135L30.142 12.6379L30.1942 12.763L30.2453 12.8885L30.295 13.0146L30.3435 13.1413L30.3907 13.2686L30.4366 13.3962L30.4813 13.5246L30.5246 13.6533L30.5667 13.7826L30.6074 13.9122L30.6469 14.0424L30.6849 14.173L30.7217 14.3041L30.7572 14.4356L30.7913 14.5675L30.8241 14.6998L30.8556 14.8325L30.8857 14.9655L30.9144 15.099L30.9418 15.2326L30.9678 15.3668L30.9925 15.5012L31.0158 15.6359L31.0377 15.7709L31.0583 15.9062L31.0775 16.0418L31.0953 16.1775L31.1117 16.3136L31.1267 16.4498L31.1403 16.5863L31.1525 16.723L31.1634 16.8598L31.1729 16.9969L31.1809 17.1341L31.1875 17.2714L31.1928 17.4089L31.1965 17.5464L31.199 17.6841L31.2 17.8218L31.1996 17.9597L31.1977 18.0976L31.1945 18.2356L31.1898 18.3735L31.1837 18.5115L31.1763 18.6495L31.1673 18.7875L31.157 18.9255L31.1453 19.0634L31.1321 19.2014L31.1175 19.3392L31.1014 19.4769L31.084 19.6146L31.0652 19.7521L31.0449 19.8895L31.0232 20.0268L31.0001 20.1639L30.9755 20.3009L30.9496 20.4377L30.9222 20.5743L30.8934 20.7107L30.8632 20.8469L30.8316 20.9829L30.7986 21.1186L30.7641 21.254L30.7283 21.3891L30.6911 21.524L30.6525 21.6586L30.6125 21.7928L30.571 21.9268L30.5281 22.0603L30.484 22.1936L30.4384 22.3264L30.3913 22.4589L30.343 22.591L30.2933 22.7226L30.2421 22.8538L30.1897 22.9846L30.1358 23.1149L30.0806 23.2447L30.0241 23.3742L29.9661 23.503L29.9069 23.6314L29.8462 23.7592L29.7843 23.8865L29.7209 24.0133L29.6564 24.1394L29.5904 24.2651L29.5232 24.3901L29.4545 24.5146L29.3847 24.6383L29.3135 24.7615L29.241 24.8841L29.1673 25.0059L29.0922 25.1272L29.0158 25.2477L28.9382 25.3675L28.8594 25.4866L28.7793 25.605L28.6979 25.7227L28.6153 25.8397L28.5314 25.9558L28.4463 26.0713L28.36 26.1859L28.2725 26.2998L28.1837 26.4127L28.0938 26.525L28.0027 26.6363L27.9104 26.7468L27.8169 26.8565L27.7222 26.9653L27.6264 27.0732L27.5294 27.1802L27.4313 27.2864L27.3321 27.3916L27.2317 27.4959L27.1303 27.5992L27.0277 27.7016L26.924 27.803L26.8193 27.9035L26.7134 28.003L26.6066 28.1015L26.4985 28.199L26.3895 28.2954L26.2795 28.3909L26.1684 28.4854L26.0563 28.5787L25.9432 28.671L25.8291 28.7622L25.714 28.8524L25.5979 28.9414L25.4809 29.0294L25.3629 29.1162L25.244 29.202L25.1241 29.2866L25.0033 29.3701L24.8816 29.4524L24.759 29.5335L24.6355 29.6135L24.5112 29.6924L24.386 29.77L24.2599 29.8465L24.1329 29.9217L24.0052 29.9958L23.8767 30.0686L23.7473 30.1401L23.6172 30.2105L23.4862 30.2795L23.3545 30.3474L23.2221 30.414L23.0889 30.4793L22.9549 30.5433L22.8203 30.6061L22.6849 30.6675L22.5489 30.7277L22.4122 30.7865L22.2749 30.844L22.1369 30.9002L21.9982 30.9551L21.8589 31.0086L21.719 31.0609L21.5785 31.1117L21.4374 31.1612L21.2958 31.2093L21.1537 31.2561L21.0109 31.3014L20.8676 31.3454L20.7238 31.3881L20.5796 31.4293L20.4348 31.4691L20.2896 31.5076L20.1438 31.5446L19.9977 31.5802L19.8512 31.6144L19.7041 31.6471L19.5568 31.6785L19.409 31.7084L19.2609 31.7369L19.1124 31.7639L18.9636 31.7894L18.8144 31.8136L18.6649 31.8363L18.5151 31.8575L18.3651 31.8773L18.2148 31.8956L18.0641 31.9124L17.9133 31.9278L17.7623 31.9417L17.6111 31.9541L17.4597 31.965L17.3081 31.9745L17.1562 31.9825L17.0043 31.989L16.8523 31.9939L16.7001 31.9974L16.5478 31.9994L16.3954 32L16.243 31.999L16.0905 31.9966L15.938 31.9926L15.7854 31.9871L15.6329 31.9802L15.4803 31.9718L15.3278 31.9618L15.1753 31.9503L15.0229 31.9374L14.8705 31.9229L14.7181 31.907L14.566 31.8895L14.4139 31.8706L14.2619 31.8501L14.1101 31.8281L13.9585 31.8046L13.807 31.7797L13.6557 31.7533L13.5046 31.7253L13.3538 31.6958L13.2032 31.665L13.0529 31.6325L12.9027 31.5986L12.7529 31.5632L12.6034 31.5263L12.4542 31.4879L12.3053 31.4481L12.1569 31.4068L12.0087 31.364L11.8609 31.3198L11.7135 31.274L11.5665 31.2268L11.42 31.1782L11.2738 31.128L11.1281 31.0764L10.9829 31.0234L10.8382 30.969L10.694 30.913L10.5503 30.8557L10.4071 30.7969L10.2645 30.7366L10.1224 30.675L9.98087 30.612L9.83991 30.5475L9.69959 30.4816L9.55991 30.4143L9.42087 30.3456L9.28239 30.2755L9.14463 30.2041L9.00759 30.1312L8.87111 30.057L8.73543 29.9814L8.60047 29.9045L8.46623 29.8262L8.33271 29.7465L8.19999 29.6655L8.06799 29.5831L7.93679 29.4995L7.80647 29.4145L7.67687 29.3282L7.54815 29.2406L7.42031 29.1517L7.29327 29.0615L7.16712 28.97L7.04185 28.8773L6.91748 28.7832L6.79404 28.6879L6.67151 28.5914L6.54992 28.4936L6.42928 28.3946L6.30961 28.2944L6.19092 28.193L6.07321 28.0903L5.95652 27.9864L5.84084 27.8814L5.72619 27.7752L5.61257 27.6678L5.50002 27.5593L5.38853 27.4495L5.27812 27.3387L5.1688 27.2268L5.06058 27.1137L4.95348 26.9995L4.8475 26.8842L4.74267 26.7678L4.63898 26.6504L4.53645 26.5319L4.4351 26.4123L4.33493 26.2918L4.23596 26.1701L4.1382 26.0474L4.04165 25.9238L3.94633 25.7991L3.85225 25.6734L3.75942 25.5468L3.66785 25.4192L3.57755 25.2906L3.48853 25.1612L3.4008 25.0308L3.31438 24.8994L3.22927 24.7673L3.14547 24.6342L3.063 24.5002L2.98188 24.3654L2.90211 24.2296L2.8237 24.0931L2.74665 23.9558L2.67098 23.8176L2.5967 23.6786L2.5238 23.5388L2.45232 23.3983L2.38224 23.257L2.3136 23.115L2.24637 22.9722L2.18058 22.8288L2.11624 22.6846L2.05334 22.5398L1.99191 22.3942L1.93195 22.248L1.87345 22.1011L1.81644 21.9536L1.76093 21.8055L1.70691 21.6568L1.65439 21.5075L1.60337 21.3577L1.55388 21.2072L1.50591 21.0562L1.45946 20.9047L1.41456 20.7527L1.37119 20.6002L1.32936 20.4471L1.28909 20.2937L1.25038 20.1398L1.21323 19.9854L1.17765 19.8306L1.14364 19.6753L1.11121 19.5197L1.08036 19.3637L1.0511 19.2074L1.02343 19.0506L0.997356 18.8936L0.972876 18.7362L0.950004 18.5786L0.92874 18.4206L0.909092 18.2623L0.891052 18.1038L0.874628 17.9451L0.859828 17.7862L0.846652 17.627L0.8351 17.4677L0.82518 17.3082L0.816892 17.1485L0.810236 16.9886L0.805212 16.8287L0.801828 16.6686L0.800092 16.5085L0.799988 16.3482ZM16.3025 4.61359L16.266 1.53343L16.2313 1.53678L16.0723 1.5537L15.9137 1.57217L15.7551 1.5922L15.5972 1.61372L15.4394 1.63681L15.2818 1.66144L15.1247 1.68758L14.9677 1.71529L14.8116 1.74443L14.6552 1.77521L14.4999 1.80737L14.3444 1.84115L14.1897 1.87637L14.0351 1.91315L13.8813 1.95134L13.7278 1.99107L13.5748 2.03228L13.4222 2.07498L13.2704 2.1191L13.1188 2.16475L12.968 2.21182L12.8176 2.26038L12.668 2.31028L12.5186 2.36176L12.3701 2.41462L12.2222 2.46887L12.0748 2.52461L11.9281 2.5817L11.7823 2.64018L11.6369 2.70015L11.4921 2.76149L11.3481 2.82422L11.2049 2.88828L11.0625 2.95373L10.9208 3.0205L10.7796 3.08874L10.6394 3.15822L10.5 3.22906L10.3613 3.30124L10.2235 3.37475L10.0866 3.44952L9.95031 3.52567L9.81487 3.60314L9.68063 3.68172L9.54679 3.76183L9.41423 3.84301L9.28255 3.92545L9.15151 4.00924L9.02151 4.09426L8.89247 4.18051L8.76463 4.26778L8.63727 4.3566L8.51119 4.44637L8.38607 4.53738L8.26183 4.62963L8.13871 4.72298L8.01671 4.81746L7.89543 4.91326L7.77551 5.00997L7.65647 5.10795L7.53855 5.207L7.42167 5.3072L7.30599 5.40836L7.19117 5.5108L7.07767 5.61415L6.96513 5.7187L6.8539 5.82412L6.74368 5.93069L6.63469 6.03822L6.52681 6.14681L6.41998 6.25652L6.31455 6.36698L6.2103 6.4784L6.10698 6.59112L6.00509 6.70456L5.90445 6.8188L5.80484 6.93424L5.70668 7.0504L5.60961 7.1676L5.51384 7.2856L5.41933 7.40456L5.32605 7.52432L5.23415 7.64488L5.14344 7.76632L5.05399 7.88872L4.96597 8.01168L4.87913 8.13568L4.79368 8.26032L4.70954 8.38576L4.62667 8.512L4.5452 8.63896L4.46506 8.76656L4.38627 8.89496L4.30888 9.024L4.23277 9.15384L4.15803 9.2844L4.08476 9.41544L4.0128 9.5472L3.94221 9.67968L3.87306 9.81272L3.80527 9.9464L3.73893 10.0806L3.67398 10.2154L3.61046 10.3507L3.54832 10.4867L3.48766 10.6231L3.42837 10.7602L3.37053 10.8977L3.31417 11.0356L3.25922 11.1741L3.20571 11.313L3.15367 11.4524L3.10307 11.5922L3.05396 11.7324L3.00628 11.8731L2.96007 12.0142L2.91534 12.1556L2.87209 12.2973L2.83028 12.4395L2.78999 12.5819L2.75116 12.7247L2.71381 12.8678L2.67795 13.0112L2.64358 13.1548L2.6107 13.2987L2.57931 13.4429L2.54941 13.5873L2.52101 13.7318L2.4941 13.8766L2.46869 14.0216L2.44478 14.1668L2.42237 14.3121L2.40146 14.4575L2.38205 14.6031L2.36414 14.7488L2.34773 14.8946L2.33283 15.0405L2.31943 15.1864L2.30752 15.3323L2.29712 15.4784L2.28823 15.6245L2.28083 15.7705L2.27493 15.9166L2.27053 16.0626L2.26764 16.2086L2.26623 16.3545L2.26632 16.5004L2.26791 16.6462L2.27099 16.7919L2.27556 16.9375L2.28161 17.083L2.28916 17.2283L2.29819 17.3734L2.3087 17.5185L2.32069 17.6633L2.33416 17.8079L2.3491 17.9524L2.36552 18.0966L2.3834 18.2406L2.40274 18.3842L2.42355 18.5277L2.44582 18.6709L2.46953 18.8137L2.49471 18.9562L2.52132 19.0985L2.54938 19.2403L2.57888 19.3819L2.6098 19.523L2.64216 19.6638L2.67595 19.8042L2.71115 19.9442L2.74777 20.0838L2.78579 20.2229L2.82523 20.3616L2.86606 20.4998L2.90828 20.6376L2.9519 20.7749L2.99688 20.9116L3.04325 21.0478L3.091 21.1835L3.1401 21.3187L3.19055 21.4533L3.24238 21.5874L3.29552 21.7208L3.35001 21.8537L3.40584 21.9859L3.46299 22.1175L3.52146 22.2486L3.58124 22.379L3.64232 22.5086L3.70468 22.6377L3.76835 22.766L3.83328 22.8937L3.8995 23.0206L3.96697 23.1469L4.03571 23.2724L4.10568 23.3971L4.1769 23.5211L4.24935 23.6444L4.32303 23.7668L4.39788 23.8885L4.474 24.0094L4.55127 24.1294L4.62975 24.2486L4.7094 24.367L4.79021 24.4846L4.87218 24.6013L4.95532 24.7171L5.03958 24.8321L5.125 24.9462L5.21149 25.0593L5.29915 25.1715L5.38785 25.2828L5.47768 25.3932L5.5686 25.5027L5.66055 25.6112L5.75359 25.7187L5.84766 25.8253L5.9428 25.9309L6.03895 26.0354L6.13609 26.139L6.23427 26.2416L6.33343 26.3432L6.4336 26.4438L6.53472 26.5432L6.63684 26.6417L6.73986 26.739L6.84384 26.8354L6.94877 26.9307L7.0546 27.0249L7.16128 27.1179L7.26895 27.2099L7.37751 27.3008L7.48679 27.3906L7.59711 27.4793L7.70815 27.5667L7.82007 27.6531L7.93279 27.7384L8.04639 27.8225L8.16071 27.9054L8.27583 27.9871L8.39167 28.0677L8.50839 28.1471L8.62575 28.2253L8.74399 28.3023L8.86279 28.3782L8.98239 28.4527L9.10271 28.5262L9.22359 28.5983L9.34527 28.6693L9.46751 28.739L9.59047 28.8074L9.71399 28.8746L9.83823 28.9406L9.96295 29.0054L10.0883 29.0689L10.2143 29.131L10.3409 29.192L10.4679 29.2517L10.5955 29.3101L10.7236 29.3671L10.8523 29.423L10.9814 29.4774L11.1111 29.5307L11.2412 29.5826L11.3717 29.6332L11.5028 29.6826L11.6341 29.7306L11.766 29.7772L11.8983 29.8226L12.0309 29.8666L12.164 29.9094L12.2973 29.9507L12.4311 29.9908L12.5651 30.0295L12.6995 30.0669L12.8342 30.103L12.9692 30.1377L13.1045 30.171L13.2399 30.203L13.3757 30.2338L13.5117 30.263L13.6479 30.291L13.7844 30.3177L13.921 30.343L14.0578 30.3669L14.1948 30.3894L14.3319 30.4106L14.4692 30.4305L14.6066 30.449L14.7441 30.4662L14.8817 30.4819L15.0193 30.4963L15.1571 30.5094L15.2949 30.5211L15.4328 30.5315L15.5706 30.5405L15.7085 30.5482L15.8464 30.5544L15.9842 30.5594L16.1221 30.563L16.2599 30.5651L16.3976 30.566L16.5353 30.5655L16.6729 30.5637L16.8103 30.5606L16.9477 30.556L17.0849 30.5502L17.2221 30.543L17.3589 30.5344L17.4957 30.5246L17.6324 30.5134L17.7688 30.5008L17.9049 30.4869L18.0409 30.4717L18.1766 30.4552L18.3121 30.4374L18.4473 30.4182L18.5823 30.3977L18.7169 30.3759L18.8513 30.3528L18.9854 30.3284L19.1191 30.3027L19.2525 30.2758L19.3855 30.2474L19.5181 30.2179L19.6504 30.187L19.7823 30.1549L19.9137 30.1215L20.0448 30.0868L20.1753 30.0509L20.3056 30.0137L20.4353 29.9752L20.5645 29.9355L20.6933 29.8946L20.8216 29.8524L20.9493 29.809L21.0765 29.7644L21.2033 29.7185L21.3294 29.6714L21.455 29.6231L21.5801 29.5737L21.7045 29.523L21.8283 29.4711L21.9516 29.4181L22.0742 29.3638L22.1961 29.3085L22.3176 29.2519L22.4383 29.1942L22.5583 29.1354L22.6777 29.0753L22.7964 29.0142L22.9144 28.9519L23.0317 28.8885L23.1482 28.824L23.2641 28.7584L23.3791 28.6918L23.4936 28.6239L23.607 28.5551L23.72 28.4851L23.8319 28.4142L23.9431 28.3421L24.0536 28.269L24.1633 28.1947L24.2719 28.1197L24.3798 28.0434L24.4869 27.9662L24.5932 27.8881L24.6986 27.8088L24.803 27.7287L24.9068 27.6474L25.0094 27.5654L25.1112 27.4823L25.2122 27.3982L25.3122 27.3132L25.4112 27.2274L25.5093 27.1405L25.6065 27.0528L25.7027 26.9642L25.798 26.8746L25.8921 26.7843L25.9855 26.693L26.0778 26.6008L26.1691 26.5078L26.2594 26.414L26.3486 26.3194L26.4368 26.2241L26.5241 26.1276L26.6102 26.0306L26.6954 25.9327L26.7794 25.8342L26.8625 25.7347L26.9444 25.6346L27.0252 25.5338L27.105 25.4321L27.1837 25.3298L27.2613 25.2267L27.3377 25.123L27.4132 25.0186L27.4876 24.9134L27.5605 24.8078L27.6326 24.7013L27.7034 24.5943L27.7732 24.4866L27.8419 24.3782L27.9093 24.2694L27.9755 24.1599L28.0407 24.0496L28.1045 23.9391L28.1673 23.8278L28.229 23.716L28.2893 23.6038L28.3486 23.4909L28.4067 23.3774L28.4634 23.2639L28.5191 23.1494L28.5736 23.0346L28.6268 22.9194L28.6788 22.8037L28.7296 22.6875L28.7791 22.571L28.8275 22.4539L28.8746 22.3365L28.9205 22.219L28.9651 22.1006L29.0085 21.9822L29.0507 21.8632L29.0917 21.744L29.1313 21.6244L29.1697 21.5048L29.2069 21.3843L29.2428 21.264L29.2774 21.1433L29.3109 21.0224L29.343 20.901L29.3738 20.7797L29.4035 20.6579L29.4318 20.5359L29.4589 20.4138L29.4848 20.2914L29.5093 20.1691L29.5325 20.0462L29.5545 19.9237L29.5753 19.8006L29.5947 19.6775L29.6129 19.5544L29.6298 19.431L29.6454 19.3078L29.6598 19.1841L29.6729 19.0608L29.6847 18.9371L29.6952 18.8137L29.7045 18.6898L29.7125 18.5665L29.7192 18.4427L29.7246 18.3189L29.7288 18.1954L29.7317 18.0721L29.7333 17.9483L29.7337 17.8248L29.7329 17.7014L29.7307 17.5782L29.7273 17.4549L29.7225 17.3321L29.7166 17.2088L29.7094 17.0861L29.7009 16.9634L29.6913 16.841L29.6803 16.7185L29.6681 16.5965L29.6547 16.4744L29.64 16.3527L29.6241 16.2311L29.6069 16.1099L29.5885 15.9886L29.5689 15.8679L29.5481 15.7476L29.526 15.6272L29.5026 15.5072L29.4781 15.3877L29.4524 15.2681L29.4256 15.1494L29.3973 15.0305L29.3681 14.9124L29.3375 14.7942L29.3058 14.6768L29.2729 14.5596L29.2389 14.4426L29.2037 14.3264L29.1673 14.2106L29.1296 14.0948L29.0909 13.9799L29.0509 13.8651L29.01 13.751L28.9677 13.6372L28.9245 13.5242L28.8799 13.4113L28.8343 13.299L28.7877 13.1875L28.7399 13.0765L28.6908 12.9656L28.6409 12.8558L28.5897 12.746L28.5375 12.6373L28.4842 12.529L28.4297 12.421L28.3744 12.314L28.3178 12.2074L28.2601 12.1014L28.2017 11.9963L28.142 11.8915L28.0813 11.7876L28.0195 11.6842L27.9569 11.5818L27.893 11.4796L27.8284 11.3784L27.7625 11.2777L27.6958 11.1778L27.6282 11.0789L27.5594 10.9803L27.4897 10.8826L27.4192 10.7857L27.3476 10.6896L27.2751 10.5941L27.2017 10.4995L27.1273 10.4056L27.0521 10.3126L26.9759 10.2203L26.8988 10.1288L26.8208 10.0382L26.742 9.94832L26.6624 9.85936L26.5818 9.7712L26.5002 9.68376L26.4182 9.59752L26.3349 9.51176L26.2511 9.4272L26.1664 9.34328L26.0809 9.2604L25.9944 9.17816L25.9075 9.0972L25.8195 9.01688L25.7308 8.93752L25.6416 8.8592L25.5515 8.78176L25.4604 8.70504L25.3688 8.62944L25.2765 8.5548L25.1835 8.48112L25.0898 8.40832L24.9955 8.33672L24.9002 8.26568L24.8046 8.196L24.7082 8.1272L24.6111 8.05928L24.5136 7.99248L24.415 7.92648L24.3165 7.86184L24.2168 7.79792L24.1168 7.73512L24.016 7.67328L23.9148 7.61248L23.813 7.5528L23.7109 7.49424L23.6077 7.4364L23.5046 7.37992L23.4006 7.32432L23.2962 7.26984L23.1914 7.21648L23.086 7.16408L22.9801 7.11272L22.8739 7.06256L22.7671 7.01336L22.6601 6.96536L22.5525 6.91832L22.441 6.87096L22.3362 6.82768L22.2272 6.78384L22.1183 6.74136L22.0085 6.69968L21.8988 6.65936L21.7885 6.62L21.6781 6.58184L21.5671 6.54464L21.4561 6.50872L21.3445 6.47384L21.2328 6.44008L21.1209 6.40752L21.0086 6.37597L20.8959 6.3455L20.7833 6.31628L20.6705 6.28817L20.557 6.26109L20.4439 6.23526L20.3302 6.21046L20.2165 6.18686L20.1025 6.16433L19.9885 6.14298L19.8743 6.12274L19.7601 6.10368L19.6454 6.08568L19.531 6.06887L19.4164 6.05318L19.3016 6.03861L19.1868 6.02518L19.072 6.01291L18.9571 6.00176L18.8421 5.99174L18.7271 5.98286L18.612 5.9751L18.4972 5.96849L18.3823 5.96301L18.267 5.95865L18.1524 5.95543L18.0375 5.95334L17.9227 5.95238L17.8077 5.95254L17.7847 5.9528L17.8209 9.01056L17.8861 9.01024L17.9701 9.01072L18.054 9.012L18.138 9.01416L18.2221 9.01712L18.3061 9.02096L18.3902 9.0256L18.4744 9.03104L18.5585 9.03736L18.6427 9.04448L18.7269 9.05248L18.8109 9.06128L18.8951 9.07096L18.9792 9.08144L19.0632 9.09272L19.1472 9.10496L19.2311 9.11792L19.3149 9.13176L19.3988 9.14648L19.4825 9.162L19.5661 9.1784L19.6496 9.1956L19.733 9.2136L19.8163 9.23248L19.8994 9.25224L19.9825 9.2728L20.0653 9.29416L20.148 9.3164L20.2305 9.33944L20.3129 9.36336L20.3952 9.38808L20.4772 9.4136L20.5589 9.44L20.6405 9.4672L20.722 9.49528L20.8031 9.52416L20.8841 9.55384L20.9647 9.58432L21.0452 9.61568L21.1253 9.64784L21.2053 9.6808L21.2849 9.71464L21.3642 9.7492L21.4433 9.78464L21.522 9.8208L21.6004 9.85784L21.6785 9.89568L21.7563 9.93432L21.8337 9.97376L21.9109 10.014L21.9876 10.055L22.064 10.0968L22.14 10.1394L22.2156 10.1827L22.2909 10.2269L22.3657 10.2718L22.4401 10.3175L22.5141 10.364L22.5877 10.4113L22.6609 10.4593L22.7337 10.508L22.806 10.5575L22.8778 10.6078L22.9492 10.6588L23.0201 10.7106L23.0905 10.7631L23.1605 10.8163L23.2298 10.8703L23.2988 10.925L23.3672 10.9804L23.4351 11.0366L23.5025 11.0934L23.5693 11.151L23.6357 11.2092L23.7014 11.2682L23.7666 11.3278L23.8312 11.3882L23.8953 11.4492L23.9587 11.5109L24.0216 11.5733L24.0839 11.6363L24.1456 11.7001L24.2067 11.7644L24.2671 11.8294L24.3269 11.8951L24.3861 11.9614L24.4447 12.0283L24.5026 12.0959L24.5599 12.1641L24.6165 12.2329L24.6725 12.3023L24.7277 12.3723L24.7823 12.443L24.8362 12.5142L24.8894 12.586L24.9419 12.6583L24.9937 12.7313L25.0448 12.8048L25.0952 12.8789L25.1448 12.9535L25.1937 13.0286L25.2418 13.1044L25.2893 13.1806L25.336 13.2574L25.3819 13.3346L25.427 13.4125L25.4714 13.4907L25.515 13.5695L25.5578 13.6488L25.5999 13.7286L25.6412 13.8088L25.6816 13.8895L25.7213 13.9707L25.7601 14.0523L25.7981 14.1343L25.8353 14.2169L25.8717 14.2998L25.9073 14.3831L25.9421 14.4669L25.976 14.551L26.009 14.6356L26.0412 14.7205L26.0725 14.8058L26.103 14.8915L26.1327 14.9776L26.1615 15.064L26.1893 15.1508L26.2164 15.2378L26.2425 15.3253L26.2678 15.413L26.2922 15.5011L26.3157 15.5895L26.3383 15.6782L26.36 15.7671L26.3808 15.8563L26.4007 15.9458L26.4197 16.0356L26.4377 16.1256L26.4549 16.2158L26.4711 16.3064L26.4865 16.3971L26.5009 16.488L26.5143 16.5792L26.5269 16.6705L26.5385 16.762L26.5492 16.8538L26.5589 16.9457L26.5677 17.0377L26.5756 17.1299L26.5825 17.2222L26.5885 17.3147L26.5934 17.4073L26.5975 17.5L26.6006 17.5929L26.6028 17.6858L26.604 17.7788L26.6042 17.8719L26.6035 17.965L26.6018 18.0582L26.5992 18.1515L26.5956 18.2449L26.591 18.3382L26.5855 18.4315L26.579 18.525L26.5716 18.6183L26.5631 18.7117L26.5537 18.805L26.5433 18.8983L26.5321 18.9917L26.5197 19.0849L26.5065 19.1781L26.4922 19.2712L26.477 19.3642L26.4609 19.4572L26.4437 19.5501L26.4256 19.6429L26.4065 19.7355L26.3864 19.8281L26.3654 19.9205L26.3434 20.0127L26.3205 20.1048L26.2965 20.1968L26.2717 20.2886L26.2458 20.3802L26.219 20.4715L26.1913 20.5627L26.1625 20.6538L26.1328 20.7446L26.1021 20.835L26.0705 20.9254L26.0381 21.0154L26.0045 21.1052L25.9701 21.1947L25.9347 21.284L25.8984 21.373L25.8611 21.4617L25.8229 21.55L25.7837 21.6381L25.7437 21.7258L25.7026 21.8132L25.6607 21.9002L25.6178 21.987L25.574 22.0733L25.5293 22.1593L25.4837 22.2448L25.4371 22.33L25.3897 22.4148L25.3413 22.4992L25.2921 22.5831L25.2419 22.6667L25.1909 22.7498L25.1389 22.8325L25.0861 22.9146L25.0324 22.9964L24.9777 23.0776L24.9223 23.1584L24.866 23.2387L24.8088 23.3185L24.7507 23.3978L24.6918 23.4766L24.6321 23.5548L24.5714 23.6325L24.51 23.7096L24.4477 23.7862L24.3845 23.8622L24.3206 23.9378L24.2558 24.0126L24.1902 24.087L24.1238 24.1606L24.0566 24.2338L23.9886 24.3062L23.9199 24.3782L23.8503 24.4494L23.78 24.52L23.7088 24.5899L23.6369 24.6593L23.5642 24.7279L23.4909 24.7958L23.4167 24.8632L23.3417 24.9298L23.2661 24.9957L23.1897 25.061L23.1127 25.1254L23.0349 25.1893L22.9564 25.2523L22.8771 25.3146L22.7972 25.3762L22.7166 25.4371L22.6353 25.4972L22.5533 25.5566L22.4708 25.6152L22.3875 25.673L22.3036 25.73L22.2189 25.7862L22.1337 25.8417L22.0479 25.8963L21.9615 25.9502L21.8744 26.0031L21.7868 26.0554L21.6985 26.1067L21.6097 26.1572L21.5202 26.2069L21.4302 26.2558L21.3397 26.3038L21.2485 26.3509L21.1569 26.3971L21.0647 26.4425L20.972 26.487L20.8787 26.5306L20.7849 26.5734L20.6907 26.6152L20.596 26.6562L20.5007 26.6962L20.405 26.7353L20.3089 26.7735L20.2122 26.8108L20.1152 26.8472L20.0177 26.8826L19.9197 26.9171L19.8213 26.9506L19.7226 26.9833L19.6234 27.0149L19.5239 27.0456L19.424 27.0754L19.3237 27.1041L19.223 27.1319L19.122 27.1587L19.0206 27.1846L18.9189 27.2094L18.8169 27.2334L18.7145 27.2562L18.612 27.2782L18.509 27.299L18.4058 27.319L18.3024 27.3379L18.1986 27.3558L18.0946 27.3727L17.9905 27.3886L17.886 27.4034L17.7813 27.4173L17.6764 27.4302L17.5713 27.4419L17.4661 27.4527L17.3606 27.4625L17.255 27.4712L17.1493 27.4789L17.0433 27.4855L16.9373 27.4911L16.8311 27.4957L16.7248 27.4992L16.6184 27.5017L16.5119 27.5031L16.4053 27.5035L16.2986 27.5029L16.192 27.5011L16.0852 27.4984L15.9784 27.4946L15.8716 27.4897L15.7647 27.4838L15.6579 27.4768L15.551 27.4688L15.4442 27.4597L15.3374 27.4495L15.2306 27.4383L15.1239 27.4261L15.0173 27.4128L14.9106 27.3984L14.8041 27.383L14.6977 27.3665L14.5914 27.349L14.4852 27.3303L14.3791 27.3107L14.2732 27.29L14.1674 27.2682L14.0617 27.2454L13.9563 27.2215L13.851 27.1966L13.7459 27.1706L13.641 27.1435L13.5363 27.1154L13.4318 27.0863L13.3277 27.0562L13.2237 27.025L13.1199 26.9927L13.0165 26.9594L12.9133 26.925L12.8104 26.8897L12.7078 26.8533L12.6056 26.8158L12.5036 26.7774L12.402 26.7378L12.3007 26.6974L12.1997 26.6558L12.0992 26.6132L11.999 26.5697L11.8993 26.525L11.7998 26.4794L11.7009 26.4329L11.6023 26.3853L11.5041 26.3366L11.4064 26.287L11.3092 26.2365L11.2124 26.1849L11.1161 26.1323L11.0202 26.0788L10.9249 26.0242L10.83 25.9688L10.7357 25.9123L10.6418 25.8549L10.5485 25.7966L10.4558 25.7372L10.3637 25.677L10.2721 25.6157L10.181 25.5535L10.0905 25.4905L10.0007 25.4265L9.91143 25.3615L9.82279 25.2957L9.73471 25.2289L9.64735 25.1612L9.56063 25.0926L9.47455 25.0231L9.38911 24.9528L9.30431 24.8815L9.22023 24.8094L9.13687 24.7364L9.05415 24.6626L8.97215 24.5878L8.89095 24.5123L8.81039 24.4359L8.73055 24.3586L8.65151 24.2806L8.57327 24.2017L8.49575 24.1219L8.41895 24.0414L8.34295 23.9601L8.26783 23.878L8.19343 23.795L8.11983 23.7114L8.04711 23.6269L7.97511 23.5417L7.90407 23.4557L7.83375 23.3689L7.76439 23.2814L7.69583 23.1932L7.62815 23.1042L7.56135 23.0146L7.49535 22.9242L7.43031 22.8331L7.36623 22.7414L7.30295 22.6489L7.24063 22.5558L7.17924 22.462L7.11876 22.3675L7.05922 22.2724L7.00063 22.1766L6.94298 22.0802L6.88629 21.9833L6.83056 21.8856L6.7758 21.7874L6.72203 21.6886L6.66924 21.5892L6.61743 21.4892L6.56662 21.3886L6.51682 21.2875L6.46803 21.1858L6.42025 21.0837L6.3735 20.9809L6.32777 20.8777L6.28308 20.7739L6.23944 20.6696L6.19683 20.5649L6.15528 20.4597L6.11479 20.3539L6.07536 20.2478L6.03699 20.1412L5.9997 20.0341L5.96349 19.9266L5.92836 19.8187L5.89432 19.7104L5.86138 19.6018L5.82953 19.4926L5.79879 19.3832L5.76915 19.2734L5.74063 19.1631L5.71322 19.0526L5.68692 18.9418L5.66176 18.8306L5.63772 18.719L5.61482 18.6073L5.59305 18.4952L5.57242 18.3828L5.55293 18.2702L5.5346 18.1573L5.5174 18.0442L5.50136 17.9308L5.48648 17.8172L5.47276 17.7034L5.4602 17.5894L5.4488 17.4752L5.43857 17.3608L5.42952 17.2462L5.42163 17.1316L5.41491 17.0167L5.40937 16.9018L5.40501 16.7867L5.40184 16.6715L5.39984 16.5562L5.39902 16.4408L5.3994 16.3254L5.40095 16.2098L5.4037 16.0943L5.40763 15.9787L5.41276 15.863L5.41908 15.7474L5.42658 15.6318L5.43528 15.5162L5.44517 15.4005L5.45626 15.285L5.46855 15.1694L5.48202 15.0539L5.49669 14.9385L5.51256 14.8231L5.52961 14.7078L5.54787 14.5927L5.56731 14.4777L5.58795 14.3628L5.60978 14.248L5.6328 14.1334L5.65701 14.019L5.68242 13.9046L5.70901 13.7906L5.73679 13.6766L5.76575 13.563L5.7959 13.4495L5.82723 13.3362L5.85974 13.2233L5.89344 13.1106L5.9283 12.9981L5.96435 12.8858L6.00156 12.774L6.03995 12.6624L6.07951 12.5511L6.12023 12.4402L6.16211 12.3295L6.20515 12.2193L6.24935 12.1094L6.2947 11.9998L6.3412 11.8907L6.38885 11.7819L6.43765 11.6736L6.48758 11.5657L6.53865 11.4582L6.59085 11.3511L6.64419 11.2446L6.69864 11.1384L6.75422 11.0328L6.81091 10.9276L6.86872 10.823L6.92763 10.7188L6.98764 10.6151L7.04875 10.5121L7.11096 10.4095L7.17424 10.3075L7.23863 10.2061L7.30407 10.1052L7.37063 10.005L7.43815 9.90528L7.50687 9.80624L7.57655 9.70776L7.64727 9.60992L7.71911 9.5128L7.79191 9.41624L7.86583 9.3204L7.94071 9.2252L8.01663 9.13072L8.09351 9.03696L8.17143 8.94384L8.25039 8.85144L8.33031 8.75976L8.41119 8.66888L8.49311 8.57872L8.57591 8.48928L8.65975 8.40064L8.74455 8.31272L8.83023 8.22568L8.91687 8.13936L9.00447 8.05384L9.09303 7.9692L9.18247 7.88528L9.27279 7.80232L9.36407 7.72008L9.45623 7.6388L9.54919 7.55832L9.64311 7.47872L9.73791 7.4L9.83351 7.32216L9.92999 7.2452L10.0273 7.1692L10.1255 7.09408L10.2245 7.01992L10.3243 6.94664L10.4249 6.87432L10.5262 6.80296L10.6285 6.73256L10.7314 6.66312L10.8351 6.59472L10.9397 6.5272L11.0449 6.46072L11.1509 6.39523L11.2576 6.33074L11.365 6.26727L11.4731 6.20482L11.582 6.1434L11.6915 6.08301L11.8017 6.02367L11.9125 5.96538L12.0241 5.90815L12.1362 5.85198L12.249 5.79689L12.3625 5.74287L12.4765 5.68994L12.5912 5.6381L12.7065 5.58736L12.8223 5.53773L12.9387 5.48921L13.0557 5.4418L13.1731 5.39552L13.2912 5.35037L13.4097 5.30635L13.5289 5.26348L13.6485 5.22175L13.7685 5.18118L13.8891 5.14176L14.0101 5.10351L14.1316 5.06642L14.2535 5.03051L14.3759 4.99578L14.4986 4.96223L14.6218 4.92987L14.7454 4.8987L14.8694 4.86874L14.9937 4.83998L15.1185 4.81241L15.2435 4.78606L15.3689 4.76092L15.4946 4.73701L15.6206 4.71431L15.7469 4.69284L15.8736 4.6726L16.0005 4.65359L16.1276 4.63582L16.2549 4.61929L16.3025 4.61359ZM16.3562 9.14888L16.3196 6.05751L16.2152 6.0721L16.1029 6.08893L15.9906 6.10687L15.879 6.12584L15.7673 6.14597L15.6561 6.16713L15.5451 6.18938L15.4345 6.21266L15.3242 6.23706L15.2141 6.26253L15.1044 6.28905L14.9951 6.31662L14.8859 6.34529L14.781 6.37392L14.6693 6.40568L14.5613 6.43744L14.4539 6.47024L14.347 6.504L14.2404 6.53888L14.1341 6.5748L14.0284 6.61168L13.9232 6.64952L13.8184 6.68848L13.7141 6.72832L13.6101 6.76928L13.507 6.81112L13.4039 6.85408L13.3016 6.89792L13.1997 6.94272L13.0986 6.98848L12.9977 7.03528L12.8974 7.08304L12.798 7.1316L12.6987 7.18128L12.6005 7.23176L12.5024 7.28336L12.4053 7.3356L12.3083 7.38912L12.2123 7.4432L12.1169 7.49832L12.0221 7.5544L11.9279 7.61128L11.8342 7.6692L11.7415 7.72776L11.6492 7.78736L11.5577 7.84776L11.4669 7.90896L11.3768 7.97112L11.2872 8.03416L11.1986 8.09776L11.1105 8.16248L11.0232 8.22792L10.9366 8.29416L10.8509 8.36112L10.7657 8.42904L10.6814 8.4976L10.5979 8.56696L10.515 8.63728L10.4332 8.70808L10.3519 8.77984L10.2714 8.85232L10.1918 8.92544L10.1131 8.99928L10.0349 9.074L9.95791 9.1492L9.88159 9.2252L9.80599 9.302L9.73135 9.37936L9.65751 9.45752L9.58455 9.53624L9.51247 9.6156L9.44119 9.69568L9.37071 9.77648L9.30143 9.85768L9.23279 9.93968L9.16503 10.0223L9.09823 10.1054L9.03239 10.1891L8.96727 10.2736L8.90319 10.3585L8.83999 10.444L8.77775 10.5301L8.71639 10.6167L8.65607 10.7038L8.59663 10.7914L8.53807 10.8797L8.48047 10.9684L8.42391 11.0575L8.36831 11.1472L8.31359 11.2375L8.25983 11.3281L8.20711 11.4192L8.15527 11.5108L8.10455 11.6026L8.05471 11.6951L8.00575 11.7881L7.95799 11.8812L7.91111 11.975L7.86527 12.069L7.82039 12.1634L7.77655 12.2582L7.73367 12.3534L7.69183 12.4489L7.65095 12.5447L7.61119 12.6409L7.57239 12.7374L7.53455 12.8342L7.49775 12.9314L7.46207 13.0287L7.42727 13.1265L7.39367 13.2243L7.36095 13.3226L7.32935 13.421L7.29871 13.5198L7.26919 13.6186L7.24063 13.7178L7.21319 13.817L7.18672 13.9166L7.16131 14.0163L7.13695 14.1162L7.11364 14.2163L7.09136 14.3165L7.07012 14.4169L7.04995 14.5174L7.0308 14.6179L7.01271 14.7187L6.99568 14.8195L6.97967 14.9205L6.96473 15.0214L6.95082 15.1225L6.93797 15.2236L6.92616 15.3248L6.9154 15.426L6.90569 15.5273L6.89703 15.6286L6.88941 15.7298L6.88284 15.8311L6.8773 15.9324L6.87281 16.0336L6.86937 16.1348L6.86696 16.2359L6.8656 16.337L6.86528 16.4382L6.86599 16.5391L6.86774 16.64L6.87052 16.7408L6.87433 16.8414L6.87918 16.9421L6.88505 17.0426L6.89195 17.1428L6.89988 17.243L6.90882 17.343L6.91879 17.4429L6.92977 17.5426L6.94176 17.6421L6.95478 17.7414L6.9688 17.8405L6.98383 17.9394L6.99985 18.038L7.01688 18.1365L7.03492 18.2347L7.05393 18.3326L7.07395 18.4303L7.09494 18.5277L7.11693 18.6249L7.13988 18.7216L7.16383 18.8182L7.18874 18.9144L7.21463 19.0103L7.24143 19.1058L7.26927 19.2011L7.29799 19.296L7.32775 19.3906L7.35839 19.4848L7.38999 19.5786L7.42255 19.6719L7.45599 19.765L7.49039 19.8576L7.52575 19.9498L7.56199 20.0416L7.59911 20.133L7.63719 20.2239L7.67615 20.3144L7.71607 20.4044L7.75679 20.494L7.79847 20.583L7.84103 20.6717L7.88439 20.7598L7.92871 20.8474L7.97383 20.9346L8.01983 21.0213L8.06671 21.1074L8.11439 21.193L8.16295 21.278L8.21231 21.3625L8.26255 21.4464L8.31359 21.5298L8.36543 21.6126L8.41807 21.6949L8.47159 21.7766L8.52575 21.8576L8.58087 21.9382L8.63663 22.018L8.69327 22.0973L8.75063 22.1759L8.80879 22.2539L8.86767 22.3313L8.92735 22.4081L8.98767 22.4842L9.04879 22.5596L9.11063 22.6344L9.17319 22.7086L9.23647 22.7819L9.30047 22.8548L9.36511 22.9268L9.43047 22.9982L9.49647 23.0689L9.56319 23.1389L9.63055 23.2082L9.69863 23.2767L9.76727 23.3446L9.83663 23.4117L9.90663 23.4781L9.97711 23.5437L10.0484 23.6086L10.1201 23.6727L10.1925 23.7361L10.2656 23.7987L10.3392 23.8606L10.4133 23.9217L10.4881 23.9819L10.5633 24.0414L10.6392 24.1002L10.7156 24.1582L10.7925 24.2153L10.8699 24.2716L10.9478 24.3271L11.0263 24.3818L11.1053 24.4358L11.1848 24.4889L11.2647 24.5411L11.3451 24.5926L11.426 24.6432L11.5073 24.693L11.589 24.7419L11.6713 24.79L11.7538 24.8372L11.8369 24.8836L11.9203 24.9291L12.0042 24.9738L12.0885 25.0177L12.173 25.0606L12.2581 25.1027L12.3435 25.1439L12.4292 25.1843L12.5152 25.2238L12.6017 25.2624L12.6883 25.3001L12.7753 25.3369L12.8627 25.3729L12.9504 25.4079L13.0382 25.4421L13.1265 25.4754L13.2149 25.5078L13.3037 25.5393L13.3926 25.5698L13.4819 25.5996L13.5713 25.6283L13.661 25.6562L13.7509 25.6832L13.841 25.7093L13.9313 25.7345L14.0217 25.7587L14.1124 25.7822L14.2032 25.8046L14.2941 25.8261L14.3853 25.8467L14.4765 25.8665L14.5679 25.8853L14.6593 25.9031L14.751 25.9201L14.8426 25.9362L14.9345 25.9514L15.0263 25.9655L15.1182 25.9789L15.2102 25.9913L15.3022 26.0028L15.3943 26.0134L15.4864 26.023L15.5785 26.0318L15.6707 26.0396L15.7629 26.0465L15.855 26.0526L15.9471 26.0576L16.0392 26.0618L16.1313 26.0651L16.2233 26.0675L16.3153 26.069L16.4072 26.0695L16.499 26.0692L16.5908 26.0679L16.6825 26.0658L16.774 26.0628L16.8655 26.0589L16.9568 26.054L17.048 26.0483L17.139 26.0417L17.23 26.0342L17.3207 26.0258L17.4113 26.0165L17.5018 26.0063L17.5921 25.9953L17.6821 25.9834L17.772 25.9706L17.8617 25.957L17.9511 25.9424L18.0402 25.927L18.1293 25.9107L18.218 25.8936L18.3065 25.8757L18.3948 25.8568L18.4826 25.8371L18.5703 25.8166L18.6577 25.7952L18.7448 25.773L18.8316 25.75L18.9181 25.7261L19.0042 25.7014L19.0901 25.6758L19.1755 25.6495L19.2606 25.6223L19.3455 25.5943L19.4299 25.5655L19.514 25.5359L19.5977 25.5055L19.6809 25.4743L19.7638 25.4423L19.8463 25.4095L19.9285 25.3759L20.0101 25.3416L20.0913 25.3065L20.1722 25.2706L20.2525 25.234L20.3325 25.1966L20.4121 25.1584L20.4909 25.1196L20.5697 25.0798L20.6477 25.0395L20.7253 24.9983L20.8023 24.9566L20.8789 24.914L20.9551 24.8707L21.0306 24.8267L21.1057 24.782L21.1803 24.7366L21.2542 24.6906L21.3278 24.6438L21.4006 24.5964L21.473 24.5482L21.5449 24.4994L21.6161 24.4499L21.6867 24.3999L21.7569 24.349L21.8264 24.2978L21.8953 24.2457L21.9637 24.193L22.0313 24.1398L22.0985 24.0858L22.1651 24.0312L22.2308 23.9762L22.2962 23.9202L22.3608 23.864L22.4247 23.8072L22.4882 23.7495L22.5508 23.6916L22.6129 23.633L22.6743 23.5738L22.7349 23.5141L22.795 23.4538L22.8545 23.393L22.9132 23.3316L22.9711 23.2698L23.0285 23.2074L23.0852 23.1445L23.141 23.0812L23.1964 23.0172L23.2509 22.9529L23.3046 22.8881L23.3578 22.8226L23.4101 22.757L23.4618 22.6907L23.5128 22.6241L23.563 22.5569L23.6125 22.4894L23.6611 22.4215L23.7092 22.353L23.7564 22.2842L23.8029 22.215L23.8487 22.1454L23.8935 22.0755L23.9378 22.0051L23.9813 21.9343L24.024 21.8633L24.0658 21.7918L24.1071 21.7199L24.1473 21.648L24.187 21.5754L24.2258 21.5026L24.2637 21.4296L24.3011 21.356L24.3374 21.2826L24.3732 21.2083L24.4079 21.1343L24.4421 21.0595L24.4753 20.9849L24.5078 20.9096L24.5395 20.8344L24.5703 20.7589L24.6004 20.683L24.6297 20.607L24.658 20.5309L24.6857 20.4543L24.7125 20.3777L24.7385 20.3009L24.7637 20.2238L24.7881 20.1466L24.8117 20.0692L24.8344 19.9918L24.8563 19.914L24.8773 19.8362L24.8977 19.7582L24.9171 19.6802L24.9357 19.6021L24.9536 19.5236L24.9705 19.4452L24.9868 19.3667L25.0021 19.2882L25.0166 19.2096L25.0303 19.1306L25.0432 19.052L25.0553 18.9731L25.0665 18.8942L25.0769 18.8154L25.0865 18.7364L25.0953 18.6572L25.1032 18.5786L25.1104 18.4993L25.1167 18.4203L25.1221 18.3415L25.1269 18.2625L25.1307 18.1836L25.1337 18.1048L25.136 18.0258L25.1373 17.9472L25.138 17.8683L25.1377 17.7897L25.1368 17.711L25.1349 17.6327L25.1323 17.5542L25.1289 17.4759L25.1246 17.3979L25.1196 17.3197L25.1137 17.2417L25.1072 17.1641L25.0997 17.0862L25.0915 17.0089L25.0825 16.9314L25.0727 16.8542L25.0621 16.7772L25.0508 16.7002L25.0386 16.6236L25.0257 16.5472L25.0121 16.471L24.9976 16.395L24.9823 16.3189L24.9663 16.2434L24.9496 16.1681L24.9321 16.0929L24.9137 16.0178L24.8948 15.9434L24.8749 15.8688L24.8545 15.7948L24.8332 15.7209L24.8112 15.6474L24.7885 15.5741L24.7649 15.501L24.7408 15.4285L24.7159 15.3562L24.6901 15.2839L24.6639 15.2123L24.6368 15.1409L24.609 15.0699L24.5805 14.9991L24.5513 14.9286L24.5215 14.8588L24.4909 14.789L24.4597 14.7198L24.4277 14.651L24.3951 14.5824L24.3617 14.5142L24.3279 14.4466L24.2932 14.3791L24.258 14.3123L24.2221 14.2459L24.1854 14.1796L24.1483 14.1141L24.1104 14.0488L24.0719 13.9841L24.0327 13.9196L23.9931 13.8558L23.9526 13.7922L23.9117 13.7294L23.8701 13.6669L23.828 13.6049L23.7851 13.5432L23.7417 13.4822L23.6979 13.4217L23.6533 13.3614L23.6082 13.3019L23.5625 13.2428L23.5164 13.1843L23.4695 13.1262L23.4221 13.0686L23.3742 13.0116L23.3258 12.955L23.2769 12.8992L23.2273 12.8437L23.1774 12.7889L23.1269 12.7345L23.076 12.6809L23.0243 12.6275L22.9724 12.575L22.9197 12.5227L22.8668 12.4713L22.8134 12.4204L22.7595 12.37L22.705 12.3202L22.6501 12.271L22.5949 12.2225L22.5389 12.1743L22.483 12.1271L22.4263 12.0802L22.3693 12.034L22.3118 11.9885L22.2539 11.9434L22.1957 11.899L22.1372 11.8554L22.078 11.8122L22.0184 11.7696L21.9588 11.7279L21.8984 11.6866L21.8381 11.6462L21.7772 11.6062L21.7159 11.5668L21.6542 11.5281L21.5925 11.4902L21.5301 11.4527L21.4676 11.4161L21.4045 11.3799L21.3416 11.3446L21.2781 11.3099L21.2142 11.2758L21.1501 11.2423L21.0859 11.2097L21.0213 11.1775L20.9563 11.1461L20.8913 11.1154L20.8261 11.0854L20.7601 11.0558L20.6945 11.0272L20.6285 10.9992L20.5621 10.9718L20.4956 10.9451L20.429 10.9192L20.3621 10.8939L20.2949 10.8692L20.2277 10.8454L20.1602 10.8221L20.0925 10.7995L20.0249 10.7777L19.957 10.7566L19.8891 10.7361L19.8206 10.7162L19.7524 10.6972L19.684 10.6788L19.6154 10.6611L19.5468 10.6441L19.4778 10.6278L19.409 10.6122L19.3402 10.5973L19.2711 10.583L19.2018 10.5694L19.1329 10.5567L19.0636 10.5446L18.9944 10.5331L18.9249 10.5223L18.8557 10.5123L18.7861 10.5029L18.7169 10.4943L18.6474 10.4863L18.578 10.479L18.5086 10.4725L18.4391 10.4666L18.3699 10.4614L18.3003 10.4569L18.231 10.453L18.1619 10.4499L18.0923 10.4474L18.0233 10.4457L17.9541 10.4446L17.8851 10.4442L17.8379 10.4444L17.8737 13.4647L17.895 13.4648L17.9347 13.4654L17.9745 13.4663L18.0143 13.4676L18.0541 13.4694L18.0941 13.4716L18.134 13.4742L18.174 13.4772L18.214 13.4806L18.2541 13.4845L18.2941 13.4887L18.3342 13.4934L18.3744 13.4985L18.4145 13.504L18.4546 13.5099L18.4948 13.5163L18.5349 13.5231L18.575 13.5303L18.6152 13.538L18.6553 13.546L18.6953 13.5546L18.7354 13.5634L18.7755 13.5728L18.8154 13.5826L18.8554 13.5927L18.8953 13.6034L18.9352 13.6144L18.975 13.6258L19.0148 13.6378L19.0545 13.6501L19.0941 13.6629L19.1337 13.6761L19.1731 13.6897L19.2125 13.7037L19.2518 13.7182L19.291 13.733L19.3301 13.7483L19.3692 13.7641L19.4081 13.7802L19.4469 13.7968L19.4856 13.8138L19.5241 13.8313L19.5626 13.8491L19.6009 13.8674L19.6391 13.8861L19.6772 13.9052L19.715 13.9248L19.7528 13.9447L19.7904 13.9651L19.8278 13.9859L19.8651 14.0071L19.9022 14.0287L19.9391 14.0507L19.9759 14.0732L20.0125 14.0961L20.0489 14.1194L20.085 14.143L20.121 14.167L20.1569 14.1916L20.1925 14.2165L20.2278 14.2418L20.263 14.2674L20.298 14.2935L20.3327 14.32L20.3672 14.3469L20.4015 14.3742L20.4355 14.4018L20.4693 14.4298L20.5029 14.4583L20.5361 14.4871L20.5692 14.5163L20.602 14.5459L20.6345 14.5759L20.6667 14.6062L20.6986 14.637L20.7304 14.6681L20.7617 14.6995L20.7929 14.7314L20.8237 14.7635L20.8542 14.7961L20.8845 14.829L20.9144 14.8623L20.9441 14.8959L20.9733 14.9299L21.0023 14.9642L21.031 14.9989L21.0593 15.0339L21.0873 15.0693L21.115 15.105L21.1424 15.141L21.1694 15.1774L21.1961 15.2141L21.2223 15.251L21.2483 15.2884L21.2739 15.3261L21.2991 15.3641L21.324 15.4023L21.3485 15.441L21.3726 15.4798L21.3964 15.519L21.4197 15.5586L21.4427 15.5983L21.4653 15.6384L21.4875 15.6788L21.5093 15.7194L21.5308 15.7604L21.5517 15.8016L21.5724 15.843L21.5925 15.8848L21.6123 15.9269L21.6317 15.9691L21.6506 16.0117L21.6692 16.0545L21.6873 16.0975L21.7049 16.1408L21.7221 16.1843L21.7389 16.2281L21.7553 16.2721L21.7713 16.3163L21.7867 16.3608L21.8017 16.4054L21.8163 16.4503L21.8304 16.4954L21.8441 16.5407L21.8573 16.5862L21.87 16.632L21.8823 16.6778L21.8941 16.7239L21.9054 16.7702L21.9163 16.8167L21.9267 16.8633L21.9366 16.9102L21.9461 16.9571L21.9549 17.0042L21.9634 17.0515L21.9714 17.099L21.9789 17.1465L21.9859 17.1942L21.9924 17.2421L21.9984 17.2901L22.0039 17.3382L22.0089 17.3865L22.0134 17.4348L22.0174 17.4833L22.0209 17.5319L22.0239 17.5806L22.0264 17.6294L22.0283 17.6782L22.0298 17.7272L22.0307 17.7762L22.0312 17.8254L22.031 17.8745L22.0305 17.9238L22.0293 17.9731L22.0277 18.0225L22.0255 18.0719L22.0228 18.1214L22.0196 18.1709L22.0158 18.2204L22.0115 18.27L22.0067 18.3196L22.0014 18.3692L21.9955 18.4188L21.9891 18.4685L21.9822 18.5182L21.9748 18.5678L21.9668 18.6174L21.9582 18.667L21.9492 18.7166L21.9396 18.7662L21.9295 18.8157L21.9188 18.8652L21.9076 18.9146L21.8959 18.9641L21.8836 19.0134L21.8708 19.0628L21.8575 19.112L21.8436 19.1612L21.8292 19.2102L21.8142 19.2593L21.7988 19.3082L21.7828 19.357L21.7662 19.4058L21.7492 19.4545L21.7315 19.503L21.7133 19.5514L21.6947 19.5997L21.6755 19.6479L21.6557 19.6959L21.6355 19.7438L21.6147 19.7916L21.5933 19.8393L21.5715 19.8867L21.5491 19.934L21.5261 19.9812L21.5028 20.0282L21.4788 20.075L21.4543 20.1216L21.4293 20.168L21.4037 20.2142L21.3777 20.2603L21.3512 20.3062L21.3241 20.3518L21.2965 20.3972L21.2684 20.4425L21.2398 20.4874L21.2107 20.5322L21.181 20.5767L21.1509 20.621L21.1203 20.665L21.0892 20.7088L21.0575 20.7523L21.0254 20.7956L20.9928 20.8386L20.9597 20.8813L20.9261 20.9238L20.892 20.9659L20.8574 21.0078L20.8224 21.0494L20.7869 21.0906L20.7508 21.1316L20.7143 21.1722L20.6773 21.2126L20.6399 21.2526L20.6021 21.2923L20.5637 21.3318L20.5249 21.3708L20.4856 21.4094L20.4459 21.4478L20.4057 21.4858L20.365 21.5234L20.324 21.5607L20.2825 21.5977L20.2405 21.6342L20.1981 21.6704L20.1553 21.7062L20.1121 21.7416L20.0684 21.7766L20.0243 21.8112L19.9798 21.8454L19.9349 21.8793L19.8896 21.9127L19.8439 21.9457L19.7977 21.9782L19.7513 22.0105L19.7043 22.0422L19.657 22.0735L19.6093 22.1043L19.5613 22.1348L19.5128 22.1648L19.464 22.1943L19.4148 22.2234L19.3653 22.252L19.3153 22.2802L19.265 22.3078L19.2145 22.3351L19.1635 22.3618L19.1122 22.3882L19.0605 22.4139L19.0086 22.4393L18.9563 22.4641L18.9037 22.4884L18.8508 22.5122L18.7975 22.5355L18.744 22.5584L18.6901 22.5807L18.636 22.6025L18.5815 22.6238L18.5268 22.6446L18.4717 22.6648L18.4165 22.6846L18.3609 22.7038L18.3051 22.7224L18.249 22.7406L18.1927 22.7581L18.1361 22.7751L18.0793 22.7917L18.0222 22.8076L17.9649 22.823L17.9074 22.8378L17.8497 22.8522L17.7917 22.8658L17.7335 22.879L17.6751 22.8916L17.6165 22.9037L17.5577 22.9151L17.4988 22.926L17.4397 22.9363L17.3803 22.9461L17.3209 22.9552L17.2612 22.9638L17.2014 22.9718L17.1414 22.9792L17.0813 22.986L17.0211 22.9922L16.9607 22.9978L16.9002 23.0028L16.8396 23.0073L16.7788 23.011L16.718 23.0143L16.657 23.017L16.596 23.019L16.5348 23.0203L16.4736 23.0211L16.4123 23.0214L16.3509 23.021L16.2895 23.0199L16.228 23.0182L16.1665 23.016L16.1049 23.0131L16.0432 23.0096L15.9815 23.0055L15.9198 23.0008L15.8581 22.9954L15.7964 22.9894L15.7347 22.9829L15.6729 22.9756L15.6113 22.9678L15.5495 22.9593L15.4878 22.9502L15.4261 22.9405L15.3645 22.9302L15.3029 22.9192L15.2414 22.9076L15.1799 22.8954L15.1185 22.8826L15.0571 22.8691L14.9958 22.855L14.9346 22.8402L14.8734 22.825L14.8124 22.809L14.7515 22.7923L14.6906 22.7751L14.63 22.7573L14.5693 22.7388L14.5089 22.7197L14.4485 22.7L14.3883 22.6797L14.3283 22.6587L14.2684 22.6371L14.2086 22.6149L14.1491 22.5921L14.0897 22.5686L14.0305 22.5446L13.9714 22.5199L13.9126 22.4946L13.854 22.4687L13.7955 22.4422L13.7373 22.4151L13.6793 22.3874L13.6215 22.359L13.564 22.3301L13.5067 22.3006L13.4497 22.2704L13.3929 22.2397L13.3363 22.2083L13.2801 22.1764L13.224 22.1438L13.1683 22.1107L13.1129 22.077L13.0577 22.0427L13.0029 22.0078L12.9483 21.9724L12.8941 21.9363L12.8401 21.8997L12.7866 21.8625L12.7333 21.8247L12.6804 21.7864L12.6278 21.7474L12.5756 21.708L12.5237 21.668L12.4722 21.6274L12.4211 21.5862L12.3703 21.5446L12.3199 21.5023L12.2699 21.4595L12.2203 21.4162L12.1711 21.3723L12.1223 21.3279L12.0739 21.283L12.0259 21.2375L11.9784 21.1915L11.9312 21.145L11.8845 21.098L11.8383 21.0505L11.7925 21.0024L11.7471 20.9539L11.7022 20.9048L11.6578 20.8553L11.6138 20.8053L11.5704 20.7547L11.5273 20.7038L11.4848 20.6522L11.4428 20.6002L11.4013 20.5478L11.3602 20.495L11.3197 20.4416L11.2797 20.3878L11.2402 20.3335L11.2013 20.2788L11.1628 20.2236L11.1249 20.168L11.0875 20.112L11.0507 20.0555L11.0145 19.9986L10.9787 19.9414L10.9436 19.8837L10.9089 19.8255L10.8749 19.767L10.8415 19.7081L10.8086 19.6488L10.7763 19.5891L10.7446 19.529L10.7135 19.4686L10.6829 19.4078L10.653 19.3466L10.6237 19.285L10.595 19.2232L10.5669 19.161L10.5395 19.0984L10.5126 19.0354L10.4864 18.9722L10.4608 18.9086L10.4358 18.8448L10.4115 18.7806L10.3879 18.7161L10.3649 18.6513L10.3425 18.5862L10.3207 18.5209L10.2997 18.4552L10.2793 18.3893L10.2595 18.3231L10.2404 18.2566L10.222 18.1899L10.2043 18.123L10.1872 18.0558L10.1709 17.9883L10.1552 17.9207L10.1401 17.8528L10.1258 17.7847L10.1122 17.7164L10.0993 17.6479L10.087 17.5792L10.0755 17.5103L10.0647 17.4413L10.0545 17.372L10.0451 17.3026L10.0365 17.233L10.0285 17.1634L10.0212 17.0934L10.0146 17.0234L10.0088 16.9533L10.0037 16.883L9.99927 16.8126L9.99559 16.7422L9.99263 16.6716L9.99039 16.6009L9.98895 16.5301L9.98823 16.4593L9.98815 16.3883L9.98887 16.3173L9.99039 16.2462L9.99255 16.1751L9.99551 16.1039L9.99919 16.0327L10.0036 15.9615L10.0087 15.8902L10.0146 15.819L10.0213 15.7477L10.0286 15.6764L10.0368 15.6051L10.0457 15.5338L10.0553 15.4626L10.0657 15.3914L10.0768 15.3202L10.0887 15.2491L10.1013 15.178L10.1146 15.107L10.1288 15.036L10.1437 14.9651L10.1593 14.8943L10.1756 14.8236L10.1927 14.753L10.2105 14.6825L10.2292 14.6121L10.2485 14.5418L10.2686 14.4717L10.2894 14.4016L10.311 14.3318L10.3333 14.262L10.3564 14.1924L10.3802 14.123L10.4048 14.0538L10.4301 13.9847L10.4561 13.9158L10.4829 13.8472L10.5104 13.7787L10.5386 13.7104L10.5676 13.6424L10.5973 13.5746L10.6277 13.507L10.6589 13.4396L10.6908 13.3725L10.7233 13.3057L10.7567 13.239L10.7907 13.1727L10.8255 13.1067L10.8609 13.041L10.8972 12.9755L10.9341 12.9103L10.9717 12.8454L11.01 12.781L11.049 12.7167L11.0887 12.6528L11.1292 12.5893L11.1703 12.526L11.2121 12.4631L11.2545 12.4006L11.2977 12.3385L11.3416 12.2767L11.3861 12.2154L11.4313 12.1543L11.4772 12.0937L11.5237 12.0335L11.5709 11.9737L11.6189 11.9143L11.6674 11.8553L11.7165 11.7968L11.7664 11.7386L11.8169 11.681L11.868 11.6238L11.9197 11.567L11.9721 11.5107L12.0252 11.4549L12.0789 11.3995L12.1331 11.3446L12.188 11.2902L12.2435 11.2363L12.2996 11.183L12.3563 11.1301L12.4136 11.0777L12.4714 11.0258L12.5299 10.9745L12.589 10.9238L12.6486 10.8734L12.7089 10.8238L12.7696 10.7746L12.8309 10.726L12.8928 10.678L12.9553 10.6306L13.0182 10.5837L13.0817 10.5374L13.1458 10.4917L13.2104 10.4466L13.2755 10.402L13.3412 10.3581L13.4073 10.3148L13.4739 10.2722L13.5411 10.2301L13.6087 10.1886L13.6769 10.1478L13.7454 10.1077L13.8145 10.0682L13.8841 10.0293L13.9541 9.99104L14.0245 9.95352L14.0954 9.91664L14.1668 9.8804L14.2385 9.84488L14.3108 9.81L14.3834 9.77584L14.4565 9.74232L14.5299 9.70952L14.6037 9.67744L14.6781 9.646L14.7527 9.61528L14.8277 9.58536L14.9031 9.55608L14.9789 9.52752L15.0549 9.49968L15.1314 9.47264L15.2083 9.44624L15.2854 9.42064L15.3629 9.39576L15.4407 9.3716L15.5189 9.34824L15.5973 9.3256L15.676 9.30376L15.755 9.28264L15.8343 9.26224L15.9139 9.24264L15.9937 9.22384L16.0739 9.20584L16.1542 9.18856L16.2349 9.17208L16.3157 9.1564L16.3562 9.14888ZM17.3497 14.9571L16.4277 15.1774L16.3735 10.6098L16.3301 10.6196L16.2646 10.635L16.1993 10.6511L16.1344 10.6678L16.0696 10.685L16.0052 10.703L15.9408 10.7216L15.877 10.7406L15.8131 10.7605L15.75 10.7807L15.6867 10.8018L15.6238 10.8234L15.5613 10.8455L15.4989 10.8682L15.4372 10.8915L15.3755 10.9155L15.3141 10.94L15.2532 10.965L15.1923 10.9908L15.1322 11.0169L15.0721 11.0438L15.0126 11.071L14.9532 11.099L14.8943 11.1274L14.8356 11.1565L14.7775 11.186L14.7197 11.2161L14.6622 11.2467L14.6052 11.2778L14.5485 11.3095L14.4921 11.3418L14.4365 11.3744L14.3807 11.4078L14.3257 11.4414L14.2711 11.4757L14.2169 11.5104L14.1629 11.5457L14.1096 11.5814L14.0566 11.6177L14.0041 11.6543L13.9521 11.6914L13.9003 11.7291L13.8491 11.7673L13.7984 11.8058L13.7481 11.8449L13.6983 11.8842L13.649 11.9242L13.6001 11.9646L13.5516 12.0054L13.5037 12.0466L13.4563 12.0882L13.4093 12.1302L13.3629 12.1727L13.3169 12.2157L13.2714 12.259L13.2265 12.3026L13.1819 12.3467L13.138 12.3911L13.0945 12.436L13.0517 12.4811L13.0091 12.5269L12.9673 12.5727L12.9259 12.619L12.885 12.6658L12.8448 12.7126L12.8049 12.7601L12.7658 12.8076L12.727 12.8558L12.6889 12.904L12.6513 12.9527L12.6142 13.0018L12.5777 13.051L12.5417 13.1005L12.5064 13.1503L12.4715 13.2006L12.4372 13.251L12.4035 13.3018L12.3704 13.3526L12.3378 13.4038L12.3057 13.4554L12.2744 13.5071L12.2434 13.5593L12.2132 13.6114L12.1834 13.6639L12.1542 13.7166L12.1257 13.7695L12.0977 13.8226L12.0704 13.876L12.0435 13.9297L12.0173 13.9833L11.9917 14.0374L11.9666 14.0914L11.9422 14.1458L11.9183 14.2002L11.895 14.255L11.8724 14.3097L11.8503 14.3647L11.8289 14.4198L11.8079 14.4751L11.7877 14.5304L11.768 14.586L11.7489 14.6417L11.7304 14.6974L11.7125 14.7533L11.6952 14.8094L11.6785 14.8654L11.6625 14.9215L11.6469 14.9778L11.632 15.0342L11.6177 15.0906L11.6041 15.1471L11.5909 15.2037L11.5785 15.2603L11.5666 15.317L11.5553 15.3737L11.5446 15.4304L11.5345 15.4873L11.5251 15.544L11.5162 15.6008L11.5079 15.6578L11.5002 15.7145L11.4932 15.7714L11.4867 15.8282L11.4808 15.885L11.4755 15.942L11.4708 15.9987L11.4667 16.0555L11.4632 16.1123L11.4602 16.169L11.4579 16.2256L11.4561 16.2822L11.455 16.3388L11.4544 16.3953L11.4545 16.4517L11.455 16.508L11.4562 16.5643L11.458 16.6205L11.4603 16.6766L11.4632 16.7326L11.4667 16.7884L11.4708 16.8442L11.4754 16.8998L11.4806 16.9554L11.4864 17.0109L11.4927 17.066L11.4996 17.1213L11.507 17.1762L11.5151 17.2311L11.5237 17.2858L11.5328 17.3403L11.5425 17.3948L11.5527 17.449L11.5635 17.503L11.5748 17.5568L11.5867 17.6106L11.5991 17.664L11.6121 17.7174L11.6255 17.7703L11.6396 17.8234L11.6541 17.8759L11.6691 17.9285L11.6847 17.9806L11.7008 18.0327L11.7174 18.0845L11.7345 18.1359L11.7522 18.1874L11.7704 18.2384L11.789 18.2891L11.8081 18.3398L11.8278 18.3901L11.848 18.4401L11.8686 18.4898L11.8897 18.5393L11.9113 18.5886L11.9334 18.6375L11.956 18.6862L11.979 18.7345L12.0025 18.7825L12.0265 18.8304L12.0509 18.8778L12.0757 18.9249L12.1011 18.9718L12.1269 19.0182L12.1532 19.0645L12.1798 19.1104L12.2069 19.1558L12.2345 19.2011L12.2625 19.246L12.2909 19.2905L12.3197 19.3347L12.3489 19.3786L12.3786 19.4222L12.4086 19.4651L12.4391 19.508L12.47 19.5504L12.5012 19.5924L12.5329 19.6342L12.5649 19.6754L12.5973 19.7163L12.6301 19.7569L12.6633 19.7971L12.6968 19.8368L12.7308 19.8762L12.765 19.9153L12.7996 19.9538L12.8347 19.9921L12.8699 20.0298L12.9056 20.0673L12.9416 20.1042L12.9778 20.1408L13.0145 20.177L13.0515 20.2127L13.0888 20.2481L13.1264 20.283L13.1643 20.3174L13.2025 20.3515L13.241 20.3851L13.2798 20.4183L13.3189 20.4511L13.3582 20.4834L13.3979 20.5154L13.4379 20.5468L13.478 20.5778L13.5185 20.6083L13.5592 20.6385L13.6001 20.6682L13.6413 20.6974L13.6828 20.7262L13.7245 20.7545L13.7664 20.7823L13.8085 20.8097L13.8508 20.8366L13.8935 20.8632L13.9362 20.8891L13.9792 20.9147L14.0225 20.9398L14.0657 20.9644L14.1093 20.9886L14.1532 21.0123L14.1971 21.0355L14.2412 21.0582L14.2854 21.0805L14.33 21.1023L14.3745 21.1236L14.4193 21.1445L14.4642 21.1649L14.5092 21.1847L14.5545 21.2042L14.5998 21.2231L14.6452 21.2416L14.6908 21.2596L14.7365 21.277L14.7824 21.2941L14.8281 21.3106L14.8743 21.3267L14.9203 21.3422L14.9665 21.3574L15.0128 21.372L15.0592 21.3862L15.1056 21.3998L15.1521 21.413L15.1987 21.4256L15.2453 21.4378L15.292 21.4495L15.3387 21.4608L15.3854 21.4715L15.4322 21.4818L15.4791 21.4916L15.526 21.5009L15.5729 21.5098L15.6197 21.5181L15.6667 21.526L15.7137 21.5334L15.7606 21.5403L15.8074 21.5467L15.8544 21.5526L15.9013 21.5582L15.9482 21.5632L15.9951 21.5677L16.042 21.5718L16.0888 21.5754L16.1355 21.5785L16.1823 21.5811L16.2289 21.5833L16.2755 21.585L16.3222 21.5862L16.3686 21.587L16.415 21.5874L16.4614 21.5872L16.5077 21.5866L16.554 21.5855L16.6001 21.584L16.6461 21.5821L16.692 21.5796L16.738 21.5767L16.7836 21.5734L16.8293 21.5696L16.8747 21.5654L16.9201 21.5607L16.9654 21.5555L17.0105 21.55L17.0556 21.544L17.1004 21.5375L17.145 21.5306L17.1897 21.5234L17.2341 21.5156L17.2784 21.5074L17.3225 21.4988L17.3665 21.4898L17.4102 21.4803L17.4537 21.4705L17.4973 21.4602L17.5405 21.4494L17.5836 21.4384L17.6265 21.4269L17.6691 21.415L17.7117 21.4026L17.754 21.3898L17.7959 21.3767L17.838 21.3631L17.8796 21.3492L17.921 21.335L17.9622 21.3202L18.0032 21.3051L18.0441 21.2896L18.0846 21.2738L18.1249 21.2575L18.1649 21.241L18.2048 21.2239L18.2445 21.2066L18.2837 21.1889L18.3229 21.1708L18.3617 21.1524L18.4001 21.1336L18.4385 21.1145L18.4765 21.095L18.5143 21.0752L18.5518 21.055L18.589 21.0345L18.6259 21.0137L18.6626 20.9925L18.699 20.971L18.735 20.9491L18.7708 20.927L18.8063 20.9045L18.8415 20.8818L18.8765 20.8586L18.911 20.8353L18.9453 20.8115L18.9793 20.7875L19.0129 20.7633L19.0463 20.7386L19.0793 20.7138L19.1121 20.6886L19.1445 20.6631L19.1766 20.6374L19.2083 20.6114L19.2397 20.5852L19.2708 20.5586L19.3015 20.5318L19.332 20.5048L19.3621 20.4774L19.3918 20.4499L19.4211 20.4222L19.4502 20.3941L19.4789 20.3658L19.5073 20.3373L19.5353 20.3086L19.5629 20.2795L19.5902 20.2504L19.6173 20.2209L19.6437 20.1914L19.6701 20.1614L19.6959 20.1314L19.7213 20.1012L19.7466 20.0706L19.7713 20.0401L19.7957 20.0092L19.8198 19.9782L19.8434 19.947L19.8668 19.9156L19.8897 19.8842L19.9122 19.8523L19.9345 19.8204L19.9562 19.7885L19.9777 19.7562L19.9988 19.7238L20.0193 19.6914L20.0397 19.6587L20.0596 19.6259L20.0791 19.593L20.0983 19.5599L20.117 19.5267L20.1354 19.4934L20.1534 19.4599L20.171 19.4265L20.1882 19.3928L20.2051 19.359L20.2216 19.3252L20.2377 19.2911L20.2533 19.2571L20.2686 19.223L20.2835 19.1888L20.2981 19.1544L20.3121 19.1201L20.326 19.0854L20.3393 19.0511L20.3523 19.0162L20.3648 18.9819L20.377 18.947L20.3889 18.9122L20.4002 18.8774L20.4113 18.8426L20.4219 18.8078L20.4322 18.7726L20.442 18.7378L20.4516 18.7026L20.4606 18.6678L20.4693 18.6326L20.4777 18.5974L20.4856 18.5625L20.4931 18.5276L20.5003 18.4922L20.5071 18.4573L20.5135 18.422L20.5195 18.3871L20.5252 18.3521L20.5305 18.317L20.5353 18.2818L20.5398 18.2468L20.544 18.2119L20.5477 18.1771L20.5511 18.142L20.5541 18.1072L20.5568 18.0723L20.559 18.0375L20.5609 18.0028L20.5625 17.9682L20.5636 17.9337L20.5644 17.899L20.5649 17.8643L20.5649 17.83L20.5646 17.7957L20.564 17.7614L20.5629 17.7273L20.5616 17.693L20.5598 17.6593L20.5577 17.6249L20.5553 17.5914L20.5525 17.5577L20.5494 17.5238L20.5459 17.4902L20.5421 17.457L20.5379 17.4234L20.5334 17.3904L20.5285 17.3572L20.5234 17.3245L20.5178 17.2914L20.512 17.2586L20.5058 17.2262L20.4993 17.1938L20.4925 17.1613L20.4853 17.1292L20.4778 17.0971L20.47 17.0653L20.4619 17.0337L20.4533 17.0018L20.4447 16.9706L20.4356 16.9391L20.4262 16.9082L20.4165 16.8772L20.4065 16.8465L20.3962 16.8158L20.3856 16.7853L20.3748 16.7552L20.3636 16.7252L20.3521 16.6951L20.3403 16.6655L20.3282 16.6358L20.316 16.6067L20.3033 16.5774L20.2905 16.5485L20.2773 16.5198L20.2638 16.4912L20.2501 16.4629L20.2361 16.4347L20.2219 16.4067L20.2074 16.379L20.1926 16.3515L20.1777 16.3242L20.1624 16.2971L20.1468 16.2702L20.1311 16.2436L20.1151 16.2172L20.0988 16.1909L20.0823 16.165L20.0656 16.1393L20.0486 16.1138L20.0314 16.0884L20.0141 16.0634L19.9964 16.0386L19.9785 16.014L19.9605 15.9897L19.9421 15.9656L19.9237 15.9418L19.9049 15.9181L19.8861 15.8948L19.8669 15.8717L19.8477 15.8488L19.8281 15.8262L19.8085 15.8038L19.7886 15.7818L19.7685 15.7599L19.7483 15.7382L19.7279 15.717L19.7073 15.6959L19.6865 15.675L19.6656 15.6546L19.6445 15.6343L19.6233 15.6143L19.6017 15.5945L19.5802 15.575L19.5585 15.5558L19.5366 15.5369L19.5145 15.5182L19.4924 15.4998L19.4701 15.4817L19.4477 15.4638L19.4251 15.4462L19.4024 15.4289L19.3796 15.4119L19.3566 15.3951L19.3335 15.3786L19.3104 15.3625L19.2871 15.3465L19.2637 15.3309L19.2402 15.3155L19.2165 15.3004L19.1929 15.2856L19.169 15.271L19.1452 15.2568L19.1213 15.2429L19.0972 15.2292L19.0729 15.2158L19.0488 15.2026L19.0245 15.1898L19.0001 15.1772L18.9758 15.165L18.9512 15.1529L18.9267 15.1412L18.9021 15.1298L18.8774 15.1186L18.8527 15.1078L18.8278 15.0971L18.8032 15.0869L18.7782 15.0769L18.7533 15.0671L18.7284 15.0577L18.7034 15.0485L18.6785 15.0396L18.6534 15.031L18.6284 15.0226L18.6034 15.0146L18.5783 15.0067L18.5532 14.9992L18.5282 14.992L18.5029 14.985L18.478 14.9784L18.4529 14.972L18.4277 14.9658L18.4026 14.96L18.3776 14.9544L18.3525 14.9491L18.3274 14.9441L18.3025 14.9393L18.2775 14.9348L18.2524 14.9306L18.2276 14.9266L18.2025 14.923L18.1777 14.9195L18.1528 14.9163L18.128 14.9134L18.1033 14.9108L18.0785 14.9085L18.0539 14.9063L18.0293 14.9045L18.0047 14.9029L17.9801 14.9015L17.9557 14.9005L17.9314 14.8997L17.907 14.899L17.8828 14.8987L17.8585 14.8986L17.8345 14.8989L17.8104 14.8993L17.7865 14.8999L17.7625 14.9009L17.7389 14.902L17.715 14.9034L17.6915 14.905L17.668 14.9069L17.6445 14.909L17.6213 14.9114L17.5979 14.9139L17.5749 14.9167L17.5518 14.9198L17.5289 14.923L17.5061 14.9266L17.4834 14.9302L17.4608 14.9342L17.4385 14.9383L17.416 14.9427L17.3938 14.9473L17.3717 14.9521L17.3497 14.9571Z" fill="#697077"/>
</svg>
