<svg width="22" height="32" viewBox="0 0 22 32" fill="none" xmlns="http://www.w3.org/2000/svg">
<path d="M10.2915 19.9817V28.1025C10.2915 28.4138 10.1678 28.7124 9.9477 28.9324C9.72766 29.1526 9.42911 29.2762 9.11776 29.2762C8.80652 29.2762 8.50798 29.1526 8.28783 28.9324C8.06768 28.7124 7.94402 28.4138 7.94402 28.1025V19.993C8.27087 20.2317 8.66264 20.3649 9.06722 20.3749C9.50819 20.3874 9.94028 20.2487 10.2915 19.9817ZM20.288 17.6343C19.9901 17.6343 19.7044 17.7526 19.4938 17.9632C19.2832 18.1738 19.1648 18.4596 19.1648 18.7575V20.1727C19.1648 20.484 19.2885 20.7826 19.5086 21.0026C19.7286 21.2228 20.0272 21.3464 20.3385 21.3464C20.6499 21.3464 20.9484 21.2228 21.1685 21.0026C21.3886 20.7826 21.5123 20.484 21.5123 20.1727V18.8136C21.521 18.6526 21.495 18.4915 21.4359 18.3414C21.3768 18.1914 21.2862 18.0557 21.1699 17.9438C21.0538 17.8319 20.9149 17.7464 20.7628 17.6929C20.6106 17.6395 20.4486 17.6195 20.288 17.6343ZM5.39435 23.0593C4.99019 23.0472 4.59893 22.9142 4.27115 22.6774V30.8206C4.27115 31.1335 4.3954 31.4335 4.61658 31.6546C4.83775 31.8758 5.13772 32 5.45051 32C5.7633 32 6.06327 31.8758 6.28444 31.6546C6.50562 31.4335 6.62987 31.1335 6.62987 30.8206V22.7336C6.26309 22.9707 5.83033 23.0848 5.39435 23.0593ZM16.6264 15.1969C16.4742 15.1893 16.3221 15.2127 16.1792 15.2658C16.0365 15.3188 15.9059 15.4003 15.7955 15.5053C15.6852 15.6105 15.5975 15.7368 15.5375 15.8769C15.4777 16.017 15.4468 16.1678 15.447 16.3201V22.5763C15.447 22.8892 15.5712 23.1892 15.7924 23.4103C16.0137 23.6315 16.3136 23.7557 16.6264 23.7557C16.9392 23.7557 17.2392 23.6315 17.4603 23.4103C17.6815 23.1892 17.8057 22.8892 17.8057 22.5763V16.3987C17.8147 16.2367 17.7884 16.0746 17.7287 15.9236C17.6689 15.7727 17.5773 15.6364 17.4598 15.5243C17.3423 15.4122 17.202 15.3269 17.0485 15.2743C16.8949 15.2216 16.7317 15.2029 16.5702 15.2194L16.6264 15.1969ZM12.8973 17.6006C12.4742 17.5976 12.0625 17.4643 11.718 17.2187V25.3843C11.718 25.6972 11.8422 25.9972 12.0634 26.2183C12.2846 26.4395 12.5845 26.5637 12.8973 26.5637C13.2101 26.5637 13.51 26.4395 13.7313 26.2183C13.9525 25.9972 14.0767 25.6972 14.0767 25.3843V17.2299C13.7204 17.4953 13.2854 17.6337 12.8412 17.623L12.8973 17.6006ZM2.84468 23.8568V1.04458C2.84173 0.766506 2.72919 0.500847 2.5315 0.305264C2.33382 0.109681 2.06696 -1.12311e-05 1.78888 8.625e-10H1.54177C1.26369 -1.12311e-05 0.996828 0.109681 0.799144 0.305264C0.601461 0.500847 0.488916 0.766506 0.485962 1.04458V23.8568C0.485962 24.1368 0.597204 24.4054 0.795202 24.6034C0.9932 24.8014 1.26176 24.9126 1.54177 24.9126H1.78888C2.0689 24.9126 2.33745 24.8014 2.53544 24.6034C2.73345 24.4054 2.84468 24.1368 2.84468 23.8568ZM5.5179 22.1945H5.2708C4.99079 22.1945 4.72223 22.0833 4.52423 21.8852C4.32623 21.6872 4.21499 21.4187 4.21499 21.1386V3.76272C4.21796 3.48466 4.33049 3.21898 4.52817 3.02341C4.72586 2.82783 4.99272 2.71814 5.2708 2.71815H5.5179C5.79598 2.71814 6.06285 2.82783 6.26053 3.02341C6.45821 3.21898 6.57076 3.48466 6.57371 3.76272V21.1611C6.57371 21.4411 6.46247 21.7097 6.26447 21.9077C6.06647 22.1057 5.79792 22.2169 5.5179 22.2169V22.1945ZM9.2357 19.5212H8.97736C8.70038 19.5212 8.43463 19.4112 8.23875 19.2153C8.04286 19.0194 7.93279 18.7538 7.93279 18.4767V6.45841C7.93133 6.32029 7.95727 6.18325 8.00905 6.05521C8.06083 5.92718 8.13755 5.8107 8.2347 5.71251C8.33186 5.61432 8.44755 5.53637 8.57503 5.48318C8.70252 5.42998 8.83921 5.40259 8.97736 5.4026H9.2357C9.5138 5.40556 9.77944 5.5181 9.97499 5.71578C10.1707 5.91346 10.2803 6.18032 10.2803 6.45841V18.4767C10.2803 18.7538 10.1702 19.0194 9.97432 19.2153C9.77843 19.4112 9.51279 19.5212 9.2357 19.5212ZM12.9535 16.7694H12.7176C12.4395 16.7694 12.1726 16.6598 11.975 16.4641C11.7773 16.2686 11.6647 16.0029 11.6618 15.7248V9.25518C11.6526 9.11096 11.673 8.9664 11.722 8.83038C11.7709 8.69448 11.8473 8.56991 11.9462 8.46467C12.0452 8.35931 12.1647 8.27552 12.2974 8.21824C12.4301 8.16107 12.5731 8.13164 12.7176 8.13198H12.9647C13.2447 8.13198 13.5133 8.24317 13.7113 8.44119C13.9093 8.63921 14.0205 8.90777 14.0205 9.18779V15.7024C14.022 15.842 13.9958 15.9805 13.9434 16.1098C13.891 16.2392 13.8135 16.357 13.7153 16.4562C13.6171 16.5554 13.5003 16.6342 13.3713 16.688C13.2425 16.7418 13.1043 16.7694 12.9647 16.7694H12.9535ZM16.6825 14.3545H16.4354C16.1554 14.3545 15.8868 14.2433 15.6888 14.0453C15.4908 13.8473 15.3796 13.5787 15.3796 13.2987V11.6251C15.3825 11.347 15.4951 11.0814 15.6928 10.8858C15.8904 10.6902 16.1573 10.5806 16.4354 10.5806H16.6825C16.9606 10.5806 17.2275 10.6902 17.4252 10.8858C17.6229 11.0814 17.7354 11.347 17.7383 11.6251V13.2987C17.7383 13.5768 17.6287 13.8437 17.433 14.0414C17.2375 14.239 16.9719 14.3516 16.6938 14.3545H16.6825Z" fill="#697077"/>
</svg>
